CharisSIL-BoldItalic.ufo
<glyph name="PercentSgn" format="2">
  <advance width="1843"/>
  <unicode hex="0025"/>
  <outline>
    <contour>
      <point x="1763" y="535" type="curve" smooth="yes"/>
      <point x="1763" y="719"/>
      <point x="1669" y="823"/>
      <point x="1483" y="823" type="curve" smooth="yes"/>
      <point x="1176" y="823"/>
      <point x="1034" y="524"/>
      <point x="1034" y="254" type="curve" smooth="yes"/>
      <point x="1034" y="70"/>
      <point x="1126" y="-33"/>
      <point x="1313" y="-33" type="curve" smooth="yes"/>
      <point x="1618" y="-33"/>
      <point x="1763" y="262"/>
    </contour>
    <contour>
      <point x="1587" y="1374" type="line"/>
      <point x="1438" y="1374" type="line"/>
      <point x="315" y="0" type="line"/>
      <point x="463" y="0" type="line"/>
    </contour>
    <contour>
      <point x="868" y="1118" type="curve" smooth="yes"/>
      <point x="868" y="1303"/>
      <point x="774" y="1407"/>
      <point x="588" y="1407" type="curve" smooth="yes"/>
      <point x="283" y="1407"/>
      <point x="137" y="1110"/>
      <point x="137" y="840" type="curve" smooth="yes"/>
      <point x="137" y="655"/>
      <point x="231" y="549"/>
      <point x="420" y="549" type="curve" smooth="yes"/>
      <point x="725" y="549"/>
      <point x="868" y="848"/>
    </contour>
    <contour>
      <point x="1548" y="584" type="curve" smooth="yes"/>
      <point x="1548" y="467"/>
      <point x="1491" y="63"/>
      <point x="1331" y="63" type="curve" smooth="yes"/>
      <point x="1249" y="63"/>
      <point x="1237" y="160"/>
      <point x="1237" y="223" type="curve" smooth="yes"/>
      <point x="1237" y="346"/>
      <point x="1296" y="727"/>
      <point x="1462" y="727" type="curve" smooth="yes"/>
      <point x="1538" y="727"/>
      <point x="1548" y="641"/>
    </contour>
    <contour>
      <point x="655" y="1165" type="curve" smooth="yes"/>
      <point x="655" y="1051"/>
      <point x="596" y="645"/>
      <point x="438" y="645" type="curve" smooth="yes"/>
      <point x="354" y="645"/>
      <point x="342" y="745"/>
      <point x="342" y="811" type="curve" smooth="yes"/>
      <point x="342" y="932"/>
      <point x="401" y="1311"/>
      <point x="569" y="1311" type="curve" smooth="yes"/>
      <point x="645" y="1311"/>
      <point x="655" y="1225"/>
    </contour>
  </outline>
</glyph>
<glyph name="LftParen" format="2">
  <advance width="868"/>
  <unicode hex="0028"/>
  <outline>
    <contour>
      <point x="967" y="1468" type="line"/>
      <point x="389" y="1452"/>
      <point x="145" y="766"/>
      <point x="145" y="279" type="curve" smooth="yes"/>
      <point x="145" y="-35"/>
      <point x="274" y="-283"/>
      <point x="618" y="-291" type="curve"/>
      <point x="641" y="-180" type="line"/>
      <point x="438" y="-154"/>
      <point x="393" y="20"/>
      <point x="393" y="199" type="curve" smooth="yes"/>
      <point x="393" y="559"/>
      <point x="530" y="1305"/>
      <point x="944" y="1358" type="curve"/>
    </contour>
  </outline>
</glyph>
<glyph name="Asterisk" format="2">
  <advance width="1024"/>
  <unicode hex="002A"/>
  <outline>
    <contour>
      <point x="1044" y="1169" type="line"/>
      <point x="895" y="1229" type="line"/>
      <point x="678" y="1069" type="line"/>
      <point x="690" y="1038" type="line"/>
      <point x="954" y="1036" type="line"/>
    </contour>
    <contour>
      <point x="743" y="1348" type="line"/>
      <point x="641" y="1470" type="line"/>
      <point x="541" y="1348" type="line"/>
      <point x="625" y="1092" type="line"/>
      <point x="657" y="1092" type="line"/>
    </contour>
    <contour>
      <point x="897" y="852" type="line"/>
      <point x="680" y="1012" type="line"/>
      <point x="653" y="987" type="line"/>
      <point x="735" y="733" type="line"/>
      <point x="893" y="692" type="line"/>
    </contour>
    <contour>
      <point x="604" y="1067" type="line"/>
      <point x="385" y="1229" type="line"/>
      <point x="240" y="1169" type="line"/>
      <point x="328" y="1036" type="line"/>
      <point x="594" y="1038" type="line"/>
    </contour>
    <contour>
      <point x="631" y="987" type="line"/>
      <point x="604" y="1012" type="line"/>
      <point x="385" y="852" type="line"/>
      <point x="391" y="692" type="line"/>
      <point x="549" y="733" type="line"/>
    </contour>
  </outline>
</glyph>
<glyph name="HyphenMinus" format="1">
  <advance width="713"/>
  <unicode hex="002D"/>
  <outline>
    <contour>
      <point x="641" y="602" type="line"/>
      <point x="104" y="602" type="line"/>
      <point x="61" y="385" type="line"/>
      <point x="598" y="385" type="line"/>
    </contour>
    <contour>
      <point x="475" y="1100" type="move" name="U"/>
    </contour>
  </outline>
</glyph>
<glyph name="DigitOne" format="2">
  <advance width="1225"/>
  <unicode hex="0031"/>
  <anchor x="499" y="-100" name="L"/>
  <anchor x="787" y="1500" name="U"/>
  <outline>
    <contour>
      <point x="954" y="1407" type="line"/>
      <point x="815" y="1407" type="line"/>
      <point x="305" y="1266" type="line"/>
      <point x="305" y="1151" type="line"/>
      <point x="623" y="1194" type="line"/>
      <point x="418" y="156" type="line" smooth="yes"/>
      <point x="416" y="141"/>
      <point x="399" y="127"/>
      <point x="383" y="127" type="curve" smooth="yes"/>
      <point x="172" y="115" type="line"/>
      <point x="172" y="0" type="line"/>
      <point x="901" y="0" type="line"/>
      <point x="901" y="113" type="line"/>
      <point x="748" y="127" type="line" smooth="yes"/>
      <point x="723" y="129"/>
      <point x="705" y="139"/>
      <point x="709" y="156" type="curve" smooth="yes"/>
    </contour>
  </outline>
</glyph>
<glyph name="DigitThree" format="2">
  <advance width="1225"/>
  <unicode hex="0033"/>
  <anchor x="474" y="-100" name="L"/>
  <anchor x="762" y="1500" name="U"/>
  <outline>
    <contour>
      <point x="1178" y="1110" type="curve" smooth="yes"/>
      <point x="1178" y="1290"/>
      <point x="1051" y="1407"/>
      <point x="764" y="1407" type="curve" smooth="yes"/>
      <point x="469" y="1407"/>
      <point x="231" y="1292"/>
      <point x="231" y="1133" type="curve" smooth="yes"/>
      <point x="231" y="1057"/>
      <point x="311" y="993"/>
      <point x="371" y="993" type="curve" smooth="yes"/>
      <point x="418" y="993"/>
      <point x="485" y="1023"/>
      <point x="514" y="1036" type="curve"/>
      <point x="547" y="1231" type="line"/>
      <point x="569" y="1247"/>
      <point x="623" y="1282"/>
      <point x="696" y="1282" type="curve" smooth="yes"/>
      <point x="723" y="1282"/>
      <point x="858" y="1247"/>
      <point x="858" y="1083" type="curve" smooth="yes"/>
      <point x="858" y="898"/>
      <point x="693" y="783"/>
      <point x="461" y="783" type="curve" smooth="yes"/>
      <point x="449" y="783"/>
      <point x="438" y="783"/>
      <point x="426" y="784" type="curve"/>
      <point x="403" y="625" type="line"/>
      <point x="510" y="643"/>
      <point x="555" y="649"/>
      <point x="594" y="649" type="curve" smooth="yes"/>
      <point x="616" y="649"/>
      <point x="778" y="635"/>
      <point x="778" y="442" type="curve" smooth="yes"/>
      <point x="778" y="233"/>
      <point x="600" y="92"/>
      <point x="457" y="92" type="curve" smooth="yes"/>
      <point x="414" y="92"/>
      <point x="352" y="119"/>
      <point x="336" y="129" type="curve"/>
      <point x="303" y="301" type="line"/>
      <point x="276" y="324"/>
      <point x="246" y="348"/>
      <point x="182" y="348" type="curve" smooth="yes"/>
      <point x="76" y="348"/>
      <point x="23" y="242"/>
      <point x="23" y="201" type="curve" smooth="yes"/>
      <point x="23" y="106"/>
      <point x="137" y="-33"/>
      <point x="432" y="-33" type="curve" smooth="yes"/>
      <point x="838" y="-33"/>
      <point x="1094" y="221"/>
      <point x="1094" y="471" type="curve" smooth="yes"/>
      <point x="1094" y="618"/>
      <point x="995" y="700"/>
      <point x="817" y="735" type="curve"/>
      <point x="1069" y="819"/>
      <point x="1178" y="973"/>
    </contour>
  </outline>
</glyph>
<glyph name="DigitFour" format="1">
  <advance width="1225"/>
  <unicode hex="0034"/>
  <outline>
    <contour>
      <point x="1157" y="567" type="line"/>
      <point x="971" y="567" type="line"/>
      <point x="1135" y="1407" type="line"/>
      <point x="903" y="1407" type="line"/>
      <point x="70" y="555" type="line"/>
      <point x="43" y="408" type="line"/>
      <point x="659" y="408" type="line"/>
      <point x="567" y="-55" type="line"/>
      <point x="846" y="-55" type="line"/>
      <point x="936" y="408" type="line"/>
      <point x="1126" y="408" type="line"/>
    </contour>
    <contour>
      <point x="774" y="981" type="line"/>
      <point x="692" y="567" type="line"/>
      <point x="371" y="567" type="line"/>
    </contour>
    <contour>
      <point x="480" y="-100" type="move" name="L"/>
    </contour>
    <contour>
      <point x="768" y="1500" type="move" name="U"/>
    </contour>
  </outline>
</glyph>
<glyph name="DigitSeven" format="2">
  <advance width="1225"/>
  <unicode hex="0037"/>
  <anchor x="496" y="-100" name="L"/>
  <anchor x="784" y="1500" name="U"/>
  <outline>
    <contour>
      <point x="1325" y="1374" type="line"/>
      <point x="264" y="1374" type="line"/>
      <point x="190" y="1008" type="line"/>
      <point x="356" y="1008" type="line"/>
      <point x="422" y="1190" type="line"/>
      <point x="979" y="1190" type="line"/>
      <point x="66" y="-76" type="line"/>
      <point x="360" y="-76" type="line"/>
      <point x="375" y="-18" type="line"/>
      <point x="1307" y="1276" type="line"/>
    </contour>
  </outline>
</glyph>
<glyph name="DigitEight" format="2">
  <advance width="1225"/>
  <unicode hex="0038"/>
  <anchor x="481" y="-100" name="L"/>
  <anchor x="769" y="1500" name="U"/>
  <outline>
    <contour>
      <point x="1171" y="1112" type="curve" smooth="yes"/>
      <point x="1171" y="1266"/>
      <point x="1055" y="1407"/>
      <point x="754" y="1407" type="curve" smooth="yes"/>
      <point x="391" y="1407"/>
      <point x="211" y="1190"/>
      <point x="211" y="975" type="curve" smooth="yes"/>
      <point x="211" y="897"/>
      <point x="238" y="801"/>
      <point x="373" y="725" type="curve"/>
      <point x="113" y="608"/>
      <point x="31" y="438"/>
      <point x="31" y="309" type="curve" smooth="yes"/>
      <point x="31" y="117"/>
      <point x="178" y="-33"/>
      <point x="510" y="-33" type="curve" smooth="yes"/>
      <point x="883" y="-33"/>
      <point x="1120" y="188"/>
      <point x="1120" y="432" type="curve" smooth="yes"/>
      <point x="1120" y="594"/>
      <point x="979" y="680"/>
      <point x="870" y="729" type="curve"/>
      <point x="1034" y="805"/>
      <point x="1171" y="903"/>
    </contour>
    <contour>
      <point x="891" y="1094" type="curve" smooth="yes"/>
      <point x="891" y="963"/>
      <point x="821" y="862"/>
      <point x="715" y="797" type="curve"/>
      <point x="584" y="858"/>
      <point x="502" y="922"/>
      <point x="502" y="1020" type="curve" smooth="yes"/>
      <point x="502" y="1180"/>
      <point x="637" y="1288"/>
      <point x="735" y="1288" type="curve" smooth="yes"/>
      <point x="850" y="1288"/>
      <point x="891" y="1208"/>
    </contour>
    <contour>
      <point x="815" y="377" type="curve" smooth="yes"/>
      <point x="815" y="225"/>
      <point x="668" y="98"/>
      <point x="547" y="98" type="curve" smooth="yes"/>
      <point x="385" y="98"/>
      <point x="322" y="209"/>
      <point x="322" y="344" type="curve" smooth="yes"/>
      <point x="322" y="479"/>
      <point x="403" y="578"/>
      <point x="516" y="645" type="curve"/>
      <point x="674" y="573"/>
      <point x="815" y="489"/>
    </contour>
  </outline>
</glyph>
<glyph name="QstnMrk" format="2">
  <advance width="1096"/>
  <unicode hex="003F"/>
  <outline>
    <contour>
      <point x="1051" y="1094" type="curve" smooth="yes"/>
      <point x="1051" y="1317"/>
      <point x="850" y="1407"/>
      <point x="653" y="1407" type="curve" smooth="yes"/>
      <point x="494" y="1407"/>
      <point x="219" y="1333"/>
      <point x="219" y="1133" type="curve" smooth="yes"/>
      <point x="219" y="1047"/>
      <point x="307" y="1032"/>
      <point x="375" y="1032" type="curve" smooth="yes"/>
      <point x="420" y="1032" type="line"/>
      <point x="541" y="1282" type="line"/>
      <point x="666" y="1282"/>
      <point x="764" y="1225"/>
      <point x="764" y="1087" type="curve" smooth="yes"/>
      <point x="764" y="883"/>
      <point x="584" y="717"/>
      <point x="391" y="678" type="curve"/>
      <point x="338" y="406" type="line"/>
      <point x="477" y="406" type="line"/>
      <point x="512" y="580" type="line"/>
      <point x="760" y="629"/>
      <point x="1051" y="815"/>
    </contour>
    <contour>
      <point x="532" y="133" type="curve" smooth="yes"/>
      <point x="532" y="225"/>
      <point x="463" y="305"/>
      <point x="367" y="305" type="curve" smooth="yes"/>
      <point x="276" y="305"/>
      <point x="209" y="231"/>
      <point x="209" y="141" type="curve" smooth="yes"/>
      <point x="209" y="53"/>
      <point x="274" y="-25"/>
      <point x="365" y="-25" type="curve" smooth="yes"/>
      <point x="455" y="-25"/>
      <point x="532" y="43"/>
    </contour>
  </outline>
</glyph>
<glyph name="AtSgn" format="2">
  <advance width="1917"/>
  <unicode hex="0040"/>
  <outline>
    <contour>
      <point x="1798" y="754" type="curve" smooth="yes"/>
      <point x="1798" y="1167"/>
      <point x="1513" y="1407"/>
      <point x="1069" y="1407" type="curve" smooth="yes"/>
      <point x="575" y="1407"/>
      <point x="119" y="1079"/>
      <point x="119" y="481" type="curve" smooth="yes"/>
      <point x="119" y="-6"/>
      <point x="487" y="-322"/>
      <point x="965" y="-322" type="curve" smooth="yes"/>
      <point x="1225" y="-322"/>
      <point x="1432" y="-233"/>
      <point x="1616" y="-137" type="curve"/>
      <point x="1573" y="-35" type="line"/>
      <point x="1399" y="-131"/>
      <point x="1229" y="-207"/>
      <point x="1014" y="-207" type="curve" smooth="yes"/>
      <point x="598" y="-207"/>
      <point x="326" y="98"/>
      <point x="326" y="518" type="curve" smooth="yes"/>
      <point x="326" y="977"/>
      <point x="666" y="1303"/>
      <point x="1096" y="1303" type="curve" smooth="yes"/>
      <point x="1348" y="1303"/>
      <point x="1640" y="1139"/>
      <point x="1640" y="752" type="curve" smooth="yes"/>
      <point x="1640" y="422"/>
      <point x="1438" y="233"/>
      <point x="1356" y="233" type="curve" smooth="yes"/>
      <point x="1282" y="233"/>
      <point x="1288" y="295"/>
      <point x="1309" y="385" type="curve"/>
      <point x="1309" y="385"/>
      <point x="1440" y="954"/>
      <point x="1452" y="993" type="curve"/>
      <point x="1280" y="993" type="line"/>
      <point x="1253" y="942" type="line"/>
      <point x="1200" y="967"/>
      <point x="1130" y="1004"/>
      <point x="1067" y="1004" type="curve" smooth="yes"/>
      <point x="770" y="1004"/>
      <point x="528" y="750"/>
      <point x="528" y="444" type="curve" smooth="yes"/>
      <point x="528" y="248"/>
      <point x="627" y="104"/>
      <point x="813" y="104" type="curve" smooth="yes"/>
      <point x="918" y="104"/>
      <point x="1010" y="174"/>
      <point x="1094" y="246" type="curve"/>
      <point x="1106" y="170"/>
      <point x="1145" y="102"/>
      <point x="1270" y="102" type="curve" smooth="yes"/>
      <point x="1511" y="102"/>
      <point x="1798" y="348"/>
    </contour>
    <contour>
      <point x="1167" y="795" type="curve"/>
      <point x="1085" y="375" type="line"/>
      <point x="1044" y="326"/>
      <point x="993" y="250"/>
      <point x="905" y="250" type="curve" smooth="yes"/>
      <point x="842" y="250"/>
      <point x="774" y="309"/>
      <point x="774" y="463" type="curve" smooth="yes"/>
      <point x="774" y="717"/>
      <point x="911" y="903"/>
      <point x="1075" y="903" type="curve" smooth="yes"/>
      <point x="1145" y="903"/>
      <point x="1174" y="827"/>
    </contour>
  </outline>
</glyph>
<glyph name="LtnCapA" format="2">
  <advance width="1464"/>
  <unicode hex="0041"/>
  <anchor x="600" y="0" name="H"/>
  <anchor x="591" y="-100" name="L"/>
  <anchor x="1254" y="0" name="O"/>
  <anchor x="879" y="1500" name="U"/>
  <outline>
    <contour>
      <point x="1368" y="0" type="line"/>
      <point x="1368" y="102" type="line"/>
      <point x="1335" y="105"/>
      <point x="1295" y="109"/>
      <point x="1274" y="111" type="curve" smooth="yes"/>
      <point x="1243" y="115"/>
      <point x="1237" y="119"/>
      <point x="1233" y="145" type="curve" smooth="yes"/>
      <point x="1010" y="1407" type="line"/>
      <point x="768" y="1407" type="line"/>
      <point x="10" y="115" type="line"/>
      <point x="-109" y="102" type="line"/>
      <point x="-109" y="0" type="line"/>
      <point x="418" y="0" type="line"/>
      <point x="418" y="102" type="line"/>
      <point x="381" y="105"/>
      <point x="335" y="111"/>
      <point x="311" y="113" type="curve" smooth="yes"/>
      <point x="285" y="116"/>
      <point x="272" y="123"/>
      <point x="285" y="143" type="curve" smooth="yes"/>
      <point x="487" y="518" type="line"/>
      <point x="874" y="518" type="line"/>
      <point x="934" y="143" type="line" smooth="yes"/>
      <point x="938" y="119"/>
      <point x="922" y="116"/>
      <point x="895" y="113" type="curve" smooth="yes"/>
      <point x="873" y="111"/>
      <point x="832" y="105"/>
      <point x="801" y="102" type="curve"/>
      <point x="801" y="0" type="line"/>
    </contour>
    <contour>
      <point x="852" y="635" type="line"/>
      <point x="555" y="635" type="line"/>
      <point x="784" y="1032" type="line"/>
    </contour>
  </outline>
</glyph>
<glyph name="LtnCapE" format="2">
  <advance width="1229"/>
  <unicode hex="0045"/>
  <anchor x="508" y="0" name="H"/>
  <anchor x="488" y="-100" name="L"/>
  <anchor x="920" y="0" name="O"/>
  <anchor x="1300" y="1200" name="R"/>
  <anchor x="776" y="1500" name="U"/>
  <outline>
    <contour>
      <point x="-31" y="0" type="line"/>
      <point x="1077" y="0" type="line"/>
      <point x="1149" y="356" type="line"/>
      <point x="987" y="356" type="line"/>
      <point x="922" y="152" type="line" smooth="yes"/>
      <point x="915" y="135"/>
      <point x="885" y="123"/>
      <point x="864" y="123" type="curve" smooth="yes"/>
      <point x="428" y="123" type="line"/>
      <point x="530" y="651" type="line"/>
      <point x="766" y="651" type="line" smooth="yes"/>
      <point x="784" y="651"/>
      <point x="815" y="639"/>
      <point x="811" y="623" type="curve"/>
      <point x="791" y="469" type="line"/>
      <point x="942" y="469" type="line"/>
      <point x="1036" y="950" type="line"/>
      <point x="887" y="950" type="line"/>
      <point x="844" y="807" type="line" smooth="yes"/>
      <point x="838" y="786"/>
      <point x="807" y="776"/>
      <point x="786" y="776" type="curve" smooth="yes"/>
      <point x="555" y="776" type="line"/>
      <point x="647" y="1251" type="line"/>
      <point x="999" y="1251" type="line" smooth="yes"/>
      <point x="1022" y="1251"/>
      <point x="1047" y="1245"/>
      <point x="1047" y="1225" type="curve" smooth="yes"/>
      <point x="1047" y="1051" type="line"/>
      <point x="1210" y="1051" type="line"/>
      <point x="1276" y="1374" type="line"/>
      <point x="197" y="1374" type="line"/>
      <point x="197" y="1272" type="line"/>
      <point x="313" y="1262" type="line"/>
      <point x="340" y="1260"/>
      <point x="356" y="1255"/>
      <point x="350" y="1231" type="curve"/>
      <point x="137" y="145" type="line" smooth="yes"/>
      <point x="133" y="119"/>
      <point x="123" y="115"/>
      <point x="92" y="113" type="curve"/>
      <point x="-31" y="102" type="line"/>
    </contour>
  </outline>
</glyph>
<glyph name="LtnCapG" format="2">
  <advance width="1495"/>
  <unicode hex="0047"/>
  <anchor x="710" y="0" name="H"/>
  <anchor x="690" y="-100" name="L"/>
  <anchor x="978" y="1500" name="U"/>
  <outline>
    <contour>
      <point x="723" y="-33" type="curve" smooth="yes"/>
      <point x="897" y="-33"/>
      <point x="1092" y="20"/>
      <point x="1206" y="53" type="curve"/>
      <point x="1300" y="530" type="line" smooth="yes"/>
      <point x="1305" y="549"/>
      <point x="1311" y="559"/>
      <point x="1329" y="561" type="curve" smooth="yes"/>
      <point x="1468" y="571" type="line"/>
      <point x="1468" y="676" type="line"/>
      <point x="854" y="676" type="line"/>
      <point x="854" y="571" type="line"/>
      <point x="969" y="563" type="line"/>
      <point x="1001" y="561"/>
      <point x="1012" y="555"/>
      <point x="1008" y="530" type="curve" smooth="yes"/>
      <point x="928" y="125" type="line"/>
      <point x="891" y="115"/>
      <point x="817" y="96"/>
      <point x="764" y="96" type="curve" smooth="yes"/>
      <point x="670" y="96"/>
      <point x="410" y="188"/>
      <point x="410" y="520" type="curve" smooth="yes"/>
      <point x="410" y="993"/>
      <point x="748" y="1276"/>
      <point x="999" y="1276" type="curve" smooth="yes"/>
      <point x="1063" y="1276"/>
      <point x="1137" y="1246"/>
      <point x="1163" y="1237" type="curve"/>
      <point x="1191" y="1227"/>
      <point x="1219" y="1214"/>
      <point x="1217" y="1190" type="curve" smooth="yes"/>
      <point x="1198" y="958" type="line"/>
      <point x="1372" y="958" type="line"/>
      <point x="1448" y="1331" type="line"/>
      <point x="1282" y="1382"/>
      <point x="1180" y="1407"/>
      <point x="1024" y="1407" type="curve" smooth="yes"/>
      <point x="530" y="1407"/>
      <point x="98" y="1061"/>
      <point x="98" y="551" type="curve" smooth="yes"/>
      <point x="98" y="334"/>
      <point x="201" y="-33"/>
    </contour>
  </outline>
</glyph>
<glyph name="LtnCapI" format="2">
  <advance width="729"/>
  <unicode hex="0049"/>
  <anchor x="263" y="0" name="H"/>
  <anchor x="243" y="-100" name="L"/>
  <anchor x="452" y="0" name="O"/>
  <anchor x="780" y="1200" name="R"/>
  <anchor x="531" y="1500" name="U"/>
  <outline>
    <contour>
      <point x="-31" y="0" type="line"/>
      <point x="590" y="0" type="line"/>
      <point x="590" y="102" type="line"/>
      <point x="461" y="113" type="line"/>
      <point x="434" y="115"/>
      <point x="426" y="121"/>
      <point x="430" y="143" type="curve" smooth="yes"/>
      <point x="643" y="1229" type="line" smooth="yes"/>
      <point x="647" y="1247"/>
      <point x="653" y="1260"/>
      <point x="674" y="1262" type="curve" smooth="yes"/>
      <point x="815" y="1272" type="line"/>
      <point x="815" y="1374" type="line"/>
      <point x="197" y="1374" type="line"/>
      <point x="197" y="1272" type="line"/>
      <point x="313" y="1262" type="line"/>
      <point x="340" y="1260"/>
      <point x="356" y="1255"/>
      <point x="350" y="1231" type="curve"/>
      <point x="137" y="145" type="line"/>
      <point x="133" y="117"/>
      <point x="121" y="113"/>
      <point x="90" y="111" type="curve"/>
      <point x="-31" y="102" type="line"/>
    </contour>
  </outline>
</glyph>
<glyph name="LtnCapX" format="1">
  <advance width="1382"/>
  <unicode hex="0058"/>
  <outline>
    <contour>
      <point x="1475" y="1272" type="line"/>
      <point x="1475" y="1374" type="line"/>
      <point x="926" y="1374" type="line"/>
      <point x="926" y="1272" type="line"/>
      <point x="1036" y="1262" type="line" smooth="yes"/>
      <point x="1063" y="1260"/>
      <point x="1055" y="1243"/>
      <point x="1044" y="1233" type="curve" smooth="yes"/>
      <point x="764" y="920" type="line"/>
      <point x="625" y="1233" type="line" smooth="yes"/>
      <point x="614" y="1257"/>
      <point x="635" y="1264"/>
      <point x="653" y="1264" type="curve" smooth="yes"/>
      <point x="653" y="1264"/>
      <point x="723" y="1266"/>
      <point x="788" y="1272" type="curve"/>
      <point x="788" y="1374" type="line"/>
      <point x="170" y="1374" type="line"/>
      <point x="170" y="1272" type="line"/>
      <point x="219" y="1268"/>
      <point x="272" y="1264"/>
      <point x="272" y="1264" type="curve"/>
      <point x="303" y="1262"/>
      <point x="311" y="1262"/>
      <point x="322" y="1239" type="curve" smooth="yes"/>
      <point x="567" y="696" type="line"/>
      <point x="59" y="135" type="line" smooth="yes"/>
      <point x="39" y="113"/>
      <point x="29" y="113"/>
      <point x="-6" y="111" type="curve"/>
      <point x="-6" y="111"/>
      <point x="-51" y="106"/>
      <point x="-90" y="102" type="curve"/>
      <point x="-90" y="0" type="line"/>
      <point x="473" y="0" type="line"/>
      <point x="473" y="102" type="line"/>
      <point x="344" y="111" type="line" smooth="yes"/>
      <point x="322" y="113"/>
      <point x="319" y="131"/>
      <point x="330" y="141" type="curve" smooth="yes"/>
      <point x="659" y="502" type="line"/>
      <point x="817" y="141" type="line" smooth="yes"/>
      <point x="829" y="115"/>
      <point x="805" y="113"/>
      <point x="774" y="111" type="curve"/>
      <point x="774" y="111"/>
      <point x="711" y="106"/>
      <point x="657" y="102" type="curve"/>
      <point x="657" y="0" type="line"/>
      <point x="1272" y="0" type="line"/>
      <point x="1272" y="102" type="line"/>
      <point x="1212" y="109"/>
      <point x="1157" y="111"/>
      <point x="1157" y="111" type="curve"/>
      <point x="1141" y="113"/>
      <point x="1130" y="115"/>
      <point x="1120" y="135" type="curve" smooth="yes"/>
      <point x="852" y="735" type="line"/>
      <point x="1300" y="1237" type="line" smooth="yes"/>
      <point x="1307" y="1245"/>
      <point x="1319" y="1260"/>
      <point x="1348" y="1262" type="curve" smooth="yes"/>
    </contour>
    <contour>
      <point x="562" y="-100" type="move" name="L"/>
    </contour>
    <contour>
      <point x="850" y="1500" type="move" name="U"/>
    </contour>
  </outline>
</glyph>
<glyph name="LtnCapY" format="1">
  <advance width="1395"/>
  <unicode hex="0059"/>
  <outline>
    <contour>
      <point x="1542" y="1272" type="line"/>
      <point x="1542" y="1374" type="line"/>
      <point x="963" y="1374" type="line"/>
      <point x="963" y="1272" type="line"/>
      <point x="1083" y="1264" type="line" smooth="yes"/>
      <point x="1114" y="1262"/>
      <point x="1116" y="1243"/>
      <point x="1108" y="1233" type="curve" smooth="yes"/>
      <point x="770" y="786" type="line"/>
      <point x="629" y="1231" type="line"/>
      <point x="618" y="1257"/>
      <point x="639" y="1264"/>
      <point x="662" y="1264" type="curve" smooth="yes"/>
      <point x="662" y="1264"/>
      <point x="727" y="1268"/>
      <point x="788" y="1272" type="curve"/>
      <point x="788" y="1374" type="line"/>
      <point x="172" y="1374" type="line"/>
      <point x="172" y="1272" type="line"/>
      <point x="219" y="1268"/>
      <point x="274" y="1264"/>
      <point x="274" y="1264" type="curve"/>
      <point x="299" y="1262"/>
      <point x="319" y="1262"/>
      <point x="326" y="1239" type="curve"/>
      <point x="555" y="559" type="line"/>
      <point x="471" y="145" type="line" smooth="yes"/>
      <point x="465" y="119"/>
      <point x="446" y="115"/>
      <point x="420" y="113" type="curve"/>
      <point x="420" y="113"/>
      <point x="358" y="109"/>
      <point x="303" y="102" type="curve"/>
      <point x="303" y="0" type="line"/>
      <point x="922" y="0" type="line"/>
      <point x="922" y="102" type="line"/>
      <point x="864" y="109"/>
      <point x="805" y="113"/>
      <point x="805" y="113" type="curve"/>
      <point x="776" y="115"/>
      <point x="762" y="119"/>
      <point x="768" y="143" type="curve" smooth="yes"/>
      <point x="854" y="575" type="line"/>
      <point x="1374" y="1237" type="line" smooth="yes"/>
      <point x="1380" y="1245"/>
      <point x="1397" y="1260"/>
      <point x="1411" y="1262" type="curve" smooth="yes"/>
    </contour>
    <contour>
      <point x="585" y="-100" type="move" name="L"/>
    </contour>
    <contour>
      <point x="873" y="1500" type="move" name="U"/>
    </contour>
  </outline>
</glyph>
<glyph name="LtnCapZ" format="2">
  <advance width="1237"/>
  <unicode hex="005A"/>
  <anchor x="510" y="-100" name="L"/>
  <anchor x="798" y="1500" name="U"/>
  <outline>
    <contour>
      <point x="1307" y="1374" type="line"/>
      <point x="281" y="1374" type="line"/>
      <point x="207" y="1001" type="line"/>
      <point x="379" y="1001" type="line"/>
      <point x="444" y="1219" type="line" smooth="yes"/>
      <point x="451" y="1239"/>
      <point x="481" y="1247"/>
      <point x="502" y="1247" type="curve" smooth="yes"/>
      <point x="928" y="1247" type="line"/>
      <point x="-23" y="100" type="line"/>
      <point x="-43" y="0" type="line"/>
      <point x="1057" y="0" type="line"/>
      <point x="1139" y="424" type="line"/>
      <point x="967" y="424" type="line"/>
      <point x="893" y="158" type="line" smooth="yes"/>
      <point x="887" y="139"/>
      <point x="856" y="127"/>
      <point x="836" y="127" type="curve" smooth="yes"/>
      <point x="332" y="127" type="line"/>
      <point x="1286" y="1272" type="line"/>
    </contour>
  </outline>
</glyph>
<glyph name="CircumAccent" format="1">
  <advance width="696"/>
  <unicode hex="005E"/>
  <outline>
    <component base="CombCircum" xOffset="903"/>
    <contour>
      <point x="504" y="1500" type="move" name="U"/>
    </contour>
  </outline>
</glyph>
<glyph name="LtnSmB" format="2">
  <advance width="1090"/>
  <unicode hex="0062"/>
  <anchor x="412" y="0" name="H"/>
  <anchor x="392" y="-100" name="L"/>
  <anchor x="1090" y="1000" name="R"/>
  <anchor x="708" y="1540" name="U"/>
  <outline>
    <contour>
      <point x="1026" y="637" type="curve" smooth="yes"/>
      <point x="1026" y="809"/>
      <point x="922" y="1024"/>
      <point x="702" y="1024" type="curve" smooth="yes"/>
      <point x="631" y="1024"/>
      <point x="549" y="997"/>
      <point x="475" y="958" type="curve"/>
      <point x="582" y="1509" type="line"/>
      <point x="442" y="1509" type="line"/>
      <point x="96" y="1444" type="line"/>
      <point x="96" y="1370" type="line"/>
      <point x="276" y="1354" type="line"/>
      <point x="37" y="78" type="line"/>
      <point x="135" y="14"/>
      <point x="260" y="-25"/>
      <point x="408" y="-25" type="curve" smooth="yes"/>
      <point x="877" y="-25"/>
      <point x="1026" y="393"/>
    </contour>
    <contour>
      <point x="741" y="629" type="curve" smooth="yes"/>
      <point x="741" y="375"/>
      <point x="586" y="90"/>
      <point x="451" y="90" type="curve" smooth="yes"/>
      <point x="387" y="90"/>
      <point x="348" y="127"/>
      <point x="326" y="162" type="curve"/>
      <point x="440" y="774" type="line"/>
      <point x="502" y="827"/>
      <point x="578" y="868"/>
      <point x="635" y="868" type="curve" smooth="yes"/>
      <point x="682" y="868"/>
      <point x="741" y="801"/>
    </contour>
  </outline>
</glyph>
<glyph name="LtnSmG" format="2">
  <advance width="995"/>
  <unicode hex="0067"/>
  <anchor x="333" y="-432" name="H"/>
  <anchor x="290" y="-500" name="L"/>
  <anchor x="995" y="1000" name="R"/>
  <anchor x="600" y="1100" name="U"/>
  <outline>
    <contour>
      <point x="1092" y="854" type="line"/>
      <point x="1092" y="973" type="line"/>
      <point x="793" y="973" type="line"/>
      <point x="754" y="989"/>
      <point x="664" y="1024"/>
      <point x="561" y="1024" type="curve" smooth="yes"/>
      <point x="244" y="1024"/>
      <point x="100" y="799"/>
      <point x="100" y="608" type="curve" smooth="yes"/>
      <point x="100" y="479"/>
      <point x="180" y="403"/>
      <point x="289" y="352" type="curve"/>
      <point x="236" y="297"/>
      <point x="201" y="188"/>
      <point x="211" y="125" type="curve"/>
      <point x="57" y="72"/>
      <point x="-63" y="-23"/>
      <point x="-63" y="-162" type="curve" smooth="yes"/>
      <point x="-63" y="-309"/>
      <point x="53" y="-469"/>
      <point x="377" y="-469" type="curve" smooth="yes"/>
      <point x="686" y="-469"/>
      <point x="942" y="-301"/>
      <point x="942" y="-129" type="curve" smooth="yes"/>
      <point x="942" y="-10"/>
      <point x="856" y="41"/>
      <point x="725" y="98" type="curve" smooth="yes"/>
      <point x="453" y="221" type="line"/>
      <point x="449" y="244"/>
      <point x="457" y="287"/>
      <point x="471" y="326" type="curve"/>
      <point x="768" y="328"/>
      <point x="926" y="524"/>
      <point x="926" y="727" type="curve" smooth="yes"/>
      <point x="926" y="776"/>
      <point x="915" y="823"/>
      <point x="903" y="854" type="curve"/>
    </contour>
    <contour>
      <point x="643" y="737" type="curve" smooth="yes"/>
      <point x="643" y="612"/>
      <point x="594" y="422"/>
      <point x="459" y="422" type="curve" smooth="yes"/>
      <point x="391" y="422"/>
      <point x="383" y="489"/>
      <point x="383" y="584" type="curve" smooth="yes"/>
      <point x="383" y="784"/>
      <point x="520" y="918"/>
      <point x="565" y="918" type="curve" smooth="yes"/>
      <point x="643" y="918"/>
      <point x="643" y="834"/>
    </contour>
    <contour>
      <point x="666" y="-170" type="curve" smooth="yes"/>
      <point x="666" y="-233"/>
      <point x="616" y="-354"/>
      <point x="430" y="-354" type="curve" smooth="yes"/>
      <point x="262" y="-354"/>
      <point x="215" y="-215"/>
      <point x="215" y="-127" type="curve" smooth="yes"/>
      <point x="215" y="-51"/>
      <point x="246" y="18"/>
      <point x="336" y="53" type="curve"/>
      <point x="565" y="-47" type="line" smooth="yes"/>
      <point x="641" y="-82"/>
      <point x="666" y="-123"/>
    </contour>
  </outline>
</glyph>
<glyph name="LtnSmH" format="2">
  <advance width="1157"/>
  <unicode hex="0068"/>
  <anchor x="171" y="0" name="H"/>
  <anchor x="473" y="-100" name="L"/>
  <anchor x="789" y="1540" name="U"/>
  <outline>
    <contour>
      <point x="1153" y="57" type="curve"/>
      <point x="1151" y="160" type="line"/>
      <point x="1090" y="125"/>
      <point x="1040" y="102"/>
      <point x="981" y="102" type="curve" smooth="yes"/>
      <point x="958" y="102"/>
      <point x="920" y="125"/>
      <point x="934" y="193" type="curve" smooth="yes"/>
      <point x="1049" y="735" type="line" smooth="yes"/>
      <point x="1083" y="907"/>
      <point x="1018" y="1024"/>
      <point x="813" y="1024" type="curve" smooth="yes"/>
      <point x="692" y="1024"/>
      <point x="584" y="981"/>
      <point x="502" y="930" type="curve"/>
      <point x="625" y="1509" type="line"/>
      <point x="483" y="1509" type="line"/>
      <point x="137" y="1444" type="line"/>
      <point x="137" y="1370" type="line"/>
      <point x="317" y="1354" type="line"/>
      <point x="35" y="0" type="line"/>
      <point x="307" y="0" type="line"/>
      <point x="457" y="717" type="line"/>
      <point x="541" y="803"/>
      <point x="639" y="868"/>
      <point x="700" y="868" type="curve" smooth="yes"/>
      <point x="741" y="868"/>
      <point x="791" y="813"/>
      <point x="770" y="715" type="curve" smooth="yes"/>
      <point x="647" y="119" type="line" smooth="yes"/>
      <point x="625" y="12"/>
      <point x="741" y="-25"/>
      <point x="838" y="-25" type="curve" smooth="yes"/>
      <point x="946" y="-25"/>
      <point x="1051" y="8"/>
    </contour>
  </outline>
</glyph>
<glyph name="LtnSmI" format="1">
  <advance width="635"/>
  <unicode hex="0069"/>
  <outline>
    <contour>
      <point x="604" y="1358" type="curve" smooth="yes"/>
      <point x="604" y="1446"/>
      <point x="532" y="1516"/>
      <point x="444" y="1516" type="curve" smooth="yes"/>
      <point x="356" y="1516"/>
      <point x="287" y="1446"/>
      <point x="287" y="1358" type="curve" smooth="yes"/>
      <point x="287" y="1270"/>
      <point x="356" y="1198"/>
      <point x="444" y="1198" type="curve" smooth="yes"/>
      <point x="532" y="1198"/>
      <point x="604" y="1270"/>
    </contour>
    <contour>
      <point x="631" y="66" type="curve"/>
      <point x="631" y="178" type="line"/>
      <point x="555" y="137"/>
      <point x="440" y="109"/>
      <point x="418" y="109" type="curve" smooth="yes"/>
      <point x="369" y="109"/>
      <point x="369" y="154"/>
      <point x="379" y="203" type="curve" smooth="yes"/>
      <point x="537" y="1024" type="line"/>
      <point x="393" y="1024" type="line"/>
      <point x="55" y="956" type="line"/>
      <point x="55" y="885" type="line"/>
      <point x="231" y="866" type="line"/>
      <point x="102" y="186" type="line"/>
      <point x="82" y="86"/>
      <point x="135" y="-25"/>
      <point x="285" y="-25" type="curve" smooth="yes"/>
      <point x="403" y="-25"/>
      <point x="508" y="0"/>
    </contour>
    <contour>
      <point x="239" y="0" type="move" name="H"/>
    </contour>
    <contour>
      <point x="226" y="-100" type="move" name="L"/>
    </contour>
    <contour>
      <point x="482" y="0" type="move" name="O"/>
    </contour>
    <contour>
      <point x="635" y="1000" type="move" name="R"/>
    </contour>
    <contour>
      <point x="463" y="1100" type="move" name="U"/>
    </contour>
  </outline>
</glyph>
<glyph name="LtnSmM" format="2">
  <advance width="1692"/>
  <unicode hex="006D"/>
  <anchor x="1377" y="0" name="H"/>
  <anchor x="742" y="-100" name="L"/>
  <anchor x="888" y="0" name="O"/>
  <anchor x="986" y="1100" name="U"/>
  <outline>
    <contour>
      <point x="1686" y="59" type="curve"/>
      <point x="1686" y="154" type="line"/>
      <point x="1628" y="125"/>
      <point x="1544" y="102"/>
      <point x="1516" y="102" type="curve" smooth="yes"/>
      <point x="1464" y="102"/>
      <point x="1452" y="147"/>
      <point x="1464" y="205" type="curve" smooth="yes"/>
      <point x="1581" y="756" type="line" smooth="yes"/>
      <point x="1616" y="918"/>
      <point x="1507" y="1024"/>
      <point x="1362" y="1024" type="curve" smooth="yes"/>
      <point x="1255" y="1024"/>
      <point x="1116" y="965"/>
      <point x="1010" y="885" type="curve"/>
      <point x="979" y="954"/>
      <point x="913" y="1024"/>
      <point x="801" y="1024" type="curve" smooth="yes"/>
      <point x="707" y="1024"/>
      <point x="598" y="975"/>
      <point x="500" y="907" type="curve"/>
      <point x="524" y="1024" type="line"/>
      <point x="383" y="1024" type="line"/>
      <point x="45" y="956" type="line"/>
      <point x="45" y="887" type="line"/>
      <point x="217" y="870" type="line"/>
      <point x="37" y="0" type="line"/>
      <point x="309" y="0" type="line"/>
      <point x="455" y="694" type="line"/>
      <point x="508" y="758"/>
      <point x="600" y="864"/>
      <point x="686" y="864" type="curve" smooth="yes"/>
      <point x="774" y="864"/>
      <point x="752" y="754"/>
      <point x="735" y="674" type="curve" smooth="yes"/>
      <point x="594" y="0" type="line"/>
      <point x="864" y="0" type="line"/>
      <point x="1012" y="698" type="line"/>
      <point x="1040" y="743"/>
      <point x="1130" y="864"/>
      <point x="1251" y="864" type="curve" smooth="yes"/>
      <point x="1305" y="864"/>
      <point x="1317" y="799"/>
      <point x="1290" y="672" type="curve" smooth="yes"/>
      <point x="1178" y="127" type="line" smooth="yes"/>
      <point x="1157" y="27"/>
      <point x="1260" y="-25"/>
      <point x="1384" y="-25" type="curve" smooth="yes"/>
      <point x="1489" y="-25"/>
      <point x="1583" y="6"/>
    </contour>
  </outline>
</glyph>
<glyph name="LtnSmT" format="1">
  <advance width="705"/>
  <unicode hex="0074"/>
  <outline>
    <contour>
      <point x="805" y="856" type="line"/>
      <point x="805" y="969" type="line"/>
      <point x="520" y="969" type="line"/>
      <point x="563" y="1200" type="line"/>
      <point x="358" y="1200" type="line"/>
      <point x="254" y="989" type="line"/>
      <point x="80" y="920" type="line"/>
      <point x="80" y="836" type="line"/>
      <point x="227" y="852" type="line"/>
      <point x="102" y="242" type="line" smooth="yes"/>
      <point x="96" y="213"/>
      <point x="94" y="186"/>
      <point x="94" y="160" type="curve" smooth="yes"/>
      <point x="94" y="53"/>
      <point x="170" y="-25"/>
      <point x="328" y="-25" type="curve" smooth="yes"/>
      <point x="457" y="-25"/>
      <point x="662" y="55"/>
      <point x="707" y="76" type="curve"/>
      <point x="707" y="188" type="line"/>
      <point x="641" y="166"/>
      <point x="514" y="117"/>
      <point x="451" y="117" type="curve" smooth="yes"/>
      <point x="387" y="117"/>
      <point x="356" y="160"/>
      <point x="371" y="223" type="curve"/>
      <point x="500" y="856" type="line"/>
    </contour>
    <contour>
      <point x="292" y="0" type="move" name="H"/>
    </contour>
    <contour>
      <point x="272" y="-100" type="move" name="L"/>
    </contour>
    <contour>
      <point x="705" y="1000" type="move" name="R"/>
    </contour>
    <contour>
      <point x="520" y="1363" type="move" name="U"/>
    </contour>
  </outline>
</glyph>
<glyph name="LtnSmW" format="2">
  <advance width="1538"/>
  <unicode hex="0077"/>
  <anchor x="571" y="-100" name="L"/>
  <anchor x="842" y="1100" name="U"/>
  <outline>
    <contour>
      <point x="1546" y="895" type="curve" smooth="yes"/>
      <point x="1546" y="930"/>
      <point x="1491" y="1024"/>
      <point x="1380" y="1024" type="curve" smooth="yes"/>
      <point x="1296" y="1024"/>
      <point x="1255" y="979"/>
      <point x="1243" y="963" type="curve"/>
      <point x="1321" y="745" type="line"/>
      <point x="1253" y="598"/>
      <point x="1124" y="414"/>
      <point x="1030" y="279" type="curve"/>
      <point x="981" y="999" type="line"/>
      <point x="748" y="975" type="line"/>
      <point x="662" y="778"/>
      <point x="563" y="563"/>
      <point x="469" y="381" type="curve"/>
      <point x="430" y="999" type="line"/>
      <point x="283" y="1024" type="line"/>
      <point x="8" y="950" type="line"/>
      <point x="8" y="885" type="line"/>
      <point x="164" y="868" type="line"/>
      <point x="219" y="31" type="line"/>
      <point x="197" y="-25" type="line"/>
      <point x="408" y="-25" type="line"/>
      <point x="506" y="125"/>
      <point x="635" y="350"/>
      <point x="741" y="561" type="curve"/>
      <point x="782" y="-25" type="line"/>
      <point x="985" y="-25" type="line"/>
      <point x="1036" y="37"/>
      <point x="1546" y="668"/>
    </contour>
  </outline>
</glyph>
<glyph name="RtCurlyBrac" format="2">
  <advance width="1014"/>
  <unicode hex="007D"/>
  <outline>
    <contour>
      <point x="952" y="659" type="line"/>
      <point x="952" y="659"/>
      <point x="803" y="635"/>
      <point x="739" y="715" type="curve" smooth="yes"/>
      <point x="643" y="836"/>
      <point x="870" y="1196"/>
      <point x="719" y="1362" type="curve" smooth="yes"/>
      <point x="633" y="1454"/>
      <point x="377" y="1446"/>
      <point x="330" y="1446" type="curve"/>
      <point x="307" y="1333" type="line"/>
      <point x="307" y="1333"/>
      <point x="440" y="1339"/>
      <point x="489" y="1278" type="curve" smooth="yes"/>
      <point x="588" y="1159"/>
      <point x="381" y="848"/>
      <point x="518" y="688" type="curve" smooth="yes"/>
      <point x="596" y="596"/>
      <point x="723" y="598"/>
      <point x="723" y="598" type="curve"/>
      <point x="723" y="598"/>
      <point x="596" y="598"/>
      <point x="481" y="506" type="curve" smooth="yes"/>
      <point x="283" y="346"/>
      <point x="367" y="37"/>
      <point x="221" y="-82" type="curve" smooth="yes"/>
      <point x="145" y="-143"/>
      <point x="16" y="-137"/>
      <point x="16" y="-137" type="curve"/>
      <point x="-6" y="-250" type="line"/>
      <point x="41" y="-250"/>
      <point x="295" y="-258"/>
      <point x="416" y="-166" type="curve" smooth="yes"/>
      <point x="633" y="0"/>
      <point x="549" y="356"/>
      <point x="692" y="479" type="curve" smooth="yes"/>
      <point x="788" y="559"/>
      <point x="930" y="537"/>
      <point x="930" y="537" type="curve"/>
    </contour>
  </outline>
</glyph>
<glyph name="PoundSgn" format="2">
  <advance width="1225"/>
  <unicode hex="00A3"/>
  <outline>
    <contour>
      <point x="1253" y="1239" type="curve" smooth="yes"/>
      <point x="1253" y="1356"/>
      <point x="1096" y="1407"/>
      <point x="956" y="1407" type="curve" smooth="yes"/>
      <point x="475" y="1407"/>
      <point x="356" y="887"/>
      <point x="342" y="733" type="curve"/>
      <point x="182" y="733" type="line"/>
      <point x="182" y="610" type="line"/>
      <point x="324" y="610" type="line"/>
      <point x="305" y="512"/>
      <point x="291" y="412"/>
      <point x="242" y="313" type="curve" smooth="yes"/>
      <point x="195" y="223"/>
      <point x="123" y="162"/>
      <point x="-6" y="135" type="curve"/>
      <point x="-6" y="0" type="line"/>
      <point x="1067" y="0" type="line"/>
      <point x="1067" y="182" type="line"/>
      <point x="489" y="182" type="line" smooth="yes"/>
      <point x="442" y="182"/>
      <point x="375" y="176"/>
      <point x="317" y="160" type="curve"/>
      <point x="479" y="276"/>
      <point x="575" y="434"/>
      <point x="608" y="610" type="curve"/>
      <point x="1008" y="610" type="line"/>
      <point x="1008" y="733" type="line"/>
      <point x="635" y="733" type="line"/>
      <point x="653" y="838"/>
      <point x="698" y="1255"/>
      <point x="963" y="1272" type="curve"/>
      <point x="1051" y="1067" type="line"/>
      <point x="1180" y="1085"/>
      <point x="1253" y="1135"/>
    </contour>
  </outline>
</glyph>
<glyph name="Diaer" format="1">
  <advance width="713"/>
  <unicode hex="00A8"/>
  <outline>
    <component base="CombDiaer" xOffset="913"/>
    <contour>
      <point x="514" y="1500" type="move" name="U"/>
    </contour>
  </outline>
</glyph>
<glyph name="Hyphen_Soft" format="1">
  <advance width="713"/>
  <unicode hex="00AD"/>
  <outline>
    <component base="HyphenMinus"/>
    <contour>
      <point x="475" y="1100" type="move" name="U"/>
    </contour>
  </outline>
</glyph>
<glyph name="PlusMinusSgn" format="2">
  <advance width="2048"/>
  <unicode hex="00B1"/>
  <outline>
    <contour>
      <point x="1638" y="733" type="line"/>
      <point x="1638" y="860" type="line"/>
      <point x="1087" y="860" type="line"/>
      <point x="1087" y="1229" type="line"/>
      <point x="961" y="1229" type="line"/>
      <point x="961" y="860" type="line"/>
      <point x="410" y="860" type="line"/>
      <point x="410" y="733" type="line"/>
      <point x="961" y="733" type="line"/>
      <point x="961" y="365" type="line"/>
      <point x="1087" y="365" type="line"/>
      <point x="1087" y="733" type="line"/>
    </contour>
    <contour>
      <point x="1638" y="0" type="line"/>
      <point x="1638" y="127" type="line"/>
      <point x="410" y="127" type="line"/>
      <point x="410" y="0" type="line"/>
    </contour>
  </outline>
</glyph>
<glyph name="SupThree" format="2">
  <advance width="797"/>
  <unicode hex="00B3"/>
  <anchor x="433" y="725" name="L"/>
  <anchor x="602" y="1650" name="U"/>
  <outline>
    <contour>
      <point x="887" y="1450" type="curve" smooth="yes"/>
      <point x="887" y="1559"/>
      <point x="805" y="1628"/>
      <point x="618" y="1628" type="curve" smooth="yes"/>
      <point x="428" y="1628"/>
      <point x="272" y="1559"/>
      <point x="272" y="1464" type="curve" smooth="yes"/>
      <point x="272" y="1419"/>
      <point x="324" y="1380"/>
      <point x="362" y="1380" type="curve" smooth="yes"/>
      <point x="393" y="1380"/>
      <point x="438" y="1399"/>
      <point x="457" y="1407" type="curve"/>
      <point x="477" y="1522" type="line"/>
      <point x="492" y="1532"/>
      <point x="526" y="1552"/>
      <point x="573" y="1552" type="curve" smooth="yes"/>
      <point x="592" y="1552"/>
      <point x="680" y="1532"/>
      <point x="680" y="1434" type="curve" smooth="yes"/>
      <point x="680" y="1317"/>
      <point x="561" y="1247"/>
      <point x="399" y="1255" type="curve"/>
      <point x="385" y="1159" type="line"/>
      <point x="461" y="1169"/>
      <point x="483" y="1174"/>
      <point x="508" y="1174" type="curve" smooth="yes"/>
      <point x="522" y="1174"/>
      <point x="629" y="1165"/>
      <point x="629" y="1049" type="curve" smooth="yes"/>
      <point x="629" y="924"/>
      <point x="512" y="840"/>
      <point x="418" y="840" type="curve" smooth="yes"/>
      <point x="391" y="840"/>
      <point x="350" y="856"/>
      <point x="340" y="860" type="curve"/>
      <point x="319" y="965" type="line"/>
      <point x="301" y="973"/>
      <point x="281" y="993"/>
      <point x="240" y="993" type="curve" smooth="yes"/>
      <point x="170" y="993"/>
      <point x="135" y="928"/>
      <point x="135" y="903" type="curve" smooth="yes"/>
      <point x="135" y="848"/>
      <point x="211" y="764"/>
      <point x="403" y="764" type="curve" smooth="yes"/>
      <point x="666" y="764"/>
      <point x="831" y="918"/>
      <point x="831" y="1067" type="curve" smooth="yes"/>
      <point x="831" y="1155"/>
      <point x="770" y="1204"/>
      <point x="653" y="1225" type="curve"/>
      <point x="817" y="1276"/>
      <point x="887" y="1368"/>
    </contour>
  </outline>
</glyph>
<glyph name="AcuteAccent" format="1">
  <advance width="657"/>
  <unicode hex="00B4"/>
  <outline>
    <component base="CombAcute" xOffset="921"/>
    <contour>
      <point x="522" y="1500" type="move" name="U"/>
    </contour>
  </outline>
</glyph>
<glyph name="PilcrowSgn" format="2">
  <advance width="1096"/>
  <unicode hex="00B6"/>
  <outline>
    <contour>
      <point x="1090" y="1257" type="line"/>
      <point x="1090" y="1374" type="line"/>
      <point x="610" y="1374" type="line" smooth="yes"/>
      <point x="297" y="1374"/>
      <point x="104" y="1272"/>
      <point x="104" y="961" type="curve" smooth="yes"/>
      <point x="104" y="631"/>
      <point x="334" y="553"/>
      <point x="657" y="553" type="curve"/>
      <point x="657" y="1243" type="line"/>
      <point x="813" y="1243" type="line"/>
      <point x="813" y="-162" type="line"/>
      <point x="963" y="-162" type="line"/>
      <point x="963" y="1237" type="line"/>
    </contour>
  </outline>
</glyph>
<glyph name="Cedilla" format="1">
  <advance width="504"/>
  <unicode hex="00B8"/>
  <outline>
    <component base="CombCedilla" xOffset="812"/>
    <contour>
      <point x="49" y="-500" type="move" name="L"/>
    </contour>
  </outline>
</glyph>
<glyph name="SupOne" format="2">
  <advance width="797"/>
  <unicode hex="00B9"/>
  <anchor x="443" y="725" name="L"/>
  <anchor x="612" y="1650" name="U"/>
  <outline>
    <contour>
      <point x="760" y="1628" type="line"/>
      <point x="670" y="1628" type="line"/>
      <point x="338" y="1542" type="line"/>
      <point x="338" y="1475" type="line"/>
      <point x="543" y="1499" type="line"/>
      <point x="412" y="879" type="line" smooth="yes"/>
      <point x="410" y="868"/>
      <point x="399" y="860"/>
      <point x="387" y="860" type="curve" smooth="yes"/>
      <point x="252" y="852" type="line"/>
      <point x="252" y="784" type="line"/>
      <point x="725" y="784" type="line"/>
      <point x="725" y="852" type="line"/>
      <point x="625" y="860" type="line" smooth="yes"/>
      <point x="610" y="862"/>
      <point x="596" y="868"/>
      <point x="598" y="877" type="curve" smooth="yes"/>
    </contour>
  </outline>
</glyph>
<glyph name="VulgFracOneQuarter" format="2">
  <advance width="1858"/>
  <unicode hex="00BC"/>
  <outline>
    <contour>
      <point x="1724" y="319" type="line"/>
      <point x="1577" y="319" type="line"/>
      <point x="1677" y="831" type="line"/>
      <point x="1534" y="831" type="line"/>
      <point x="995" y="324" type="line"/>
      <point x="975" y="219" type="line"/>
      <point x="1386" y="219" type="line"/>
      <point x="1335" y="-37" type="line"/>
      <point x="1505" y="-37" type="line"/>
      <point x="1556" y="219" type="line"/>
      <point x="1706" y="219" type="line"/>
    </contour>
    <contour>
      <point x="1649" y="1423" type="line"/>
      <point x="1497" y="1423" type="line"/>
      <point x="311" y="0" type="line"/>
      <point x="461" y="0" type="line"/>
    </contour>
    <contour>
      <point x="670" y="1450" type="line"/>
      <point x="580" y="1450" type="line"/>
      <point x="248" y="1366" type="line"/>
      <point x="248" y="1296" type="line"/>
      <point x="453" y="1323" type="line"/>
      <point x="322" y="700" type="line" smooth="yes"/>
      <point x="319" y="692"/>
      <point x="309" y="682"/>
      <point x="297" y="682" type="curve" smooth="yes"/>
      <point x="162" y="674" type="line"/>
      <point x="162" y="606" type="line"/>
      <point x="635" y="606" type="line"/>
      <point x="635" y="674" type="line"/>
      <point x="535" y="682" type="line" smooth="yes"/>
      <point x="520" y="684"/>
      <point x="508" y="690"/>
      <point x="510" y="698" type="curve" smooth="yes"/>
    </contour>
    <contour>
      <point x="1473" y="653" type="line"/>
      <point x="1407" y="319" type="line"/>
      <point x="1122" y="319" type="line"/>
    </contour>
  </outline>
</glyph>
<glyph name="InvQstnMrk" format="2">
  <advance width="1069"/>
  <unicode hex="00BF"/>
  <outline>
    <contour>
      <point x="413" y="-408" type="curve" smooth="yes"/>
      <point x="573" y="-408"/>
      <point x="848" y="-334"/>
      <point x="848" y="-131" type="curve" smooth="yes"/>
      <point x="848" y="-68"/>
      <point x="790" y="-33"/>
      <point x="733" y="-33" type="curve" smooth="yes"/>
      <point x="673" y="-33" type="line"/>
      <point x="528" y="-283" type="line"/>
      <point x="403" y="-283"/>
      <point x="305" y="-225"/>
      <point x="305" y="-88" type="curve" smooth="yes"/>
      <point x="305" y="117"/>
      <point x="485" y="283"/>
      <point x="675" y="322" type="curve"/>
      <point x="731" y="594" type="line"/>
      <point x="592" y="594" type="line"/>
      <point x="557" y="420" type="line"/>
      <point x="309" y="371"/>
      <point x="18" y="186"/>
      <point x="18" y="-94" type="curve" smooth="yes"/>
      <point x="18" y="-315"/>
      <point x="219" y="-408"/>
    </contour>
    <contour>
      <point x="698" y="694" type="curve" smooth="yes"/>
      <point x="786" y="694"/>
      <point x="868" y="762"/>
      <point x="868" y="852" type="curve" smooth="yes"/>
      <point x="868" y="946"/>
      <point x="796" y="1024"/>
      <point x="700" y="1024" type="curve" smooth="yes"/>
      <point x="612" y="1024"/>
      <point x="544" y="948"/>
      <point x="544" y="860" type="curve" smooth="yes"/>
      <point x="544" y="774"/>
      <point x="610" y="694"/>
    </contour>
  </outline>
</glyph>
<glyph name="LtnCapAe" format="1">
  <advance width="2003"/>
  <unicode hex="00C6"/>
  <outline>
    <contour>
      <point x="2079" y="1374" type="line"/>
      <point x="819" y="1374" type="line"/>
      <point x="819" y="1272" type="line"/>
      <point x="860" y="1268"/>
      <point x="913" y="1264"/>
      <point x="913" y="1264" type="curve"/>
      <point x="942" y="1262"/>
      <point x="956" y="1247"/>
      <point x="942" y="1231" type="curve" smooth="yes"/>
      <point x="41" y="147" type="line" smooth="yes"/>
      <point x="16" y="117"/>
      <point x="12" y="113"/>
      <point x="-12" y="111" type="curve"/>
      <point x="-12" y="111"/>
      <point x="-61" y="106"/>
      <point x="-109" y="102" type="curve"/>
      <point x="-109" y="0" type="line"/>
      <point x="444" y="0" type="line"/>
      <point x="444" y="102" type="line"/>
      <point x="328" y="113" type="line" smooth="yes"/>
      <point x="324" y="113"/>
      <point x="287" y="131"/>
      <point x="299" y="147" type="curve" smooth="yes"/>
      <point x="604" y="512" type="line"/>
      <point x="1006" y="512" type="line"/>
      <point x="932" y="145" type="line" smooth="yes"/>
      <point x="924" y="106"/>
      <point x="969" y="119"/>
      <point x="768" y="102" type="curve"/>
      <point x="768" y="0" type="line"/>
      <point x="1853" y="0" type="line"/>
      <point x="1923" y="356" type="line"/>
      <point x="1763" y="356" type="line"/>
      <point x="1698" y="152" type="line" smooth="yes"/>
      <point x="1692" y="135"/>
      <point x="1659" y="123"/>
      <point x="1640" y="123" type="curve" smooth="yes"/>
      <point x="1221" y="123" type="line"/>
      <point x="1325" y="651" type="line"/>
      <point x="1544" y="651" type="line" smooth="yes"/>
      <point x="1565" y="651"/>
      <point x="1595" y="639"/>
      <point x="1591" y="623" type="curve"/>
      <point x="1567" y="469" type="line"/>
      <point x="1716" y="469" type="line"/>
      <point x="1812" y="950" type="line"/>
      <point x="1661" y="950" type="line"/>
      <point x="1620" y="807" type="line" smooth="yes"/>
      <point x="1614" y="786"/>
      <point x="1583" y="776"/>
      <point x="1563" y="776" type="curve" smooth="yes"/>
      <point x="1350" y="776" type="line"/>
      <point x="1444" y="1251" type="line"/>
      <point x="1802" y="1251" type="line" smooth="yes"/>
      <point x="1825" y="1251"/>
      <point x="1849" y="1245"/>
      <point x="1849" y="1225" type="curve" smooth="yes"/>
      <point x="1849" y="1051" type="line"/>
      <point x="2015" y="1051" type="line"/>
    </contour>
    <contour>
      <point x="1126" y="1130" type="line"/>
      <point x="1030" y="639" type="line"/>
      <point x="709" y="639" type="line"/>
    </contour>
    <contour>
      <point x="1318" y="1500" type="move" name="U"/>
    </contour>
    <contour>
      <point x="1030" y="-100" type="move" name="L"/>
    </contour>
  </outline>
</glyph>
<glyph name="LtnCapCCedilla" format="1">
  <advance width="1376"/>
  <unicode hex="00C7"/>
  <outline>
    <component base="LtnCapC"/>
    <component base="CombCedilla" xOffset="1329"/>
    <contour>
      <point x="546" y="-600" type="move" name="L"/>
    </contour>
    <contour>
      <point x="952" y="1500" type="move" name="U"/>
    </contour>
  </outline>
</glyph>
<glyph name="LtnCapEDiaer" format="1">
  <advance width="1229"/>
  <unicode hex="00CB"/>
  <outline>
    <component base="LtnCapE"/>
    <component base="CombDiaer" xOffset="1219" yOffset="400"/>
    <contour>
      <point x="508" y="0" type="move" name="H"/>
    </contour>
    <contour>
      <point x="488" y="-100" type="move" name="L"/>
    </contour>
    <contour>
      <point x="920" y="0" type="move" name="O"/>
    </contour>
    <contour>
      <point x="1300" y="1200" type="move" name="R"/>
    </contour>
    <contour>
      <point x="820" y="1900" type="move" name="U"/>
    </contour>
  </outline>
</glyph>
<glyph name="LtnCapIDiaer" format="1">
  <advance width="729"/>
  <unicode hex="00CF"/>
  <outline>
    <component base="LtnCapI"/>
    <component base="CombDiaer" xOffset="974" yOffset="400"/>
    <contour>
      <point x="263" y="0" type="move" name="H"/>
    </contour>
    <contour>
      <point x="243" y="-100" type="move" name="L"/>
    </contour>
    <contour>
      <point x="452" y="0" type="move" name="O"/>
    </contour>
    <contour>
      <point x="780" y="1200" type="move" name="R"/>
    </contour>
    <contour>
      <point x="575" y="1900" type="move" name="U"/>
    </contour>
  </outline>
</glyph>
<glyph name="LtnCapEth" format="1">
  <advance width="1460"/>
  <unicode hex="00D0"/>
  <outline>
    <contour>
      <point x="41" y="657" type="line"/>
      <point x="800" y="657" type="line"/>
      <point x="800" y="786" type="line"/>
      <point x="41" y="786" type="line"/>
    </contour>
    <component base="LtnCapD"/>
    <contour>
      <point x="566" y="-100" type="move" name="L"/>
    </contour>
    <contour>
      <point x="854" y="1500" type="move" name="U"/>
    </contour>
  </outline>
</glyph>
<glyph name="LtnCapNTilde" format="1">
  <advance width="1542"/>
  <unicode hex="00D1"/>
  <outline>
    <component base="LtnCapN"/>
    <component base="SmTilde" xOffset="447" yOffset="400"/>
    <contour>
      <point x="1109" y="0" type="move" name="H"/>
    </contour>
    <contour>
      <point x="642" y="-100" type="move" name="L"/>
    </contour>
    <contour>
      <point x="974" y="1900" type="move" name="U"/>
    </contour>
  </outline>
</glyph>
<glyph name="LtnCapUGrave" format="1">
  <advance width="1534"/>
  <unicode hex="00D9"/>
  <outline>
    <component base="LtnCapU"/>
    <component base="CombGrave" xOffset="1388" yOffset="400"/>
    <contour>
      <point x="659" y="0" type="move" name="H"/>
    </contour>
    <contour>
      <point x="1650" y="1350" type="move" name="R"/>
    </contour>
    <contour>
      <point x="989" y="1900" type="move" name="U"/>
    </contour>
    <contour>
      <point x="657" y="-100" type="move" name="L"/>
    </contour>
    <contour>
      <point x="988" y="0" type="move" name="O"/>
    </contour>
  </outline>
</glyph>
<glyph name="LtnCapUDiaer" format="1">
  <advance width="1534"/>
  <unicode hex="00DC"/>
  <outline>
    <component base="LtnCapU"/>
    <component base="CombDiaer" xOffset="1388" yOffset="400"/>
    <contour>
      <point x="659" y="0" type="move" name="H"/>
    </contour>
    <contour>
      <point x="1650" y="1350" type="move" name="R"/>
    </contour>
    <contour>
      <point x="989" y="1900" type="move" name="U"/>
    </contour>
    <contour>
      <point x="657" y="-100" type="move" name="L"/>
    </contour>
    <contour>
      <point x="988" y="0" type="move" name="O"/>
    </contour>
  </outline>
</glyph>
<glyph name="LtnCapYAcute" format="1">
  <advance width="1395"/>
  <unicode hex="00DD"/>
  <outline>
    <component base="LtnCapY"/>
    <component base="CombAcute" xOffset="1316" yOffset="400"/>
    <contour>
      <point x="917" y="1900" type="move" name="U"/>
    </contour>
    <contour>
      <point x="585" y="-100" type="move" name="L"/>
    </contour>
  </outline>
</glyph>
<glyph name="LtnCapThorn" format="1">
  <advance width="1245"/>
  <unicode hex="00DE"/>
  <outline>
    <contour>
      <point x="1202" y="786" type="curve" smooth="yes"/>
      <point x="1202" y="971"/>
      <point x="1081" y="1120"/>
      <point x="694" y="1120" type="curve" smooth="yes"/>
      <point x="618" y="1120" type="line"/>
      <point x="639" y="1229" type="line" smooth="yes"/>
      <point x="643" y="1253"/>
      <point x="657" y="1260"/>
      <point x="680" y="1262" type="curve"/>
      <point x="680" y="1262"/>
      <point x="741" y="1266"/>
      <point x="807" y="1272" type="curve"/>
      <point x="807" y="1374" type="line"/>
      <point x="193" y="1374" type="line"/>
      <point x="193" y="1272" type="line"/>
      <point x="248" y="1266"/>
      <point x="307" y="1262"/>
      <point x="307" y="1262" type="curve"/>
      <point x="342" y="1260"/>
      <point x="352" y="1255"/>
      <point x="348" y="1231" type="curve" smooth="yes"/>
      <point x="133" y="145" type="line" smooth="yes"/>
      <point x="129" y="121"/>
      <point x="119" y="115"/>
      <point x="92" y="113" type="curve"/>
      <point x="92" y="113"/>
      <point x="29" y="109"/>
      <point x="-35" y="102" type="curve"/>
      <point x="-35" y="0" type="line"/>
      <point x="584" y="0" type="line"/>
      <point x="584" y="102" type="line"/>
      <point x="526" y="109"/>
      <point x="465" y="113"/>
      <point x="465" y="113" type="curve"/>
      <point x="440" y="115"/>
      <point x="422" y="119"/>
      <point x="426" y="143" type="curve" smooth="yes"/>
      <point x="446" y="254" type="line"/>
      <point x="477" y="254"/>
      <point x="514" y="252"/>
      <point x="537" y="252" type="curve" smooth="yes"/>
      <point x="946" y="252"/>
      <point x="1202" y="469"/>
    </contour>
    <contour>
      <point x="903" y="754" type="curve" smooth="yes"/>
      <point x="903" y="598"/>
      <point x="825" y="498"/>
      <point x="727" y="438" type="curve" smooth="yes"/>
      <point x="643" y="389"/>
      <point x="551" y="375"/>
      <point x="471" y="379" type="curve"/>
      <point x="596" y="1004" type="line"/>
      <point x="606" y="1006"/>
      <point x="649" y="1006"/>
      <point x="659" y="1006" type="curve" smooth="yes"/>
      <point x="797" y="1006"/>
      <point x="903" y="915"/>
    </contour>
    <contour>
      <point x="477" y="-100" type="move" name="L"/>
    </contour>
    <contour>
      <point x="765" y="1500" type="move" name="U"/>
    </contour>
  </outline>
</glyph>
<glyph name="LtnSmAGrave" format="1">
  <advance width="1163"/>
  <unicode hex="00E0"/>
  <outline>
    <component base="LtnSmA"/>
    <component base="CombGrave" xOffset="1192"/>
    <contour>
      <point x="538" y="0" type="move" name="H"/>
    </contour>
    <contour>
      <point x="1163" y="1000" type="move" name="R"/>
    </contour>
    <contour>
      <point x="793" y="1500" type="move" name="U"/>
    </contour>
    <contour>
      <point x="505" y="-100" type="move" name="L"/>
    </contour>
    <contour>
      <point x="1069" y="0" type="move" name="O"/>
    </contour>
  </outline>
</glyph>
<glyph name="LtnSmARingAbv" format="1">
  <advance width="1163"/>
  <unicode hex="00E5"/>
  <outline>
    <component base="LtnSmA"/>
    <component base="RingAbv" xOffset="393"/>
    <contour>
      <point x="538" y="0" type="move" name="H"/>
    </contour>
    <contour>
      <point x="505" y="-100" type="move" name="L"/>
    </contour>
    <contour>
      <point x="1069" y="0" type="move" name="O"/>
    </contour>
    <contour>
      <point x="1163" y="1000" type="move" name="R"/>
    </contour>
    <contour>
      <point x="823" y="1660" type="move" name="U"/>
    </contour>
  </outline>
</glyph>
<glyph name="LtnSmAe" format="2">
  <advance width="1608"/>
  <unicode hex="00E6"/>
  <anchor x="753" y="0" name="H"/>
  <anchor x="733" y="-100" name="L"/>
  <anchor x="1276" y="0" name="O"/>
  <anchor x="1608" y="1000" name="R"/>
  <anchor x="977" y="1100" name="U"/>
  <outline>
    <contour>
      <point x="403" y="-25" type="curve" smooth="yes"/>
      <point x="524" y="-25"/>
      <point x="639" y="23"/>
      <point x="727" y="106" type="curve"/>
      <point x="776" y="2"/>
      <point x="868" y="-25"/>
      <point x="1040" y="-25" type="curve" smooth="yes"/>
      <point x="1237" y="-25"/>
      <point x="1417" y="96"/>
      <point x="1495" y="176" type="curve"/>
      <point x="1495" y="373" type="line"/>
      <point x="1276" y="180"/>
      <point x="1206" y="115"/>
      <point x="1116" y="115" type="curve" smooth="yes"/>
      <point x="956" y="115"/>
      <point x="930" y="221"/>
      <point x="930" y="309" type="curve" smooth="yes"/>
      <point x="930" y="360"/>
      <point x="932" y="393"/>
      <point x="948" y="451" type="curve"/>
      <point x="1223" y="473"/>
      <point x="1573" y="598"/>
      <point x="1573" y="811" type="curve" smooth="yes"/>
      <point x="1573" y="872"/>
      <point x="1534" y="1024"/>
      <point x="1335" y="1024" type="curve" smooth="yes"/>
      <point x="1260" y="1024"/>
      <point x="1128" y="997"/>
      <point x="1036" y="920" type="curve"/>
      <point x="1046" y="946"/>
      <point x="1055" y="973"/>
      <point x="1065" y="999" type="curve"/>
      <point x="850" y="999" type="line"/>
      <point x="829" y="956" type="line"/>
      <point x="799" y="987"/>
      <point x="754" y="1024"/>
      <point x="698" y="1024" type="curve" smooth="yes"/>
      <point x="262" y="1024"/>
      <point x="66" y="655"/>
      <point x="66" y="350" type="curve" smooth="yes"/>
      <point x="66" y="197"/>
      <point x="154" y="-25"/>
    </contour>
    <contour>
      <point x="469" y="127" type="curve" smooth="yes"/>
      <point x="338" y="127"/>
      <point x="348" y="270"/>
      <point x="348" y="362" type="curve" smooth="yes"/>
      <point x="348" y="586"/>
      <point x="455" y="883"/>
      <point x="694" y="909" type="curve"/>
      <point x="762" y="807" type="line"/>
      <point x="657" y="248" type="line"/>
      <point x="623" y="203"/>
      <point x="543" y="127"/>
    </contour>
    <contour>
      <point x="963" y="553" type="curve"/>
      <point x="979" y="735"/>
      <point x="1133" y="903"/>
      <point x="1239" y="903" type="curve" smooth="yes"/>
      <point x="1303" y="903"/>
      <point x="1313" y="860"/>
      <point x="1313" y="811" type="curve" smooth="yes"/>
      <point x="1313" y="684"/>
      <point x="1110" y="586"/>
    </contour>
  </outline>
</glyph>
<glyph name="LtnSmCCedilla" format="1">
  <advance width="985"/>
  <unicode hex="00E7"/>
  <outline>
    <component base="LtnSmC"/>
    <component base="CombCedilla" xOffset="1123"/>
    <contour>
      <point x="985" y="1000" type="move" name="R"/>
    </contour>
    <contour>
      <point x="670" y="1100" type="move" name="U"/>
    </contour>
    <contour>
      <point x="340" y="-600" type="move" name="L"/>
    </contour>
  </outline>
</glyph>
<glyph name="LtnSmECircum" format="1">
  <advance width="983"/>
  <unicode hex="00EA"/>
  <outline>
    <component base="LtnSmE"/>
    <component base="CombCircum" xOffset="1093"/>
    <contour>
      <point x="423" y="0" type="move" name="H"/>
    </contour>
    <contour>
      <point x="983" y="1000" type="move" name="R"/>
    </contour>
    <contour>
      <point x="694" y="1500" type="move" name="U"/>
    </contour>
    <contour>
      <point x="410" y="-100" type="move" name="L"/>
    </contour>
    <contour>
      <point x="672" y="0" type="move" name="O"/>
    </contour>
  </outline>
</glyph>
<glyph name="LtnSmIAcute" format="1">
  <advance width="635"/>
  <unicode hex="00ED"/>
  <outline>
    <component base="LtnSmDotlessI"/>
    <component base="CombAcute" xOffset="868"/>
    <contour>
      <point x="239" y="0" type="move" name="H"/>
    </contour>
    <contour>
      <point x="190" y="-100" type="move" name="L"/>
    </contour>
    <contour>
      <point x="483" y="0" type="move" name="O"/>
    </contour>
    <contour>
      <point x="635" y="1000" type="move" name="R"/>
    </contour>
    <contour>
      <point x="469" y="1500" type="move" name="U"/>
    </contour>
  </outline>
</glyph>
<glyph name="LtnSmEth" format="2">
  <advance width="1120"/>
  <unicode hex="00F0"/>
  <anchor x="435" y="-100" name="L"/>
  <anchor x="751" y="1540" name="U"/>
  <outline>
    <contour>
      <point x="1079" y="1335" type="line"/>
      <point x="1024" y="1452" type="line"/>
      <point x="776" y="1356" type="line"/>
      <point x="664" y="1516" type="line"/>
      <point x="324" y="1466" type="line"/>
      <point x="315" y="1397" type="line"/>
      <point x="477" y="1356" type="line"/>
      <point x="543" y="1264" type="line"/>
      <point x="274" y="1161" type="line"/>
      <point x="326" y="1038" type="line"/>
      <point x="614" y="1153" type="line"/>
      <point x="631" y="1116"/>
      <point x="655" y="1063"/>
      <point x="676" y="1014" type="curve"/>
      <point x="662" y="1016"/>
      <point x="647" y="1018"/>
      <point x="635" y="1018" type="curve" smooth="yes"/>
      <point x="272" y="1018"/>
      <point x="66" y="696"/>
      <point x="66" y="373" type="curve" smooth="yes"/>
      <point x="66" y="139"/>
      <point x="205" y="-25"/>
      <point x="473" y="-25" type="curve" smooth="yes"/>
      <point x="920" y="-25"/>
      <point x="1042" y="373"/>
      <point x="1042" y="604" type="curve" smooth="yes"/>
      <point x="1042" y="817"/>
      <point x="944" y="1075"/>
      <point x="850" y="1243" type="curve"/>
    </contour>
    <contour>
      <point x="758" y="598" type="curve" smooth="yes"/>
      <point x="758" y="348"/>
      <point x="641" y="88"/>
      <point x="498" y="88" type="curve" smooth="yes"/>
      <point x="461" y="88"/>
      <point x="356" y="160"/>
      <point x="356" y="381" type="curve" smooth="yes"/>
      <point x="356" y="621"/>
      <point x="467" y="911"/>
      <point x="657" y="911" type="curve" smooth="yes"/>
      <point x="688" y="911"/>
      <point x="702" y="899"/>
      <point x="717" y="887" type="curve"/>
      <point x="743" y="805"/>
      <point x="758" y="725"/>
    </contour>
  </outline>
</glyph>
<glyph name="LtnSmOAcute" format="1">
  <advance width="1133"/>
  <unicode hex="00F3"/>
  <outline>
    <component base="LtnSmO"/>
    <component base="CombAcute" xOffset="1133"/>
    <contour>
      <point x="466" y="0" type="move" name="H"/>
    </contour>
    <contour>
      <point x="1133" y="1000" type="move" name="R"/>
    </contour>
    <contour>
      <point x="734" y="1500" type="move" name="U"/>
    </contour>
    <contour>
      <point x="446" y="-100" type="move" name="L"/>
    </contour>
    <contour>
      <point x="693" y="0" type="move" name="O"/>
    </contour>
  </outline>
</glyph>
<glyph name="LtnSmUCircum" format="1">
  <advance width="1176"/>
  <unicode hex="00FB"/>
  <outline>
    <component base="LtnSmU"/>
    <component base="CombCircum" xOffset="1178"/>
    <contour>
      <point x="530" y="0" type="move" name="H"/>
    </contour>
    <contour>
      <point x="491" y="-100" type="move" name="L"/>
    </contour>
    <contour>
      <point x="1025" y="0" type="move" name="O"/>
    </contour>
    <contour>
      <point x="1176" y="1000" type="move" name="R"/>
    </contour>
    <contour>
      <point x="779" y="1500" type="move" name="U"/>
    </contour>
  </outline>
</glyph>
<glyph name="LtnSmYAcute" format="1">
  <advance width="1112"/>
  <unicode hex="00FD"/>
  <outline>
    <component base="LtnSmY"/>
    <component base="CombAcute" xOffset="1109"/>
    <contour>
      <point x="1112" y="1000" type="move" name="R"/>
    </contour>
    <contour>
      <point x="710" y="1500" type="move" name="U"/>
    </contour>
    <contour>
      <point x="304" y="-500" type="move" name="L"/>
    </contour>
  </outline>
</glyph>
<glyph name="LtnSmYDiaer" format="1">
  <advance width="1112"/>
  <unicode hex="00FF"/>
  <outline>
    <component base="LtnSmY"/>
    <component base="CombDiaer" xOffset="1109"/>
    <contour>
      <point x="304" y="-500" type="move" name="L"/>
    </contour>
    <contour>
      <point x="1112" y="1000" type="move" name="R"/>
    </contour>
    <contour>
      <point x="710" y="1500" type="move" name="U"/>
    </contour>
  </outline>
</glyph>
<glyph name="LtnCapAMacron" format="1">
  <advance width="1464"/>
  <unicode hex="0100"/>
  <outline>
    <component base="LtnCapA"/>
    <component base="CombMacron" xOffset="1322" yOffset="400"/>
    <contour>
      <point x="600" y="0" type="move" name="H"/>
    </contour>
    <contour>
      <point x="938" y="1870" type="move" name="U"/>
    </contour>
    <contour>
      <point x="591" y="-100" type="move" name="L"/>
    </contour>
    <contour>
      <point x="1254" y="0" type="move" name="O"/>
    </contour>
  </outline>
</glyph>
<glyph name="LtnSmAMacron" format="1">
  <advance width="1163"/>
  <unicode hex="0101"/>
  <outline>
    <component base="LtnSmA"/>
    <component base="CombMacron" xOffset="1192"/>
    <contour>
      <point x="538" y="0" type="move" name="H"/>
    </contour>
    <contour>
      <point x="505" y="-100" type="move" name="L"/>
    </contour>
    <contour>
      <point x="1069" y="0" type="move" name="O"/>
    </contour>
    <contour>
      <point x="1163" y="1000" type="move" name="R"/>
    </contour>
    <contour>
      <point x="808" y="1470" type="move" name="U"/>
    </contour>
  </outline>
</glyph>
<glyph name="LtnCapAOgonek" format="1">
  <advance width="1464"/>
  <unicode hex="0104"/>
  <outline>
    <component base="LtnCapA"/>
    <component base="CombOgonek" xOffset="1694"/>
    <contour>
      <point x="600" y="0" type="move" name="H"/>
    </contour>
    <contour>
      <point x="1113" y="-500" type="move" name="L"/>
    </contour>
    <contour>
      <point x="879" y="1500" type="move" name="U"/>
    </contour>
  </outline>
</glyph>
<glyph name="LtnSmAOgonek" format="1">
  <advance width="1163"/>
  <unicode hex="0105"/>
  <outline>
    <component base="LtnSmA"/>
    <component base="CombOgonek" xOffset="1509"/>
    <contour>
      <point x="538" y="0" type="move" name="H"/>
    </contour>
    <contour>
      <point x="928" y="-500" type="move" name="L"/>
    </contour>
    <contour>
      <point x="1163" y="1000" type="move" name="R"/>
    </contour>
    <contour>
      <point x="749" y="1100" type="move" name="U"/>
    </contour>
  </outline>
</glyph>
<glyph name="LtnCapCAcute" format="1">
  <advance width="1376"/>
  <unicode hex="0106"/>
  <outline>
    <component base="LtnCapC"/>
    <component base="CombAcute" xOffset="1395" yOffset="400"/>
    <contour>
      <point x="662" y="0" type="move" name="H"/>
    </contour>
    <contour>
      <point x="664" y="-100" type="move" name="L"/>
    </contour>
    <contour>
      <point x="996" y="1900" type="move" name="U"/>
    </contour>
  </outline>
</glyph>
<glyph name="LtnSmCAcute" format="1">
  <advance width="985"/>
  <unicode hex="0107"/>
  <outline>
    <component base="LtnSmC"/>
    <component base="CombAcute" xOffset="1113"/>
    <contour>
      <point x="456" y="0" type="move" name="H"/>
    </contour>
    <contour>
      <point x="415" y="-100" type="move" name="L"/>
    </contour>
    <contour>
      <point x="985" y="1000" type="move" name="R"/>
    </contour>
    <contour>
      <point x="714" y="1500" type="move" name="U"/>
    </contour>
  </outline>
</glyph>
<glyph name="LtnCapCCircum" format="1">
  <advance width="1376"/>
  <unicode hex="0108"/>
  <outline>
    <component base="LtnCapC"/>
    <component base="CombCircum" xOffset="1395" yOffset="400"/>
    <contour>
      <point x="662" y="0" type="move" name="H"/>
    </contour>
    <contour>
      <point x="664" y="-100" type="move" name="L"/>
    </contour>
    <contour>
      <point x="996" y="1900" type="move" name="U"/>
    </contour>
  </outline>
</glyph>
<glyph name="LtnSmCDotAbv" format="1">
  <advance width="985"/>
  <unicode hex="010B"/>
  <outline>
    <component base="LtnSmC"/>
    <component base="DotAbv" xOffset="397"/>
    <contour>
      <point x="456" y="0" type="move" name="H"/>
    </contour>
    <contour>
      <point x="415" y="-100" type="move" name="L"/>
    </contour>
    <contour>
      <point x="985" y="1000" type="move" name="R"/>
    </contour>
    <contour>
      <point x="714" y="1500" type="move" name="U"/>
    </contour>
  </outline>
</glyph>
<glyph name="LtnSmCCaron" format="1">
  <advance width="985"/>
  <unicode hex="010D"/>
  <outline>
    <component base="LtnSmC"/>
    <component base="CombCaron" xOffset="1113"/>
    <contour>
      <point x="456" y="0" type="move" name="H"/>
    </contour>
    <contour>
      <point x="415" y="-100" type="move" name="L"/>
    </contour>
    <contour>
      <point x="985" y="1000" type="move" name="R"/>
    </contour>
    <contour>
      <point x="714" y="1500" type="move" name="U"/>
    </contour>
  </outline>
</glyph>
<glyph name="LtnCapDCaron" format="1">
  <advance width="1460"/>
  <unicode hex="010E"/>
  <outline>
    <component base="LtnCapD"/>
    <component base="CombCaron" xOffset="1300" yOffset="400"/>
    <contour>
      <point x="901" y="1900" type="move" name="U"/>
    </contour>
    <contour>
      <point x="569" y="-100" type="move" name="L"/>
    </contour>
  </outline>
</glyph>
<glyph name="LtnCapEMacron" format="1">
  <advance width="1229"/>
  <unicode hex="0112"/>
  <outline>
    <component base="LtnCapE"/>
    <component base="CombMacron" xOffset="1219" yOffset="400"/>
    <contour>
      <point x="508" y="0" type="move" name="H"/>
    </contour>
    <contour>
      <point x="1300" y="1200" type="move" name="R"/>
    </contour>
    <contour>
      <point x="835" y="1870" type="move" name="U"/>
    </contour>
    <contour>
      <point x="488" y="-100" type="move" name="L"/>
    </contour>
    <contour>
      <point x="920" y="0" type="move" name="O"/>
    </contour>
  </outline>
</glyph>
<glyph name="LtnCapEBreve" format="1">
  <advance width="1229"/>
  <unicode hex="0114"/>
  <outline>
    <component base="LtnCapE"/>
    <component base="CombBreve" xOffset="1219" yOffset="400"/>
    <contour>
      <point x="508" y="0" type="move" name="H"/>
    </contour>
    <contour>
      <point x="1300" y="1200" type="move" name="R"/>
    </contour>
    <contour>
      <point x="820" y="1900" type="move" name="U"/>
    </contour>
    <contour>
      <point x="488" y="-100" type="move" name="L"/>
    </contour>
    <contour>
      <point x="920" y="0" type="move" name="O"/>
    </contour>
  </outline>
</glyph>
<glyph name="LtnSmEDotAbv" format="1">
  <advance width="983"/>
  <unicode hex="0117"/>
  <outline>
    <component base="LtnSmE"/>
    <component base="DotAbv" xOffset="377"/>
    <contour>
      <point x="423" y="0" type="move" name="H"/>
    </contour>
    <contour>
      <point x="983" y="1000" type="move" name="R"/>
    </contour>
    <contour>
      <point x="694" y="1500" type="move" name="U"/>
    </contour>
    <contour>
      <point x="410" y="-100" type="move" name="L"/>
    </contour>
    <contour>
      <point x="672" y="0" type="move" name="O"/>
    </contour>
  </outline>
</glyph>
<glyph name="LtnCapEOgonek" format="1">
  <advance width="1229"/>
  <unicode hex="0118"/>
  <outline>
    <component base="LtnCapE"/>
    <component base="CombOgonek" xOffset="1360"/>
    <contour>
      <point x="508" y="0" type="move" name="H"/>
    </contour>
    <contour>
      <point x="779" y="-500" type="move" name="L"/>
    </contour>
    <contour>
      <point x="1300" y="1200" type="move" name="R"/>
    </contour>
    <contour>
      <point x="776" y="1500" type="move" name="U"/>
    </contour>
  </outline>
</glyph>
<glyph name="LtnSmECaron" format="1">
  <advance width="983"/>
  <unicode hex="011B"/>
  <outline>
    <component base="LtnSmE"/>
    <component base="CombCaron" xOffset="1093"/>
    <contour>
      <point x="423" y="0" type="move" name="H"/>
    </contour>
    <contour>
      <point x="410" y="-100" type="move" name="L"/>
    </contour>
    <contour>
      <point x="672" y="0" type="move" name="O"/>
    </contour>
    <contour>
      <point x="983" y="1000" type="move" name="R"/>
    </contour>
    <contour>
      <point x="694" y="1500" type="move" name="U"/>
    </contour>
  </outline>
</glyph>
<glyph name="LtnCapGCircum" format="1">
  <advance width="1495"/>
  <unicode hex="011C"/>
  <outline>
    <component base="LtnCapG"/>
    <component base="CombCircum" xOffset="1421" yOffset="400"/>
    <contour>
      <point x="710" y="0" type="move" name="H"/>
    </contour>
    <contour>
      <point x="690" y="-100" type="move" name="L"/>
    </contour>
    <contour>
      <point x="1022" y="1900" type="move" name="U"/>
    </contour>
  </outline>
</glyph>
<glyph name="LtnSmGCircum" format="1">
  <advance width="995"/>
  <unicode hex="011D"/>
  <outline>
    <component base="LtnSmG"/>
    <component base="CombCircum" xOffset="1043"/>
    <contour>
      <point x="333" y="-432" type="move" name="H"/>
    </contour>
    <contour>
      <point x="995" y="1000" type="move" name="R"/>
    </contour>
    <contour>
      <point x="644" y="1500" type="move" name="U"/>
    </contour>
    <contour>
      <point x="290" y="-500" type="move" name="L"/>
    </contour>
  </outline>
</glyph>
<glyph name="LtnSmGBreve" format="1">
  <advance width="995"/>
  <unicode hex="011F"/>
  <outline>
    <component base="LtnSmG"/>
    <component base="CombBreve" xOffset="1043"/>
    <contour>
      <point x="333" y="-432" type="move" name="H"/>
    </contour>
    <contour>
      <point x="290" y="-500" type="move" name="L"/>
    </contour>
    <contour>
      <point x="995" y="1000" type="move" name="R"/>
    </contour>
    <contour>
      <point x="644" y="1500" type="move" name="U"/>
    </contour>
  </outline>
</glyph>
<glyph name="LtnCapGDotAbv" format="1">
  <advance width="1495"/>
  <unicode hex="0120"/>
  <outline>
    <component base="LtnCapG"/>
    <component base="DotAbv" xOffset="705" yOffset="400"/>
    <contour>
      <point x="710" y="0" type="move" name="H"/>
    </contour>
    <contour>
      <point x="1022" y="1900" type="move" name="U"/>
    </contour>
    <contour>
      <point x="690" y="-100" type="move" name="L"/>
    </contour>
  </outline>
</glyph>
<glyph name="LtnCapGCedilla" format="1">
  <advance width="1495"/>
  <unicode hex="0122"/>
  <outline>
    <component base="LtnCapG"/>
    <component base="CombCommaBlw" xOffset="1377"/>
    <contour>
      <point x="710" y="0" type="move" name="H"/>
    </contour>
    <contour>
      <point x="614" y="-500" type="move" name="L"/>
    </contour>
    <contour>
      <point x="978" y="1500" type="move" name="U"/>
    </contour>
  </outline>
</glyph>
<glyph name="LtnCapHCircum" format="1">
  <advance width="1571"/>
  <unicode hex="0124"/>
  <outline>
    <component base="LtnCapH"/>
    <component base="CombCircum" xOffset="1394" yOffset="400"/>
    <contour>
      <point x="251" y="0" type="move" name="H"/>
    </contour>
    <contour>
      <point x="995" y="1900" type="move" name="U"/>
    </contour>
    <contour>
      <point x="663" y="-100" type="move" name="L"/>
    </contour>
  </outline>
</glyph>
<glyph name="LtnSmIMacron" format="1">
  <advance width="1131"/>
  <unicode hex="012B"/>
  <outline>
    <component base="LtnSmDotlessI"/>
    <component base="CombMacron.Short" xOffset="62"/>
    <contour>
      <point x="239" y="0" type="move" name="H"/>
    </contour>
    <contour>
      <point x="190" y="-100" type="move" name="L"/>
    </contour>
    <contour>
      <point x="483" y="0" type="move" name="O"/>
    </contour>
    <contour>
      <point x="635" y="1000" type="move" name="R"/>
    </contour>
    <contour>
      <point x="484" y="1470" type="move" name="U"/>
    </contour>
  </outline>
</glyph>
<glyph name="LtnSmIBreve" format="1">
  <advance width="635"/>
  <unicode hex="012D"/>
  <outline>
    <component base="LtnSmDotlessI"/>
    <component base="CombBreve" xOffset="868"/>
    <contour>
      <point x="239" y="0" type="move" name="H"/>
    </contour>
    <contour>
      <point x="635" y="1000" type="move" name="R"/>
    </contour>
    <contour>
      <point x="469" y="1500" type="move" name="U"/>
    </contour>
    <contour>
      <point x="190" y="-100" type="move" name="L"/>
    </contour>
    <contour>
      <point x="483" y="0" type="move" name="O"/>
    </contour>
  </outline>
</glyph>
<glyph name="LtnCapIOgonek" format="1">
  <advance width="729"/>
  <unicode hex="012E"/>
  <outline>
    <component base="LtnCapI"/>
    <component base="CombOgonek" xOffset="892"/>
    <contour>
      <point x="263" y="0" type="move" name="H"/>
    </contour>
    <contour>
      <point x="780" y="1200" type="move" name="R"/>
    </contour>
    <contour>
      <point x="531" y="1500" type="move" name="U"/>
    </contour>
    <contour>
      <point x="311" y="-500" type="move" name="L"/>
    </contour>
  </outline>
</glyph>
<glyph name="LtnSmDotlessI" format="1">
  <advance width="635"/>
  <unicode hex="0131"/>
  <outline>
    <contour>
      <point x="631" y="66" type="curve"/>
      <point x="631" y="178" type="line"/>
      <point x="555" y="137"/>
      <point x="440" y="109"/>
      <point x="418" y="109" type="curve" smooth="yes"/>
      <point x="369" y="109"/>
      <point x="369" y="154"/>
      <point x="379" y="203" type="curve" smooth="yes"/>
      <point x="537" y="1024" type="line"/>
      <point x="393" y="1024" type="line"/>
      <point x="55" y="956" type="line"/>
      <point x="55" y="885" type="line"/>
      <point x="231" y="866" type="line"/>
      <point x="102" y="186" type="line"/>
      <point x="82" y="86"/>
      <point x="135" y="-25"/>
      <point x="285" y="-25" type="curve" smooth="yes"/>
      <point x="403" y="-25"/>
      <point x="508" y="0"/>
    </contour>
    <contour>
      <point x="425" y="1100" type="move" name="U"/>
    </contour>
    <contour>
      <point x="190" y="-100" type="move" name="L"/>
    </contour>
    <contour>
      <point x="635" y="1000" type="move" name="R"/>
    </contour>
    <contour>
      <point x="483" y="0" type="move" name="O"/>
    </contour>
    <contour>
      <point x="239" y="0" type="move" name="H"/>
    </contour>
  </outline>
</glyph>
<glyph name="LtnCapLigIj" format="1">
  <advance width="1773"/>
  <unicode hex="0132"/>
  <outline>
    <component base="LtnCapI"/>
    <component base="LtnCapJ" xOffset="729"/>
    <contour>
      <point x="1036" y="-100" type="move" name="L"/>
    </contour>
    <contour>
      <point x="1100" y="1500" type="move" name="U"/>
    </contour>
    <contour>
      <point x="452" y="0" type="move" name="O"/>
    </contour>
    <contour>
      <point x="263" y="0" type="move" name="H"/>
    </contour>
  </outline>
</glyph>
<glyph name="LtnSmLigIj" format="1">
  <advance width="1286"/>
  <unicode hex="0133"/>
  <outline>
    <component base="LtnSmI"/>
    <component base="LtnSmJ" xOffset="635"/>
    <contour>
      <point x="239" y="0" type="move" name="H"/>
    </contour>
    <contour>
      <point x="634" y="-500" type="move" name="L"/>
    </contour>
    <contour>
      <point x="482" y="0" type="move" name="O"/>
    </contour>
    <contour>
      <point x="795" y="1500" type="move" name="U"/>
    </contour>
  </outline>
</glyph>
<glyph name="LtnCapJCircum" format="1">
  <advance width="1044"/>
  <unicode hex="0134"/>
  <outline>
    <component base="LtnCapJ"/>
    <component base="CombCircum" xOffset="1315" yOffset="400"/>
    <contour>
      <point x="916" y="1900" type="move" name="U"/>
    </contour>
    <contour>
      <point x="307" y="-100" type="move" name="L"/>
    </contour>
  </outline>
</glyph>
<glyph name="LtnSmKCedilla" format="1">
  <advance width="1126"/>
  <unicode hex="0137"/>
  <outline>
    <component base="LtnSmK"/>
    <component base="CombCommaBlw" xOffset="1126"/>
    <contour>
      <point x="154" y="0" type="move" name="H"/>
    </contour>
    <contour>
      <point x="363" y="-500" type="move" name="L"/>
    </contour>
    <contour>
      <point x="1126" y="1000" type="move" name="R"/>
    </contour>
    <contour>
      <point x="755" y="1540" type="move" name="U"/>
    </contour>
  </outline>
</glyph>
<glyph name="LtnCapLAcute" format="1">
  <advance width="1147"/>
  <unicode hex="0139"/>
  <outline>
    <component base="LtnCapL"/>
    <component base="CombAcute" xOffset="1180" yOffset="400"/>
    <contour>
      <point x="469" y="0" type="move" name="H"/>
    </contour>
    <contour>
      <point x="449" y="-100" type="move" name="L"/>
    </contour>
    <contour>
      <point x="647" y="1000" type="move" name="R"/>
    </contour>
    <contour>
      <point x="781" y="1900" type="move" name="U"/>
    </contour>
  </outline>
</glyph>
<glyph name="LtnSmLAcute" format="1">
  <advance width="627"/>
  <unicode hex="013A"/>
  <outline>
    <component base="LtnSmL"/>
    <component base="CombAcute" xOffset="971" yOffset="480"/>
    <contour>
      <point x="224" y="0" type="move" name="H"/>
    </contour>
    <contour>
      <point x="204" y="-100" type="move" name="L"/>
    </contour>
    <contour>
      <point x="527" y="1000" type="move" name="R"/>
    </contour>
    <contour>
      <point x="572" y="1980" type="move" name="U"/>
    </contour>
  </outline>
</glyph>
<glyph name="LtnCapLCedilla" format="1">
  <advance width="1147"/>
  <unicode hex="013B"/>
  <outline>
    <component base="LtnCapL"/>
    <component base="CombCommaBlw" xOffset="1136"/>
    <contour>
      <point x="469" y="0" type="move" name="H"/>
    </contour>
    <contour>
      <point x="647" y="1000" type="move" name="R"/>
    </contour>
    <contour>
      <point x="737" y="1500" type="move" name="U"/>
    </contour>
    <contour>
      <point x="373" y="-500" type="move" name="L"/>
    </contour>
  </outline>
</glyph>
<glyph name="LtnSmLCedilla" format="1">
  <advance width="627"/>
  <unicode hex="013C"/>
  <outline>
    <component base="LtnSmL"/>
    <component base="CombCommaBlw" xOffset="891"/>
    <contour>
      <point x="224" y="0" type="move" name="H"/>
    </contour>
    <contour>
      <point x="128" y="-500" type="move" name="L"/>
    </contour>
    <contour>
      <point x="527" y="1000" type="move" name="R"/>
    </contour>
    <contour>
      <point x="528" y="1580" type="move" name="U"/>
    </contour>
  </outline>
</glyph>
<glyph name="LtnCapLCaron" format="2">
  <advance width="1147"/>
  <unicode hex="013D"/>
  <anchor x="469" y="0" name="H"/>
  <anchor x="449" y="-100" name="L"/>
  <anchor x="737" y="1500" name="U"/>
  <outline>
    <contour>
      <point x="-31" y="0" type="line"/>
      <point x="999" y="0" type="line"/>
      <point x="1081" y="414" type="line"/>
      <point x="928" y="414" type="line"/>
      <point x="844" y="152" type="line" smooth="yes"/>
      <point x="838" y="135"/>
      <point x="807" y="123"/>
      <point x="786" y="123" type="curve" smooth="yes"/>
      <point x="426" y="123" type="line"/>
      <point x="643" y="1229" type="line"/>
      <point x="649" y="1253"/>
      <point x="664" y="1260"/>
      <point x="682" y="1262" type="curve"/>
      <point x="815" y="1272" type="line"/>
      <point x="815" y="1374" type="line"/>
      <point x="197" y="1374" type="line"/>
      <point x="197" y="1272" type="line"/>
      <point x="317" y="1262" type="line"/>
      <point x="340" y="1260"/>
      <point x="356" y="1253"/>
      <point x="350" y="1231" type="curve"/>
      <point x="137" y="145" type="line" smooth="yes"/>
      <point x="133" y="119"/>
      <point x="125" y="115"/>
      <point x="86" y="111" type="curve"/>
      <point x="-31" y="102" type="line"/>
    </contour>
    <contour>
      <point x="888" y="1038" type="line"/>
      <point x="1034" y="1065"/>
      <point x="1236" y="1172"/>
      <point x="1236" y="1344" type="curve" smooth="yes"/>
      <point x="1236" y="1430"/>
      <point x="1173" y="1481"/>
      <point x="1089" y="1481" type="curve" smooth="yes"/>
      <point x="1009" y="1481"/>
      <point x="925" y="1430"/>
      <point x="925" y="1340" type="curve" smooth="yes"/>
      <point x="925" y="1315"/>
      <point x="933" y="1290"/>
      <point x="952" y="1272" type="curve"/>
      <point x="1081" y="1272" type="line"/>
      <point x="1064" y="1196"/>
      <point x="972" y="1139"/>
      <point x="905" y="1120" type="curve"/>
    </contour>
  </outline>
</glyph>
<glyph name="LtnCapLMiddleDot" format="1">
  <advance width="1420"/>
  <unicode hex="013F"/>
  <outline>
    <component base="LtnCapL"/>
    <component base="MiddleDot" xOffset="1097"/>
    <contour>
      <point x="451" y="0" type="move" name="H"/>
    </contour>
    <contour>
      <point x="431" y="-100" type="move" name="L"/>
    </contour>
    <contour>
      <point x="719" y="1500" type="move" name="U"/>
    </contour>
  </outline>
</glyph>
<glyph name="LtnSmLMiddleDot" format="1">
  <advance width="900"/>
  <unicode hex="0140"/>
  <outline>
    <component base="LtnSmL"/>
    <component base="MiddleDot" xOffset="577"/>
    <contour>
      <point x="116" y="-100" type="move" name="L"/>
    </contour>
    <contour>
      <point x="137" y="0" type="move" name="H"/>
    </contour>
    <contour>
      <point x="440" y="1580" type="move" name="U"/>
    </contour>
  </outline>
</glyph>
<glyph name="LtnCapNAcute" format="1">
  <advance width="1542"/>
  <unicode hex="0143"/>
  <outline>
    <component base="LtnCapN"/>
    <component base="CombAcute" xOffset="1373" yOffset="400"/>
    <contour>
      <point x="1109" y="0" type="move" name="H"/>
    </contour>
    <contour>
      <point x="974" y="1900" type="move" name="U"/>
    </contour>
    <contour>
      <point x="642" y="-100" type="move" name="L"/>
    </contour>
  </outline>
</glyph>
<glyph name="LtnSmNAcute" format="1">
  <advance width="1184"/>
  <unicode hex="0144"/>
  <outline>
    <component base="LtnSmN"/>
    <component base="CombAcute" xOffset="1143"/>
    <contour>
      <point x="867" y="0" type="move" name="H"/>
    </contour>
    <contour>
      <point x="455" y="-100" type="move" name="L"/>
    </contour>
    <contour>
      <point x="744" y="1500" type="move" name="U"/>
    </contour>
  </outline>
</glyph>
<glyph name="LtnCapNCedilla" format="1">
  <advance width="1542"/>
  <unicode hex="0145"/>
  <outline>
    <component base="LtnCapN"/>
    <component base="CombCommaBlw" xOffset="1329"/>
    <contour>
      <point x="1109" y="0" type="move" name="H"/>
    </contour>
    <contour>
      <point x="566" y="-500" type="move" name="L"/>
    </contour>
    <contour>
      <point x="930" y="1500" type="move" name="U"/>
    </contour>
  </outline>
</glyph>
<glyph name="LtnCapNCaron" format="1">
  <advance width="1542"/>
  <unicode hex="0147"/>
  <outline>
    <component base="LtnCapN"/>
    <component base="CombCaron" xOffset="1373" yOffset="400"/>
    <contour>
      <point x="1109" y="0" type="move" name="H"/>
    </contour>
    <contour>
      <point x="974" y="1900" type="move" name="U"/>
    </contour>
    <contour>
      <point x="642" y="-100" type="move" name="L"/>
    </contour>
  </outline>
</glyph>
<glyph name="LtnSmNCaron" format="1">
  <advance width="1184"/>
  <unicode hex="0148"/>
  <outline>
    <component base="LtnSmN"/>
    <component base="CombCaron" xOffset="1143"/>
    <contour>
      <point x="867" y="0" type="move" name="H"/>
    </contour>
    <contour>
      <point x="455" y="-100" type="move" name="L"/>
    </contour>
    <contour>
      <point x="744" y="1500" type="move" name="U"/>
    </contour>
  </outline>
</glyph>
<glyph name="LtnSmEng" format="1">
  <advance width="1151"/>
  <unicode hex="014B"/>
  <outline>
    <contour>
      <point x="1069" y="842" type="curve" smooth="yes"/>
      <point x="1069" y="961"/>
      <point x="1006" y="1024"/>
      <point x="838" y="1024" type="curve" smooth="yes"/>
      <point x="733" y="1024"/>
      <point x="610" y="973"/>
      <point x="508" y="905" type="curve"/>
      <point x="532" y="1024" type="line"/>
      <point x="393" y="1024" type="line"/>
      <point x="55" y="956" type="line"/>
      <point x="55" y="887" type="line"/>
      <point x="227" y="870" type="line"/>
      <point x="47" y="0" type="line"/>
      <point x="322" y="0" type="line"/>
      <point x="467" y="694" type="line"/>
      <point x="551" y="782"/>
      <point x="659" y="862"/>
      <point x="725" y="862" type="curve" smooth="yes"/>
      <point x="768" y="862"/>
      <point x="795" y="829"/>
      <point x="774" y="729" type="curve" smooth="yes"/>
      <point x="625" y="-8" type="line" smooth="yes"/>
      <point x="590" y="-184"/>
      <point x="559" y="-276"/>
      <point x="496" y="-322" type="curve"/>
      <point x="342" y="-209" type="line"/>
      <point x="291" y="-223"/>
      <point x="172" y="-262"/>
      <point x="172" y="-358" type="curve" smooth="yes"/>
      <point x="172" y="-420"/>
      <point x="246" y="-475"/>
      <point x="371" y="-475" type="curve" smooth="yes"/>
      <point x="670" y="-475"/>
      <point x="872" y="-244"/>
      <point x="915" y="-14" type="curve" smooth="yes"/>
      <point x="1061" y="756" type="line" smooth="yes"/>
      <point x="1067" y="786"/>
      <point x="1069" y="815"/>
    </contour>
    <contour>
      <point x="379" y="-500" type="move" name="L"/>
    </contour>
    <contour>
      <point x="699" y="1100" type="move" name="U"/>
    </contour>
  </outline>
</glyph>
<glyph name="LtnCapOMacron" format="1">
  <advance width="1540"/>
  <unicode hex="014C"/>
  <outline>
    <component base="LtnCapO"/>
    <component base="CombMacron" xOffset="1379" yOffset="400"/>
    <contour>
      <point x="668" y="0" type="move" name="H"/>
    </contour>
    <contour>
      <point x="1520" y="1250" type="move" name="R"/>
    </contour>
    <contour>
      <point x="995" y="1870" type="move" name="U"/>
    </contour>
    <contour>
      <point x="648" y="-100" type="move" name="L"/>
    </contour>
    <contour>
      <point x="931" y="0" type="move" name="O"/>
    </contour>
  </outline>
</glyph>
<glyph name="LtnSmOBreve" format="1">
  <advance width="1133"/>
  <unicode hex="014F"/>
  <outline>
    <component base="LtnSmO"/>
    <component base="CombBreve" xOffset="1133"/>
    <contour>
      <point x="466" y="0" type="move" name="H"/>
    </contour>
    <contour>
      <point x="446" y="-100" type="move" name="L"/>
    </contour>
    <contour>
      <point x="693" y="0" type="move" name="O"/>
    </contour>
    <contour>
      <point x="1133" y="1000" type="move" name="R"/>
    </contour>
    <contour>
      <point x="734" y="1500" type="move" name="U"/>
    </contour>
  </outline>
</glyph>
<glyph name="LtnCapRAcute" format="1">
  <advance width="1399"/>
  <unicode hex="0154"/>
  <outline>
    <component base="LtnCapR"/>
    <component base="CombAcute" xOffset="1244" yOffset="400"/>
    <contour>
      <point x="243" y="0" type="move" name="H"/>
    </contour>
    <contour>
      <point x="845" y="1900" type="move" name="U"/>
    </contour>
    <contour>
      <point x="513" y="-100" type="move" name="L"/>
    </contour>
  </outline>
</glyph>
<glyph name="LtnSmRAcute" format="1">
  <advance width="858"/>
  <unicode hex="0155"/>
  <outline>
    <component base="LtnSmR"/>
    <component base="CombAcute" xOffset="993"/>
    <contour>
      <point x="151" y="0" type="move" name="H"/>
    </contour>
    <contour>
      <point x="131" y="-100" type="move" name="L"/>
    </contour>
    <contour>
      <point x="594" y="1500" type="move" name="U"/>
    </contour>
  </outline>
</glyph>
<glyph name="LtnCapRCedilla" format="1">
  <advance width="1399"/>
  <unicode hex="0156"/>
  <outline>
    <component base="LtnCapR"/>
    <component base="CombCommaBlw" xOffset="1200"/>
    <contour>
      <point x="243" y="0" type="move" name="H"/>
    </contour>
    <contour>
      <point x="801" y="1500" type="move" name="U"/>
    </contour>
    <contour>
      <point x="437" y="-500" type="move" name="L"/>
    </contour>
  </outline>
</glyph>
<glyph name="LtnSmRCedilla" format="1">
  <advance width="858"/>
  <unicode hex="0157"/>
  <outline>
    <component base="LtnSmR"/>
    <component base="CombCommaBlw" xOffset="818"/>
    <contour>
      <point x="151" y="0" type="move" name="H"/>
    </contour>
    <contour>
      <point x="55" y="-500" type="move" name="L"/>
    </contour>
    <contour>
      <point x="550" y="1100" type="move" name="U"/>
    </contour>
  </outline>
</glyph>
<glyph name="LtnSmRCaron" format="1">
  <advance width="858"/>
  <unicode hex="0159"/>
  <outline>
    <component base="LtnSmR"/>
    <component base="CombCaron" xOffset="993"/>
    <contour>
      <point x="151" y="0" type="move" name="H"/>
    </contour>
    <contour>
      <point x="131" y="-100" type="move" name="L"/>
    </contour>
    <contour>
      <point x="594" y="1500" type="move" name="U"/>
    </contour>
  </outline>
</glyph>
<glyph name="LtnSmSAcute" format="1">
  <advance width="850"/>
  <unicode hex="015B"/>
  <outline>
    <component base="LtnSmS"/>
    <component base="CombAcute" xOffset="1001"/>
    <contour>
      <point x="324" y="0" type="move" name="H"/>
    </contour>
    <contour>
      <point x="304" y="-100" type="move" name="L"/>
    </contour>
    <contour>
      <point x="602" y="1500" type="move" name="U"/>
    </contour>
  </outline>
</glyph>
<glyph name="LtnSmSCircum" format="1">
  <advance width="850"/>
  <unicode hex="015D"/>
  <outline>
    <component base="LtnSmS"/>
    <component base="CombCircum" xOffset="1001"/>
    <contour>
      <point x="324" y="0" type="move" name="H"/>
    </contour>
    <contour>
      <point x="304" y="-100" type="move" name="L"/>
    </contour>
    <contour>
      <point x="602" y="1500" type="move" name="U"/>
    </contour>
  </outline>
</glyph>
<glyph name="LtnCapSCedilla" format="1">
  <advance width="1153"/>
  <unicode hex="015E"/>
  <outline>
    <component base="LtnCapS"/>
    <component base="CombCedilla" xOffset="1148"/>
    <contour>
      <point x="771" y="1500" type="move" name="U"/>
    </contour>
    <contour>
      <point x="365" y="-600" type="move" name="L"/>
    </contour>
  </outline>
</glyph>
<glyph name="LtnSmSCedilla" format="1">
  <advance width="850"/>
  <unicode hex="015F"/>
  <outline>
    <component base="LtnSmS"/>
    <component base="CombCedilla" xOffset="991"/>
    <contour>
      <point x="558" y="1100" type="move" name="U"/>
    </contour>
    <contour>
      <point x="208" y="-600" type="move" name="L"/>
    </contour>
  </outline>
</glyph>
<glyph name="LtnCapSCaron" format="1">
  <advance width="1153"/>
  <unicode hex="0160"/>
  <outline>
    <component base="LtnCapS"/>
    <component base="CombCaron" xOffset="1214" yOffset="400"/>
    <contour>
      <point x="481" y="0" type="move" name="H"/>
    </contour>
    <contour>
      <point x="461" y="-100" type="move" name="L"/>
    </contour>
    <contour>
      <point x="815" y="1900" type="move" name="U"/>
    </contour>
  </outline>
</glyph>
<glyph name="LtnSmSCaron" format="1">
  <advance width="850"/>
  <unicode hex="0161"/>
  <outline>
    <component base="LtnSmS"/>
    <component base="CombCaron" xOffset="1001"/>
    <contour>
      <point x="324" y="0" type="move" name="H"/>
    </contour>
    <contour>
      <point x="304" y="-100" type="move" name="L"/>
    </contour>
    <contour>
      <point x="602" y="1500" type="move" name="U"/>
    </contour>
  </outline>
</glyph>
<glyph name="LtnSmTCedilla" format="1">
  <advance width="705"/>
  <unicode hex="0163"/>
  <outline>
    <component base="LtnSmT"/>
    <component base="CombCedilla" xOffset="959"/>
    <contour>
      <point x="176" y="-600" type="move" name="L"/>
    </contour>
    <contour>
      <point x="705" y="1000" type="move" name="R"/>
    </contour>
    <contour>
      <point x="520" y="1363" type="move" name="U"/>
    </contour>
  </outline>
</glyph>
<glyph name="LtnCapTCaron" format="1">
  <advance width="1286"/>
  <unicode hex="0164"/>
  <outline>
    <component base="LtnCapT"/>
    <component base="CombCaron" xOffset="1255" yOffset="400"/>
    <contour>
      <point x="544" y="0" type="move" name="H"/>
    </contour>
    <contour>
      <point x="524" y="-100" type="move" name="L"/>
    </contour>
    <contour>
      <point x="856" y="1900" type="move" name="U"/>
    </contour>
  </outline>
</glyph>
<glyph name="LtnSmTCaron" format="2">
  <advance width="705"/>
  <unicode hex="0165"/>
  <anchor x="292" y="0" name="H"/>
  <anchor x="272" y="-100" name="L"/>
  <anchor x="520" y="1363" name="U"/>
  <outline>
    <contour>
      <point x="805" y="856" type="line"/>
      <point x="805" y="969" type="line"/>
      <point x="520" y="969" type="line"/>
      <point x="563" y="1200" type="line"/>
      <point x="358" y="1200" type="line"/>
      <point x="254" y="989" type="line"/>
      <point x="80" y="920" type="line"/>
      <point x="80" y="836" type="line"/>
      <point x="227" y="852" type="line"/>
      <point x="102" y="242" type="line" smooth="yes"/>
      <point x="96" y="213"/>
      <point x="94" y="186"/>
      <point x="94" y="160" type="curve" smooth="yes"/>
      <point x="94" y="53"/>
      <point x="170" y="-25"/>
      <point x="328" y="-25" type="curve" smooth="yes"/>
      <point x="457" y="-25"/>
      <point x="662" y="55"/>
      <point x="707" y="76" type="curve"/>
      <point x="707" y="188" type="line"/>
      <point x="641" y="166"/>
      <point x="514" y="117"/>
      <point x="451" y="117" type="curve" smooth="yes"/>
      <point x="387" y="117"/>
      <point x="356" y="160"/>
      <point x="371" y="223" type="curve"/>
      <point x="500" y="856" type="line"/>
    </contour>
    <contour>
      <point x="1004" y="1434" type="curve" smooth="yes"/>
      <point x="1004" y="1520"/>
      <point x="941" y="1571"/>
      <point x="857" y="1571" type="curve" smooth="yes"/>
      <point x="777" y="1571"/>
      <point x="693" y="1520"/>
      <point x="693" y="1430" type="curve" smooth="yes"/>
      <point x="693" y="1405"/>
      <point x="701" y="1380"/>
      <point x="720" y="1362" type="curve"/>
      <point x="849" y="1362" type="line"/>
      <point x="832" y="1286"/>
      <point x="740" y="1229"/>
      <point x="673" y="1210" type="curve"/>
      <point x="656" y="1128" type="line"/>
      <point x="802" y="1155"/>
      <point x="1004" y="1262"/>
    </contour>
  </outline>
</glyph>
<glyph name="LtnCapTStrk" format="2">
  <advance width="1286"/>
  <unicode hex="0166"/>
  <anchor x="524" y="-100" name="L"/>
  <anchor x="812" y="1500" name="U"/>
  <outline>
    <contour>
      <point x="254" y="0" type="line"/>
      <point x="872" y="0" type="line"/>
      <point x="872" y="102" type="line"/>
      <point x="754" y="113" type="line" smooth="yes"/>
      <point x="729" y="115"/>
      <point x="711" y="119"/>
      <point x="715" y="143" type="curve" smooth="yes"/>
      <point x="811" y="655" type="line"/>
      <point x="1108" y="655" type="line"/>
      <point x="1108" y="778" type="line"/>
      <point x="836" y="778" type="line"/>
      <point x="926" y="1262" type="line"/>
      <point x="1149" y="1262" type="line" smooth="yes"/>
      <point x="1169" y="1262"/>
      <point x="1196" y="1253"/>
      <point x="1194" y="1235" type="curve"/>
      <point x="1184" y="1016" type="line"/>
      <point x="1343" y="1016" type="line"/>
      <point x="1417" y="1374" type="line"/>
      <point x="197" y="1374" type="line"/>
      <point x="127" y="1016" type="line"/>
      <point x="287" y="1016" type="line"/>
      <point x="365" y="1233" type="line" smooth="yes"/>
      <point x="371" y="1251"/>
      <point x="403" y="1262"/>
      <point x="422" y="1262" type="curve" smooth="yes"/>
      <point x="633" y="1262" type="line"/>
      <point x="543" y="778" type="line"/>
      <point x="246" y="778" type="line"/>
      <point x="246" y="655" type="line"/>
      <point x="518" y="655" type="line"/>
      <point x="422" y="145" type="line" smooth="yes"/>
      <point x="418" y="119"/>
      <point x="395" y="113"/>
      <point x="367" y="111" type="curve"/>
      <point x="254" y="102" type="line"/>
    </contour>
  </outline>
</glyph>
<glyph name="LtnSmTStrk" format="2">
  <advance width="705"/>
  <unicode hex="0167"/>
  <anchor x="272" y="-100" name="L"/>
  <anchor x="535" y="1363" name="U"/>
  <outline>
    <contour>
      <point x="805" y="856" type="line"/>
      <point x="805" y="969" type="line"/>
      <point x="520" y="969" type="line"/>
      <point x="563" y="1200" type="line"/>
      <point x="358" y="1200" type="line"/>
      <point x="254" y="989" type="line"/>
      <point x="80" y="920" type="line"/>
      <point x="80" y="836" type="line"/>
      <point x="227" y="852" type="line"/>
      <point x="102" y="242" type="line" smooth="yes"/>
      <point x="96" y="213"/>
      <point x="94" y="186"/>
      <point x="94" y="160" type="curve" smooth="yes"/>
      <point x="94" y="53"/>
      <point x="170" y="-25"/>
      <point x="328" y="-25" type="curve" smooth="yes"/>
      <point x="457" y="-25"/>
      <point x="662" y="55"/>
      <point x="707" y="76" type="curve"/>
      <point x="707" y="188" type="line"/>
      <point x="641" y="166"/>
      <point x="514" y="117"/>
      <point x="451" y="117" type="curve" smooth="yes"/>
      <point x="387" y="117"/>
      <point x="356" y="160"/>
      <point x="371" y="223" type="curve"/>
      <point x="500" y="856" type="line"/>
    </contour>
    <contour>
      <point x="734" y="455" type="line"/>
      <point x="734" y="576" type="line"/>
      <point x="40" y="576" type="line"/>
      <point x="40" y="455" type="line"/>
    </contour>
  </outline>
</glyph>
<glyph name="LtnCapUMacron" format="1">
  <advance width="1534"/>
  <unicode hex="016A"/>
  <outline>
    <component base="LtnCapU"/>
    <component base="CombMacron" xOffset="1388" yOffset="400"/>
    <contour>
      <point x="659" y="0" type="move" name="H"/>
    </contour>
    <contour>
      <point x="1650" y="1350" type="move" name="R"/>
    </contour>
    <contour>
      <point x="1004" y="1870" type="move" name="U"/>
    </contour>
    <contour>
      <point x="657" y="-100" type="move" name="L"/>
    </contour>
    <contour>
      <point x="988" y="0" type="move" name="O"/>
    </contour>
  </outline>
</glyph>
<glyph name="LtnSmUBreve" format="1">
  <advance width="1176"/>
  <unicode hex="016D"/>
  <outline>
    <component base="LtnSmU"/>
    <component base="CombBreve" xOffset="1178"/>
    <contour>
      <point x="530" y="0" type="move" name="H"/>
    </contour>
    <contour>
      <point x="491" y="-100" type="move" name="L"/>
    </contour>
    <contour>
      <point x="1025" y="0" type="move" name="O"/>
    </contour>
    <contour>
      <point x="1176" y="1000" type="move" name="R"/>
    </contour>
    <contour>
      <point x="779" y="1500" type="move" name="U"/>
    </contour>
  </outline>
</glyph>
<glyph name="LtnCapURingAbv" format="1">
  <advance width="1534"/>
  <unicode hex="016E"/>
  <outline>
    <component base="LtnCapU"/>
    <component base="RingAbv" xOffset="589" yOffset="400"/>
    <contour>
      <point x="659" y="0" type="move" name="H"/>
    </contour>
    <contour>
      <point x="657" y="-100" type="move" name="L"/>
    </contour>
    <contour>
      <point x="988" y="0" type="move" name="O"/>
    </contour>
    <contour>
      <point x="1650" y="1350" type="move" name="R"/>
    </contour>
    <contour>
      <point x="1019" y="2060" type="move" name="U"/>
    </contour>
  </outline>
</glyph>
<glyph name="LtnSmURingAbv" format="1">
  <advance width="1176"/>
  <unicode hex="016F"/>
  <outline>
    <component base="LtnSmU"/>
    <component base="RingAbv" xOffset="379"/>
    <contour>
      <point x="530" y="0" type="move" name="H"/>
    </contour>
    <contour>
      <point x="491" y="-100" type="move" name="L"/>
    </contour>
    <contour>
      <point x="1025" y="0" type="move" name="O"/>
    </contour>
    <contour>
      <point x="1176" y="1000" type="move" name="R"/>
    </contour>
    <contour>
      <point x="809" y="1660" type="move" name="U"/>
    </contour>
  </outline>
</glyph>
<glyph name="LtnCapUOgonek" format="1">
  <advance width="1534"/>
  <unicode hex="0172"/>
  <outline>
    <component base="LtnCapU"/>
    <component base="CombOgonek" xOffset="1347"/>
    <contour>
      <point x="659" y="0" type="move" name="H"/>
    </contour>
    <contour>
      <point x="1534" y="1000" type="move" name="R"/>
    </contour>
    <contour>
      <point x="606" y="-400" type="move" name="L"/>
    </contour>
    <contour>
      <point x="945" y="1500" type="move" name="U"/>
    </contour>
  </outline>
</glyph>
<glyph name="LtnSmUOgonek" format="1">
  <advance width="1176"/>
  <unicode hex="0173"/>
  <outline>
    <component base="LtnSmU"/>
    <component base="CombOgonek" xOffset="1501"/>
    <contour>
      <point x="735" y="1100" type="move" name="U"/>
    </contour>
    <contour>
      <point x="430" y="-400" type="move" name="L"/>
    </contour>
  </outline>
</glyph>
<glyph name="LtnCapWCircum" format="1">
  <advance width="1985"/>
  <unicode hex="0174"/>
  <outline>
    <component base="LtnCapW"/>
    <component base="CombCircum" xOffset="1642" yOffset="400"/>
    <contour>
      <point x="1243" y="1900" type="move" name="U"/>
    </contour>
    <contour>
      <point x="900" y="-100" type="move" name="L"/>
    </contour>
  </outline>
</glyph>
<glyph name="LtnSmWCircum" format="1">
  <advance width="1538"/>
  <unicode hex="0175"/>
  <outline>
    <component base="LtnSmW"/>
    <component base="CombCircum" xOffset="1285"/>
    <contour>
      <point x="886" y="1500" type="move" name="U"/>
    </contour>
    <contour>
      <point x="571" y="-100" type="move" name="L"/>
    </contour>
  </outline>
</glyph>
<glyph name="LtnSmYCircum" format="1">
  <advance width="1112"/>
  <unicode hex="0177"/>
  <outline>
    <component base="LtnSmY"/>
    <component base="CombCircum" xOffset="1109"/>
    <contour>
      <point x="304" y="-500" type="move" name="L"/>
    </contour>
    <contour>
      <point x="1112" y="1000" type="move" name="R"/>
    </contour>
    <contour>
      <point x="710" y="1500" type="move" name="U"/>
    </contour>
  </outline>
</glyph>
<glyph name="LtnCapYDiaer" format="1">
  <advance width="1395"/>
  <unicode hex="0178"/>
  <outline>
    <component base="LtnCapY"/>
    <component base="CombDiaer" xOffset="1316" yOffset="400"/>
    <contour>
      <point x="917" y="1900" type="move" name="U"/>
    </contour>
    <contour>
      <point x="585" y="-100" type="move" name="L"/>
    </contour>
  </outline>
</glyph>
<glyph name="LtnSmZAcute" format="1">
  <advance width="1006"/>
  <unicode hex="017A"/>
  <outline>
    <component base="LtnSmZ"/>
    <component base="CombAcute" xOffset="1033"/>
    <contour>
      <point x="404" y="0" type="move" name="H"/>
    </contour>
    <contour>
      <point x="634" y="1500" type="move" name="U"/>
    </contour>
    <contour>
      <point x="384" y="-100" type="move" name="L"/>
    </contour>
  </outline>
</glyph>
<glyph name="LtnSmZDotAbv" format="1">
  <advance width="1006"/>
  <unicode hex="017C"/>
  <outline>
    <component base="LtnSmZ"/>
    <component base="DotAbv" xOffset="317"/>
    <contour>
      <point x="404" y="0" type="move" name="H"/>
    </contour>
    <contour>
      <point x="384" y="-100" type="move" name="L"/>
    </contour>
    <contour>
      <point x="634" y="1500" type="move" name="U"/>
    </contour>
  </outline>
</glyph>
<glyph name="LtnCapZCaron" format="1">
  <advance width="1237"/>
  <unicode hex="017D"/>
  <outline>
    <component base="LtnCapZ"/>
    <component base="CombCaron" xOffset="1241" yOffset="400"/>
    <contour>
      <point x="842" y="1900" type="move" name="U"/>
    </contour>
    <contour>
      <point x="510" y="-100" type="move" name="L"/>
    </contour>
  </outline>
</glyph>
<glyph name="LtnSmZCaron" format="1">
  <advance width="1006"/>
  <unicode hex="017E"/>
  <outline>
    <component base="LtnSmZ"/>
    <component base="CombCaron" xOffset="1033"/>
    <contour>
      <point x="404" y="0" type="move" name="H"/>
    </contour>
    <contour>
      <point x="384" y="-100" type="move" name="L"/>
    </contour>
    <contour>
      <point x="634" y="1500" type="move" name="U"/>
    </contour>
  </outline>
</glyph>
<glyph name="LtnCapBTopbar" format="2">
  <advance width="1300"/>
  <unicode hex="0182"/>
  <anchor x="514" y="-100" name="L"/>
  <anchor x="802" y="1500" name="U"/>
  <outline>
    <contour>
      <point x="-53" y="0" type="line"/>
      <point x="471" y="0" type="line"/>
      <point x="938" y="0"/>
      <point x="1158" y="89"/>
      <point x="1213" y="368" type="curve" smooth="yes"/>
      <point x="1272" y="667"/>
      <point x="1014" y="771"/>
      <point x="658" y="771" type="curve" smooth="yes"/>
      <point x="627" y="771"/>
      <point x="584" y="767"/>
      <point x="551" y="765" type="curve"/>
      <point x="641" y="1227" type="line" smooth="yes"/>
      <point x="643" y="1239"/>
      <point x="657" y="1257"/>
      <point x="677" y="1257" type="curve" smooth="yes"/>
      <point x="989" y="1257" type="line" smooth="yes"/>
      <point x="1018" y="1257"/>
      <point x="1026" y="1245"/>
      <point x="1024" y="1212" type="curve"/>
      <point x="1020" y="1038" type="line"/>
      <point x="1167" y="1038" type="line"/>
      <point x="1233" y="1374" type="line"/>
      <point x="186" y="1374" type="line"/>
      <point x="186" y="1270" type="line"/>
      <point x="309" y="1260" type="line"/>
      <point x="334" y="1257"/>
      <point x="352" y="1241"/>
      <point x="346" y="1214" type="curve"/>
      <point x="137" y="160" type="line"/>
      <point x="133" y="133"/>
      <point x="109" y="117"/>
      <point x="84" y="115" type="curve" smooth="yes"/>
      <point x="-53" y="104" type="line"/>
    </contour>
    <contour>
      <point x="481" y="113" type="curve" smooth="yes"/>
      <point x="461" y="113"/>
      <point x="438" y="115"/>
      <point x="422" y="115" type="curve"/>
      <point x="529" y="646" type="line"/>
      <point x="555" y="650"/>
      <point x="596" y="655"/>
      <point x="617" y="655" type="curve" smooth="yes"/>
      <point x="787" y="655"/>
      <point x="954" y="604"/>
      <point x="907" y="382" type="curve" smooth="yes"/>
      <point x="864" y="177"/>
      <point x="717" y="113"/>
    </contour>
  </outline>
</glyph>
<glyph name="LtnSmBTopbar" format="2">
  <advance width="1157"/>
  <unicode hex="0183"/>
  <anchor x="435" y="-100" name="L"/>
  <anchor x="751" y="1540" name="U"/>
  <outline>
    <contour>
      <point x="408" y="-25" type="curve" smooth="yes"/>
      <point x="877" y="-25"/>
      <point x="1026" y="393"/>
      <point x="1026" y="637" type="curve" smooth="yes"/>
      <point x="1026" y="809"/>
      <point x="922" y="1024"/>
      <point x="702" y="1024" type="curve" smooth="yes"/>
      <point x="631" y="1024"/>
      <point x="549" y="997"/>
      <point x="475" y="958" type="curve"/>
      <point x="553" y="1362" type="line"/>
      <point x="555" y="1374"/>
      <point x="569" y="1392"/>
      <point x="589" y="1392" type="curve" smooth="yes"/>
      <point x="849" y="1392" type="line" smooth="yes"/>
      <point x="878" y="1392"/>
      <point x="886" y="1380"/>
      <point x="884" y="1347" type="curve"/>
      <point x="880" y="1173" type="line"/>
      <point x="1027" y="1173" type="line"/>
      <point x="1093" y="1509" type="line"/>
      <point x="305" y="1509" type="line"/>
      <point x="37" y="78" type="line"/>
      <point x="135" y="14"/>
      <point x="260" y="-25"/>
    </contour>
    <contour>
      <point x="451" y="90" type="curve" smooth="yes"/>
      <point x="387" y="90"/>
      <point x="348" y="127"/>
      <point x="326" y="162" type="curve"/>
      <point x="440" y="774" type="line"/>
      <point x="502" y="827"/>
      <point x="578" y="868"/>
      <point x="635" y="868" type="curve" smooth="yes"/>
      <point x="682" y="868"/>
      <point x="741" y="801"/>
      <point x="741" y="629" type="curve"/>
      <point x="741" y="375"/>
      <point x="586" y="90"/>
    </contour>
  </outline>
</glyph>
<glyph name="LtnCapTnSix" format="2">
  <advance width="1289"/>
  <unicode hex="0184"/>
  <anchor x="509" y="-100" name="L"/>
  <anchor x="797" y="1500" name="U"/>
  <outline>
    <contour>
      <point x="103" y="987" type="line"/>
      <point x="265" y="808" type="line"/>
      <point x="137" y="160" type="line"/>
      <point x="133" y="133"/>
      <point x="109" y="117"/>
      <point x="84" y="115" type="curve" smooth="yes"/>
      <point x="-53" y="104" type="line"/>
      <point x="-53" y="0" type="line"/>
      <point x="408" y="0"/>
      <point x="322" y="0"/>
      <point x="471" y="0" type="curve" smooth="yes"/>
      <point x="938" y="0"/>
      <point x="1158" y="89"/>
      <point x="1213" y="368" type="curve" smooth="yes"/>
      <point x="1272" y="667"/>
      <point x="1014" y="771"/>
      <point x="658" y="771" type="curve" smooth="yes"/>
      <point x="627" y="771"/>
      <point x="584" y="767"/>
      <point x="551" y="765" type="curve"/>
      <point x="679" y="1406" type="line"/>
    </contour>
    <contour>
      <point x="907" y="382" type="curve" smooth="yes"/>
      <point x="864" y="177"/>
      <point x="717" y="113"/>
      <point x="481" y="113" type="curve" smooth="yes"/>
      <point x="461" y="113"/>
      <point x="438" y="115"/>
      <point x="422" y="115" type="curve"/>
      <point x="529" y="646" type="line"/>
      <point x="555" y="650"/>
      <point x="596" y="655"/>
      <point x="617" y="655" type="curve" smooth="yes"/>
      <point x="787" y="655"/>
      <point x="954" y="604"/>
    </contour>
  </outline>
</glyph>
<glyph name="LtnSmTnSix" format="2">
  <advance width="1185"/>
  <unicode hex="0185"/>
  <anchor x="422" y="-100" name="L"/>
  <anchor x="738" y="1540" name="U"/>
  <outline>
    <contour>
      <point x="836" y="629" type="curve" smooth="yes"/>
      <point x="836" y="375"/>
      <point x="681" y="90"/>
      <point x="546" y="90" type="curve" smooth="yes"/>
      <point x="482" y="90"/>
      <point x="443" y="127"/>
      <point x="421" y="162" type="curve"/>
      <point x="535" y="774" type="line"/>
      <point x="597" y="827"/>
      <point x="673" y="868"/>
      <point x="730" y="868" type="curve" smooth="yes"/>
      <point x="777" y="868"/>
      <point x="836" y="801"/>
    </contour>
    <contour>
      <point x="317" y="1063" type="line"/>
      <point x="132" y="78" type="line"/>
      <point x="230" y="14"/>
      <point x="355" y="-25"/>
      <point x="503" y="-25" type="curve" smooth="yes"/>
      <point x="972" y="-25"/>
      <point x="1121" y="393"/>
      <point x="1121" y="637" type="curve" smooth="yes"/>
      <point x="1121" y="809"/>
      <point x="1017" y="1024"/>
      <point x="797" y="1024" type="curve" smooth="yes"/>
      <point x="726" y="1024"/>
      <point x="644" y="997"/>
      <point x="570" y="958" type="curve"/>
      <point x="687" y="1556" type="line"/>
      <point x="545" y="1556" type="line"/>
      <point x="21" y="987" type="line"/>
      <point x="109" y="900" type="line"/>
    </contour>
  </outline>
</glyph>
<glyph name="LtnCapOpnO" format="1">
  <advance width="1376"/>
  <unicode hex="0186"/>
  <outline>
    <contour>
      <point x="1335" y="825" type="curve" smooth="yes"/>
      <point x="1335" y="1102"/>
      <point x="1186" y="1407"/>
      <point x="723" y="1407" type="curve" smooth="yes"/>
      <point x="530" y="1407"/>
      <point x="365" y="1354"/>
      <point x="260" y="1319" type="curve"/>
      <point x="199" y="948" type="line"/>
      <point x="350" y="948" type="line"/>
      <point x="449" y="1219" type="line" smooth="yes"/>
      <point x="455" y="1233"/>
      <point x="465" y="1249"/>
      <point x="485" y="1251" type="curve"/>
      <point x="512" y="1262"/>
      <point x="598" y="1282"/>
      <point x="655" y="1282" type="curve" smooth="yes"/>
      <point x="831" y="1282"/>
      <point x="1032" y="1159"/>
      <point x="1032" y="848" type="curve" smooth="yes"/>
      <point x="1032" y="373"/>
      <point x="719" y="92"/>
      <point x="461" y="92" type="curve" smooth="yes"/>
      <point x="397" y="92"/>
      <point x="293" y="125"/>
      <point x="270" y="137" type="curve"/>
      <point x="250" y="143"/>
      <point x="240" y="166"/>
      <point x="240" y="184" type="curve" smooth="yes"/>
      <point x="242" y="414" type="line"/>
      <point x="90" y="414" type="line"/>
      <point x="29" y="53" type="line"/>
      <point x="190" y="2"/>
      <point x="311" y="-33"/>
      <point x="469" y="-33" type="curve" smooth="yes"/>
      <point x="1012" y="-33"/>
      <point x="1335" y="403"/>
    </contour>
    <contour>
      <point x="551" y="-100" type="move" name="L"/>
    </contour>
    <contour>
      <point x="839" y="1500" type="move" name="U"/>
    </contour>
  </outline>
</glyph>
<glyph name="LtnCapCHook" format="2">
  <advance width="1376"/>
  <unicode hex="0187"/>
  <anchor x="633" y="-100" name="L"/>
  <anchor x="921" y="1500" name="U"/>
  <outline>
    <contour>
      <point x="1847" y="1577" type="curve" smooth="yes"/>
      <point x="1847" y="1651"/>
      <point x="1753" y="1743"/>
      <point x="1673" y="1743" type="curve" smooth="yes"/>
      <point x="1456" y="1743"/>
      <point x="1253" y="1638"/>
      <point x="1217" y="1374" type="curve"/>
      <point x="1071" y="1407"/>
      <point x="1044" y="1407"/>
      <point x="965" y="1407" type="curve" smooth="yes"/>
      <point x="422" y="1407"/>
      <point x="98" y="971"/>
      <point x="98" y="549" type="curve" smooth="yes"/>
      <point x="98" y="270"/>
      <point x="250" y="-33"/>
      <point x="711" y="-33" type="curve" smooth="yes"/>
      <point x="903" y="-33"/>
      <point x="1069" y="18"/>
      <point x="1174" y="55" type="curve"/>
      <point x="1237" y="426" type="line"/>
      <point x="1083" y="426" type="line"/>
      <point x="985" y="156" type="line" smooth="yes"/>
      <point x="979" y="141"/>
      <point x="969" y="125"/>
      <point x="948" y="123" type="curve"/>
      <point x="924" y="111"/>
      <point x="836" y="92"/>
      <point x="778" y="92" type="curve" smooth="yes"/>
      <point x="602" y="92"/>
      <point x="401" y="215"/>
      <point x="401" y="526" type="curve" smooth="yes"/>
      <point x="401" y="1001"/>
      <point x="715" y="1282"/>
      <point x="975" y="1282" type="curve" smooth="yes"/>
      <point x="1036" y="1282"/>
      <point x="1141" y="1249"/>
      <point x="1163" y="1237" type="curve"/>
      <point x="1184" y="1231"/>
      <point x="1196" y="1206"/>
      <point x="1194" y="1190" type="curve"/>
      <point x="1192" y="961" type="line"/>
      <point x="1343" y="961" type="line"/>
      <point x="1407" y="1321" type="line" smooth="yes"/>
      <point x="1432" y="1468"/>
      <point x="1473" y="1618"/>
      <point x="1540" y="1618" type="curve"/>
      <point x="1716" y="1419" type="line"/>
      <point x="1776" y="1440"/>
      <point x="1847" y="1501"/>
    </contour>
  </outline>
</glyph>
<glyph name="LtnSmCHook" format="2">
  <advance width="975"/>
  <unicode hex="0188"/>
  <anchor x="360" y="-100" name="L"/>
  <anchor x="617" y="1100" name="U"/>
  <outline>
    <contour>
      <point x="1139" y="1143" type="curve" smooth="yes"/>
      <point x="1139" y="1206"/>
      <point x="1079" y="1251"/>
      <point x="967" y="1251" type="curve" smooth="yes"/>
      <point x="782" y="1251"/>
      <point x="731" y="1149"/>
      <point x="684" y="1018" type="curve"/>
      <point x="678" y="1018"/>
      <point x="635" y="1022"/>
      <point x="629" y="1024" type="curve"/>
      <point x="354" y="1034"/>
      <point x="66" y="723"/>
      <point x="66" y="367" type="curve" smooth="yes"/>
      <point x="66" y="131"/>
      <point x="176" y="-25"/>
      <point x="422" y="-25" type="curve" smooth="yes"/>
      <point x="614" y="-25"/>
      <point x="737" y="51"/>
      <point x="866" y="215" type="curve"/>
      <point x="864" y="399" type="line"/>
      <point x="682" y="176"/>
      <point x="586" y="129"/>
      <point x="483" y="129" type="curve" smooth="yes"/>
      <point x="356" y="129"/>
      <point x="344" y="262"/>
      <point x="344" y="389" type="curve" smooth="yes"/>
      <point x="344" y="442"/>
      <point x="352" y="598"/>
      <point x="414" y="723" type="curve" smooth="yes"/>
      <point x="446" y="788"/>
      <point x="514" y="877"/>
      <point x="604" y="877" type="curve"/>
      <point x="707" y="725" type="line"/>
      <point x="903" y="725"/>
      <point x="909" y="823"/>
      <point x="909" y="874" type="curve" smooth="yes"/>
      <point x="909" y="901"/>
      <point x="893" y="963"/>
      <point x="836" y="981" type="curve"/>
      <point x="852" y="1069"/>
      <point x="893" y="1153"/>
      <point x="928" y="1153" type="curve"/>
      <point x="1024" y="1030" type="line"/>
      <point x="1083" y="1042"/>
      <point x="1139" y="1067"/>
    </contour>
  </outline>
</glyph>
<glyph name="LtnCapDHook" format="2">
  <advance width="1522"/>
  <unicode hex="018A"/>
  <anchor x="547" y="-100" name="L"/>
  <anchor x="835" y="1500" name="U"/>
  <outline>
    <contour>
      <point x="31" y="0" type="line"/>
      <point x="555" y="0" type="line" smooth="yes"/>
      <point x="1133" y="0"/>
      <point x="1485" y="360"/>
      <point x="1485" y="848" type="curve" smooth="yes"/>
      <point x="1485" y="1225"/>
      <point x="1210" y="1374"/>
      <point x="788" y="1374" type="curve" smooth="yes"/>
      <point x="293" y="1374" type="line" smooth="yes"/>
      <point x="139" y="1374"/>
      <point x="10" y="1276"/>
      <point x="10" y="1118" type="curve" smooth="yes"/>
      <point x="10" y="1059"/>
      <point x="88" y="997"/>
      <point x="152" y="997" type="curve" smooth="yes"/>
      <point x="197" y="997"/>
      <point x="238" y="1024"/>
      <point x="295" y="1073" type="curve"/>
      <point x="238" y="1217" type="line"/>
      <point x="244" y="1225"/>
      <point x="266" y="1245"/>
      <point x="289" y="1245" type="curve" smooth="yes"/>
      <point x="385" y="1245" type="line" smooth="yes"/>
      <point x="395" y="1245"/>
      <point x="414" y="1241"/>
      <point x="412" y="1229" type="curve" smooth="yes"/>
      <point x="199" y="145" type="line" smooth="yes"/>
      <point x="193" y="117"/>
      <point x="180" y="113"/>
      <point x="147" y="111" type="curve"/>
      <point x="31" y="102" type="line"/>
    </contour>
    <contour>
      <point x="487" y="127" type="line"/>
      <point x="711" y="1251" type="line"/>
      <point x="737" y="1251" type="line" smooth="yes"/>
      <point x="948" y="1245"/>
      <point x="1178" y="1204"/>
      <point x="1178" y="866" type="curve" smooth="yes"/>
      <point x="1178" y="475"/>
      <point x="950" y="131"/>
      <point x="592" y="127" type="curve" smooth="yes"/>
    </contour>
  </outline>
</glyph>
<glyph name="LtnCapDTopbar" format="2">
  <advance width="1331"/>
  <unicode hex="018B"/>
  <anchor x="567" y="-100" name="L"/>
  <anchor x="855" y="1500" name="U"/>
  <outline>
    <contour>
      <point x="636" y="0" type="curve" smooth="yes"/>
      <point x="1193" y="0" type="line"/>
      <point x="1193" y="102" type="line"/>
      <point x="1063" y="113" type="line" smooth="yes"/>
      <point x="1036" y="115"/>
      <point x="1027" y="118"/>
      <point x="1033" y="149" type="curve" smooth="yes"/>
      <point x="1245" y="1229" type="line" smooth="yes"/>
      <point x="1249" y="1251"/>
      <point x="1261" y="1261"/>
      <point x="1276" y="1262" type="curve" smooth="yes"/>
      <point x="1417" y="1272" type="line"/>
      <point x="1417" y="1374" type="line"/>
      <point x="391" y="1374" type="line"/>
      <point x="325" y="1038" type="line"/>
      <point x="477" y="1038" type="line"/>
      <point x="545" y="1223" type="line"/>
      <point x="553" y="1243"/>
      <point x="572" y="1260"/>
      <point x="593" y="1260" type="curve" smooth="yes"/>
      <point x="919" y="1260" type="line"/>
      <point x="948" y="1260"/>
      <point x="955" y="1230"/>
      <point x="950" y="1212" type="curve"/>
      <point x="862" y="763" type="line"/>
      <point x="810" y="770"/>
      <point x="763" y="773"/>
      <point x="700" y="773" type="curve" smooth="yes"/>
      <point x="384" y="773"/>
      <point x="57" y="681"/>
      <point x="57" y="354" type="curve" smooth="yes"/>
      <point x="57" y="146"/>
      <point x="174" y="0"/>
    </contour>
    <contour>
      <point x="625" y="118" type="curve" smooth="yes"/>
      <point x="466" y="118"/>
      <point x="356" y="200"/>
      <point x="356" y="342" type="curve" smooth="yes"/>
      <point x="356" y="525"/>
      <point x="456" y="655"/>
      <point x="677" y="655" type="curve" smooth="yes"/>
      <point x="732" y="655"/>
      <point x="798" y="651"/>
      <point x="841" y="645" type="curve"/>
      <point x="736" y="124" type="line"/>
      <point x="695" y="120"/>
      <point x="667" y="118"/>
    </contour>
  </outline>
</glyph>
<glyph name="LtnSmDTopbar" format="2">
  <advance width="1159"/>
  <unicode hex="018C"/>
  <anchor x="541" y="-100" name="L"/>
  <anchor x="857" y="1540" name="U"/>
  <outline>
    <contour>
      <point x="805" y="999" type="line"/>
      <point x="778" y="1008"/>
      <point x="737" y="1024"/>
      <point x="686" y="1024" type="curve" smooth="yes"/>
      <point x="272" y="1024"/>
      <point x="66" y="659"/>
      <point x="66" y="346" type="curve" smooth="yes"/>
      <point x="66" y="170"/>
      <point x="164" y="-25"/>
      <point x="401" y="-25" type="curve" smooth="yes"/>
      <point x="489" y="-25"/>
      <point x="586" y="18"/>
      <point x="659" y="74" type="curve"/>
      <point x="682" y="12"/>
      <point x="741" y="-25"/>
      <point x="844" y="-25" type="curve" smooth="yes"/>
      <point x="950" y="-25"/>
      <point x="1085" y="20"/>
      <point x="1155" y="61" type="curve"/>
      <point x="1155" y="162" type="line"/>
      <point x="1110" y="139"/>
      <point x="1022" y="100"/>
      <point x="965" y="100" type="curve" smooth="yes"/>
      <point x="948" y="100"/>
      <point x="920" y="117"/>
      <point x="932" y="184" type="curve" smooth="yes"/>
      <point x="1167" y="1509" type="line"/>
      <point x="379" y="1509" type="line"/>
      <point x="314" y="1174" type="line"/>
      <point x="466" y="1174" type="line"/>
      <point x="531" y="1353" type="line"/>
      <point x="540" y="1376"/>
      <point x="559" y="1392"/>
      <point x="584" y="1392" type="curve" smooth="yes"/>
      <point x="837" y="1392" type="line" smooth="yes"/>
      <point x="865" y="1392"/>
      <point x="872" y="1378"/>
      <point x="866" y="1347" type="curve"/>
    </contour>
    <contour>
      <point x="770" y="807" type="curve"/>
      <point x="676" y="276" type="line"/>
      <point x="606" y="197"/>
      <point x="535" y="121"/>
      <point x="465" y="121" type="curve" smooth="yes"/>
      <point x="389" y="121"/>
      <point x="348" y="193"/>
      <point x="348" y="358" type="curve" smooth="yes"/>
      <point x="348" y="684"/>
      <point x="539" y="907"/>
      <point x="682" y="907" type="curve" smooth="yes"/>
      <point x="731" y="907"/>
      <point x="772" y="817"/>
    </contour>
  </outline>
</glyph>
<glyph name="LtnCapSchwa" format="2">
  <advance width="1317"/>
  <unicode hex="018F"/>
  <anchor x="518" y="-100" name="L"/>
  <anchor x="806" y="1500" name="U"/>
  <outline>
    <contour>
      <point x="1280" y="879" type="curve" smooth="yes"/>
      <point x="1280" y="1257"/>
      <point x="954" y="1407"/>
      <point x="750" y="1407" type="curve" smooth="yes"/>
      <point x="485" y="1407"/>
      <point x="338" y="1352"/>
      <point x="170" y="1204" type="curve"/>
      <point x="170" y="979" type="line"/>
      <point x="309" y="1128"/>
      <point x="520" y="1272"/>
      <point x="692" y="1272" type="curve" smooth="yes"/>
      <point x="831" y="1272"/>
      <point x="969" y="1085"/>
      <point x="969" y="866" type="curve" smooth="yes"/>
      <point x="969" y="838"/>
      <point x="967" y="811"/>
      <point x="965" y="784" type="curve"/>
      <point x="307" y="774"/>
      <point x="43" y="588"/>
      <point x="43" y="276" type="curve" smooth="yes"/>
      <point x="43" y="197"/>
      <point x="150" y="-33"/>
      <point x="477" y="-33" type="curve" smooth="yes"/>
      <point x="1049" y="-33"/>
      <point x="1280" y="430"/>
    </contour>
    <contour>
      <point x="944" y="647" type="curve"/>
      <point x="866" y="340"/>
      <point x="684" y="94"/>
      <point x="518" y="94" type="curve" smooth="yes"/>
      <point x="438" y="94"/>
      <point x="377" y="197"/>
      <point x="377" y="274" type="curve" smooth="yes"/>
      <point x="377" y="477"/>
      <point x="532" y="635"/>
    </contour>
  </outline>
</glyph>
<glyph name="LtnCapIota" format="1">
  <advance width="922"/>
  <unicode hex="0196"/>
  <outline>
    <contour>
      <point x="905" y="203" type="curve" smooth="yes"/>
      <point x="905" y="274"/>
      <point x="848" y="365"/>
      <point x="725" y="375" type="curve"/>
      <point x="596" y="117" type="line"/>
      <point x="528" y="129"/>
      <point x="461" y="178"/>
      <point x="461" y="260" type="curve" smooth="yes"/>
      <point x="461" y="285"/>
      <point x="465" y="309"/>
      <point x="469" y="334" type="curve" smooth="yes"/>
      <point x="674" y="1374" type="line"/>
      <point x="197" y="1374" type="line"/>
      <point x="197" y="1272" type="line"/>
      <point x="254" y="1266"/>
      <point x="305" y="1264"/>
      <point x="305" y="1264" type="curve"/>
      <point x="340" y="1260"/>
      <point x="352" y="1241"/>
      <point x="348" y="1221" type="curve" smooth="yes"/>
      <point x="168" y="291" type="line" smooth="yes"/>
      <point x="162" y="260"/>
      <point x="158" y="229"/>
      <point x="158" y="199" type="curve" smooth="yes"/>
      <point x="158" y="35"/>
      <point x="291" y="-33"/>
      <point x="496" y="-33" type="curve" smooth="yes"/>
      <point x="659" y="-33"/>
      <point x="905" y="53"/>
    </contour>
    <contour>
      <point x="579" y="1500" type="move" name="U"/>
    </contour>
    <contour>
      <point x="382" y="-100" type="move" name="L"/>
    </contour>
  </outline>
</glyph>
<glyph name="LtnCapIStrk" format="2">
  <advance width="729"/>
  <unicode hex="0197"/>
  <anchor x="250" y="-100" name="L"/>
  <anchor x="538" y="1500" name="U"/>
  <outline>
    <contour>
      <point x="-31" y="0" type="line"/>
      <point x="590" y="0" type="line"/>
      <point x="590" y="102" type="line"/>
      <point x="461" y="113" type="line"/>
      <point x="434" y="115"/>
      <point x="426" y="121"/>
      <point x="430" y="143" type="curve" smooth="yes"/>
      <point x="535" y="674" type="line"/>
      <point x="756" y="674" type="line"/>
      <point x="756" y="795" type="line"/>
      <point x="559" y="795" type="line"/>
      <point x="643" y="1229" type="line" smooth="yes"/>
      <point x="647" y="1247"/>
      <point x="653" y="1260"/>
      <point x="674" y="1262" type="curve" smooth="yes"/>
      <point x="815" y="1272" type="line"/>
      <point x="815" y="1374" type="line"/>
      <point x="197" y="1374" type="line"/>
      <point x="197" y="1272" type="line"/>
      <point x="313" y="1262" type="line"/>
      <point x="340" y="1260"/>
      <point x="356" y="1255"/>
      <point x="350" y="1231" type="curve"/>
      <point x="266" y="795" type="line"/>
      <point x="63" y="795" type="line"/>
      <point x="63" y="674" type="line"/>
      <point x="242" y="674" type="line"/>
      <point x="137" y="145" type="line"/>
      <point x="133" y="117"/>
      <point x="121" y="113"/>
      <point x="90" y="111" type="curve"/>
      <point x="-31" y="102" type="line"/>
    </contour>
  </outline>
</glyph>
<glyph name="LtnCapIStrk" format="1">
  <advance width="729"/>
  <unicode hex="0197"/>
  <outline>
    <contour>
      <point x="815" y="1272" type="line"/>
      <point x="815" y="1374" type="line"/>
      <point x="197" y="1374" type="line"/>
      <point x="197" y="1272" type="line"/>
      <point x="252" y="1266"/>
      <point x="313" y="1262"/>
      <point x="313" y="1262" type="curve"/>
      <point x="340" y="1260"/>
      <point x="356" y="1255"/>
      <point x="350" y="1231" type="curve"/>
      <point x="266" y="795" type="line"/>
      <point x="63" y="795" type="line"/>
      <point x="63" y="674" type="line"/>
      <point x="242" y="674" type="line"/>
      <point x="137" y="145" type="line"/>
      <point x="133" y="117"/>
      <point x="121" y="113"/>
      <point x="90" y="111" type="curve"/>
      <point x="90" y="111"/>
      <point x="29" y="106"/>
      <point x="-31" y="102" type="curve"/>
      <point x="-31" y="0" type="line"/>
      <point x="590" y="0" type="line"/>
      <point x="590" y="102" type="line"/>
      <point x="524" y="109"/>
      <point x="461" y="113"/>
      <point x="461" y="113" type="curve"/>
      <point x="434" y="115"/>
      <point x="426" y="121"/>
      <point x="430" y="143" type="curve" smooth="yes"/>
      <point x="535" y="674" type="line"/>
      <point x="756" y="674" type="line"/>
      <point x="756" y="795" type="line"/>
      <point x="559" y="795" type="line"/>
      <point x="643" y="1229" type="line" smooth="yes"/>
      <point x="647" y="1247"/>
      <point x="653" y="1260"/>
      <point x="674" y="1262" type="curve" smooth="yes"/>
    </contour>
    <contour>
      <point x="538" y="1500" type="move" name="U"/>
    </contour>
    <contour>
      <point x="250" y="-100" type="move" name="L"/>
    </contour>
  </outline>
</glyph>
<glyph name="LtnSmLBar" format="2">
  <advance width="627"/>
  <unicode hex="019A"/>
  <anchor x="192" y="-100" name="L"/>
  <anchor x="508" y="1540" name="U"/>
  <outline>
    <contour>
      <point x="295" y="-25" type="curve" smooth="yes"/>
      <point x="401" y="-25"/>
      <point x="524" y="8"/>
      <point x="623" y="59" type="curve"/>
      <point x="623" y="170" type="line"/>
      <point x="526" y="127"/>
      <point x="446" y="109"/>
      <point x="414" y="109" type="curve" smooth="yes"/>
      <point x="362" y="109"/>
      <point x="352" y="162"/>
      <point x="360" y="209" type="curve" smooth="yes"/>
      <point x="449" y="659" type="line"/>
      <point x="696" y="659" type="line"/>
      <point x="696" y="795" type="line"/>
      <point x="473" y="795" type="line"/>
      <point x="612" y="1509" type="line"/>
      <point x="477" y="1509" type="line"/>
      <point x="131" y="1444" type="line"/>
      <point x="131" y="1370" type="line"/>
      <point x="311" y="1354" type="line"/>
      <point x="203" y="795" type="line"/>
      <point x="-25" y="795" type="line"/>
      <point x="-25" y="659" type="line"/>
      <point x="176" y="659" type="line"/>
      <point x="88" y="205" type="line" smooth="yes"/>
      <point x="84" y="178"/>
      <point x="80" y="154"/>
      <point x="80" y="131" type="curve" smooth="yes"/>
      <point x="80" y="37"/>
      <point x="160" y="-25"/>
    </contour>
  </outline>
</glyph>
<glyph name="LtnSmNLngRtLeg" format="2">
  <advance width="1184"/>
  <unicode hex="019E"/>
  <anchor x="375" y="-500" name="L"/>
  <anchor x="700" y="1100" name="U"/>
  <outline>
    <contour>
      <point x="1087" y="-399" type="curve"/>
      <point x="1083" y="-301" type="line"/>
      <point x="1024" y="-328"/>
      <point x="956" y="-344"/>
      <point x="913" y="-344" type="curve" smooth="yes"/>
      <point x="893" y="-344"/>
      <point x="852" y="-334"/>
      <point x="864" y="-264" type="curve" smooth="yes"/>
      <point x="1063" y="756" type="line" smooth="yes"/>
      <point x="1096" y="928"/>
      <point x="1044" y="1024"/>
      <point x="840" y="1024" type="curve" smooth="yes"/>
      <point x="733" y="1024"/>
      <point x="610" y="973"/>
      <point x="510" y="905" type="curve"/>
      <point x="535" y="1024" type="line"/>
      <point x="393" y="1024" type="line"/>
      <point x="57" y="956" type="line"/>
      <point x="57" y="887" type="line"/>
      <point x="229" y="870" type="line"/>
      <point x="49" y="0" type="line"/>
      <point x="322" y="0" type="line"/>
      <point x="467" y="694" type="line"/>
      <point x="553" y="782"/>
      <point x="662" y="862"/>
      <point x="725" y="862" type="curve" smooth="yes"/>
      <point x="768" y="862"/>
      <point x="795" y="829"/>
      <point x="774" y="729" type="curve" smooth="yes"/>
      <point x="561" y="-342" type="line" smooth="yes"/>
      <point x="539" y="-451"/>
      <point x="678" y="-469"/>
      <point x="768" y="-469" type="curve" smooth="yes"/>
      <point x="862" y="-469"/>
      <point x="1016" y="-432"/>
    </contour>
  </outline>
</glyph>
<glyph name="LtnCapOMiddleTilde" format="2">
  <advance width="1540"/>
  <unicode hex="019F"/>
  <anchor x="648" y="-100" name="L"/>
  <anchor x="936" y="1500" name="U"/>
  <outline>
    <contour>
      <point x="1501" y="854" type="curve" smooth="yes"/>
      <point x="1501" y="1145"/>
      <point x="1298" y="1407"/>
      <point x="903" y="1407" type="curve" smooth="yes"/>
      <point x="397" y="1407"/>
      <point x="98" y="965"/>
      <point x="98" y="539" type="curve" smooth="yes"/>
      <point x="98" y="207"/>
      <point x="317" y="-33"/>
      <point x="698" y="-33" type="curve" smooth="yes"/>
      <point x="1235" y="-33"/>
      <point x="1501" y="434"/>
    </contour>
    <contour>
      <point x="1182" y="854" type="curve" smooth="yes"/>
      <point x="1182" y="825"/>
      <point x="1181" y="799"/>
      <point x="1178" y="770" type="curve"/>
      <point x="446" y="770" type="line"/>
      <point x="518" y="1049"/>
      <point x="696" y="1284"/>
      <point x="885" y="1284" type="curve" smooth="yes"/>
      <point x="1026" y="1284"/>
      <point x="1182" y="1128"/>
    </contour>
    <contour>
      <point x="1159" y="655" type="line"/>
      <point x="1098" y="365"/>
      <point x="911" y="94"/>
      <point x="713" y="94" type="curve" smooth="yes"/>
      <point x="578" y="94"/>
      <point x="416" y="240"/>
      <point x="416" y="522" type="curve" smooth="yes"/>
      <point x="416" y="567"/>
      <point x="418" y="612"/>
      <point x="424" y="655" type="curve"/>
    </contour>
  </outline>
</glyph>
<glyph name="LtnSmOHorn" format="2">
  <advance width="1329"/>
  <unicode hex="01A1"/>
  <anchor x="425" y="-100" name="L"/>
  <anchor x="669" y="1100" name="U"/>
  <outline>
    <contour>
      <point x="475" y="-25" type="curve" smooth="yes"/>
      <point x="848" y="-25"/>
      <point x="1069" y="299"/>
      <point x="1069" y="621" type="curve" smooth="yes"/>
      <point x="1069" y="623"/>
      <point x="1069" y="625"/>
      <point x="1069" y="627" type="curve"/>
      <point x="1227" y="694"/>
      <point x="1319" y="862"/>
      <point x="1319" y="1004" type="curve" smooth="yes"/>
      <point x="1319" y="1108"/>
      <point x="1239" y="1190"/>
      <point x="1143" y="1190" type="curve" smooth="yes"/>
      <point x="1047" y="1190"/>
      <point x="987" y="1116"/>
      <point x="987" y="1026" type="curve" smooth="yes"/>
      <point x="987" y="969"/>
      <point x="1024" y="922"/>
      <point x="1024" y="922" type="curve"/>
      <point x="1155" y="922" type="line"/>
      <point x="1151" y="874"/>
      <point x="1110" y="803"/>
      <point x="1053" y="760" type="curve"/>
      <point x="1006" y="934"/>
      <point x="860" y="1024"/>
      <point x="655" y="1024" type="curve" smooth="yes"/>
      <point x="276" y="1024"/>
      <point x="66" y="692"/>
      <point x="66" y="371" type="curve" smooth="yes"/>
      <point x="66" y="143"/>
      <point x="195" y="-25"/>
    </contour>
    <contour>
      <point x="500" y="88" type="curve" smooth="yes"/>
      <point x="453" y="88"/>
      <point x="358" y="168"/>
      <point x="358" y="379" type="curve" smooth="yes"/>
      <point x="358" y="655"/>
      <point x="508" y="915"/>
      <point x="633" y="915" type="curve" smooth="yes"/>
      <point x="684" y="915"/>
      <point x="774" y="829"/>
      <point x="774" y="629" type="curve" smooth="yes"/>
      <point x="774" y="377"/>
      <point x="643" y="88"/>
    </contour>
  </outline>
</glyph>
<glyph name="LtnCapOi" format="2">
  <advance width="2150"/>
  <unicode hex="01A2"/>
  <anchor x="960" y="-100" name="L"/>
  <anchor x="1248" y="1500" name="U"/>
  <outline>
    <contour>
      <point x="1896" y="-344" type="line"/>
      <point x="1772" y="-333" type="line" smooth="yes"/>
      <point x="1746" y="-331"/>
      <point x="1730" y="-329"/>
      <point x="1736" y="-303" type="curve"/>
      <point x="2067" y="1407" type="line"/>
      <point x="1887" y="1407" type="line"/>
      <point x="1806" y="1347"/>
      <point x="1678" y="1322"/>
      <point x="1570" y="1322" type="curve" smooth="yes"/>
      <point x="1363" y="1322"/>
      <point x="1301" y="1407"/>
      <point x="923" y="1407" type="curve" smooth="yes"/>
      <point x="423" y="1407"/>
      <point x="98" y="985"/>
      <point x="98" y="539" type="curve" smooth="yes"/>
      <point x="98" y="207"/>
      <point x="318" y="-33"/>
      <point x="698" y="-33" type="curve" smooth="yes"/>
      <point x="1001" y="-33"/>
      <point x="1229" y="133"/>
      <point x="1266" y="329" type="curve" smooth="yes"/>
      <point x="1415" y="1118" type="line"/>
      <point x="1489" y="1109"/>
      <point x="1626" y="1099"/>
      <point x="1726" y="1123" type="curve"/>
      <point x="1443" y="-305" type="line" smooth="yes"/>
      <point x="1439" y="-325"/>
      <point x="1427" y="-333"/>
      <point x="1396" y="-335" type="curve" smooth="yes"/>
      <point x="1275" y="-344" type="line"/>
      <point x="1275" y="-446" type="line"/>
      <point x="1896" y="-446" type="line"/>
    </contour>
    <contour>
      <point x="973" y="364" type="line"/>
      <point x="932" y="143"/>
      <point x="871" y="94"/>
      <point x="713" y="94" type="curve" smooth="yes"/>
      <point x="558" y="94"/>
      <point x="416" y="262"/>
      <point x="416" y="522" type="curve" smooth="yes"/>
      <point x="416" y="861"/>
      <point x="604" y="1280"/>
      <point x="894" y="1280" type="curve" smooth="yes"/>
      <point x="964" y="1280"/>
      <point x="1054" y="1260"/>
      <point x="1131" y="1205" type="curve"/>
    </contour>
  </outline>
</glyph>
<glyph name="LtnYr" format="2">
  <advance width="1369"/>
  <unicode hex="01A6"/>
  <anchor x="606" y="-100" name="L"/>
  <anchor x="894" y="1500" name="U"/>
  <outline>
    <contour>
      <point x="1143" y="-139" type="curve" smooth="yes"/>
      <point x="1220" y="-139"/>
      <point x="1268" y="-124"/>
      <point x="1316" y="-108" type="curve"/>
      <point x="1316" y="-4" type="line"/>
      <point x="1305" y="-6"/>
      <point x="1283" y="-9"/>
      <point x="1260" y="-9" type="curve" smooth="yes"/>
      <point x="1134" y="-9"/>
      <point x="1114" y="72"/>
      <point x="1066" y="240" type="curve" smooth="yes"/>
      <point x="1012" y="429"/>
      <point x="945" y="557"/>
      <point x="818" y="601" type="curve"/>
      <point x="998" y="637"/>
      <point x="1231" y="727"/>
      <point x="1231" y="917" type="curve" smooth="yes"/>
      <point x="1231" y="1107"/>
      <point x="1049" y="1194"/>
      <point x="769" y="1194" type="curve" smooth="yes"/>
      <point x="635" y="1194" type="line"/>
      <point x="642" y="1237" type="line" smooth="yes"/>
      <point x="648" y="1270"/>
      <point x="658" y="1276"/>
      <point x="685" y="1278" type="curve" smooth="yes"/>
      <point x="823" y="1288" type="line"/>
      <point x="823" y="1374" type="line"/>
      <point x="193" y="1374" type="line"/>
      <point x="193" y="1272" type="line"/>
      <point x="311" y="1262" type="line" smooth="yes"/>
      <point x="338" y="1260"/>
      <point x="348" y="1255"/>
      <point x="343" y="1231" type="curve" smooth="yes"/>
      <point x="134" y="145" type="line" smooth="yes"/>
      <point x="129" y="120"/>
      <point x="115" y="113"/>
      <point x="90" y="111" type="curve" smooth="yes"/>
      <point x="-31" y="102" type="line"/>
      <point x="-31" y="0" type="line"/>
      <point x="588" y="0" type="line"/>
      <point x="588" y="102" type="line"/>
      <point x="463" y="113" type="line" smooth="yes"/>
      <point x="434" y="116"/>
      <point x="429" y="123"/>
      <point x="433" y="143" type="curve" smooth="yes"/>
      <point x="517" y="582" type="line"/>
      <point x="553" y="582" type="line"/>
      <point x="692" y="582"/>
      <point x="732" y="379"/>
      <point x="785" y="227" type="curve" smooth="yes"/>
      <point x="851" y="38"/>
      <point x="878" y="-139"/>
    </contour>
    <contour>
      <point x="600" y="697" type="curve" smooth="yes"/>
      <point x="546" y="697"/>
      <point x="565" y="699"/>
      <point x="540" y="701" type="curve"/>
      <point x="614" y="1090" type="line"/>
      <point x="682" y="1090" type="line" smooth="yes"/>
      <point x="830" y="1090"/>
      <point x="918" y="1040"/>
      <point x="918" y="915" type="curve" smooth="yes"/>
      <point x="918" y="744"/>
      <point x="741" y="697"/>
    </contour>
  </outline>
</glyph>
<glyph name="LtnCapTHook" format="1">
  <advance width="1286"/>
  <unicode hex="01AC"/>
  <outline>
    <contour>
      <point x="1417" y="1374" type="line"/>
      <point x="459" y="1374" type="line" smooth="yes"/>
      <point x="262" y="1374"/>
      <point x="127" y="1278"/>
      <point x="127" y="1098" type="curve" smooth="yes"/>
      <point x="127" y="1004"/>
      <point x="188" y="934"/>
      <point x="287" y="934" type="curve" smooth="yes"/>
      <point x="340" y="934"/>
      <point x="414" y="977"/>
      <point x="430" y="1055" type="curve"/>
      <point x="303" y="1194" type="line"/>
      <point x="303" y="1239"/>
      <point x="336" y="1262"/>
      <point x="422" y="1262" type="curve" smooth="yes"/>
      <point x="633" y="1262" type="line"/>
      <point x="422" y="145" type="line" smooth="yes"/>
      <point x="418" y="119"/>
      <point x="395" y="113"/>
      <point x="367" y="111" type="curve"/>
      <point x="367" y="111"/>
      <point x="307" y="106"/>
      <point x="254" y="102" type="curve"/>
      <point x="254" y="0" type="line"/>
      <point x="872" y="0" type="line"/>
      <point x="872" y="102" type="line"/>
      <point x="817" y="109"/>
      <point x="754" y="113"/>
      <point x="754" y="113" type="curve"/>
      <point x="729" y="115"/>
      <point x="711" y="119"/>
      <point x="715" y="143" type="curve" smooth="yes"/>
      <point x="926" y="1262" type="line"/>
      <point x="1149" y="1262" type="line" smooth="yes"/>
      <point x="1169" y="1262"/>
      <point x="1196" y="1253"/>
      <point x="1194" y="1235" type="curve"/>
      <point x="1184" y="1016" type="line"/>
      <point x="1343" y="1016" type="line"/>
    </contour>
    <contour>
      <point x="513" y="-100" type="move" name="L"/>
    </contour>
    <contour>
      <point x="801" y="1500" type="move" name="U"/>
    </contour>
  </outline>
</glyph>
<glyph name="LtnSmTHook" format="2">
  <advance width="705"/>
  <unicode hex="01AD"/>
  <anchor x="272" y="-100" name="L"/>
  <anchor x="588" y="1540" name="U"/>
  <outline>
    <contour>
      <point x="918" y="1372" type="curve" smooth="yes"/>
      <point x="918" y="1423"/>
      <point x="864" y="1509"/>
      <point x="721" y="1509" type="curve" smooth="yes"/>
      <point x="446" y="1509"/>
      <point x="305" y="1223"/>
      <point x="254" y="989" type="curve"/>
      <point x="80" y="920" type="line"/>
      <point x="80" y="836" type="line"/>
      <point x="227" y="852" type="line"/>
      <point x="102" y="242" type="line" smooth="yes"/>
      <point x="96" y="213"/>
      <point x="94" y="186"/>
      <point x="94" y="160" type="curve" smooth="yes"/>
      <point x="94" y="53"/>
      <point x="170" y="-25"/>
      <point x="328" y="-25" type="curve" smooth="yes"/>
      <point x="457" y="-25"/>
      <point x="662" y="55"/>
      <point x="707" y="76" type="curve"/>
      <point x="707" y="188" type="line"/>
      <point x="641" y="163"/>
      <point x="514" y="117"/>
      <point x="451" y="117" type="curve" smooth="yes"/>
      <point x="398" y="117"/>
      <point x="367" y="147"/>
      <point x="367" y="193" type="curve" smooth="yes"/>
      <point x="367" y="203"/>
      <point x="369" y="213"/>
      <point x="371" y="223" type="curve" smooth="yes"/>
      <point x="500" y="856" type="line"/>
      <point x="805" y="856" type="line"/>
      <point x="805" y="969" type="line"/>
      <point x="520" y="969" type="line"/>
      <point x="553" y="1122" type="line" smooth="yes"/>
      <point x="568" y="1192"/>
      <point x="596" y="1300"/>
      <point x="659" y="1370" type="curve"/>
      <point x="801" y="1229" type="line"/>
      <point x="872" y="1262"/>
      <point x="918" y="1288"/>
    </contour>
  </outline>
</glyph>
<glyph name="LtnSmTHook" format="1">
  <advance width="705"/>
  <unicode hex="01AD"/>
  <outline>
    <contour>
      <point x="918" y="1372" type="curve" smooth="yes"/>
      <point x="918" y="1423"/>
      <point x="864" y="1509"/>
      <point x="721" y="1509" type="curve" smooth="yes"/>
      <point x="446" y="1509"/>
      <point x="305" y="1223"/>
      <point x="254" y="989" type="curve"/>
      <point x="80" y="920" type="line"/>
      <point x="80" y="836" type="line"/>
      <point x="227" y="852" type="line"/>
      <point x="102" y="242" type="line" smooth="yes"/>
      <point x="96" y="213"/>
      <point x="94" y="186"/>
      <point x="94" y="160" type="curve" smooth="yes"/>
      <point x="94" y="53"/>
      <point x="170" y="-25"/>
      <point x="328" y="-25" type="curve" smooth="yes"/>
      <point x="457" y="-25"/>
      <point x="662" y="55"/>
      <point x="707" y="76" type="curve"/>
      <point x="707" y="188" type="line"/>
      <point x="641" y="166"/>
      <point x="514" y="117"/>
      <point x="451" y="117" type="curve" smooth="yes"/>
      <point x="387" y="117"/>
      <point x="356" y="160"/>
      <point x="371" y="223" type="curve"/>
      <point x="500" y="856" type="line"/>
      <point x="805" y="856" type="line"/>
      <point x="805" y="969" type="line"/>
      <point x="520" y="969" type="line"/>
      <point x="553" y="1122" type="line" smooth="yes"/>
      <point x="567" y="1192"/>
      <point x="596" y="1300"/>
      <point x="659" y="1370" type="curve"/>
      <point x="801" y="1229" type="line"/>
      <point x="872" y="1262"/>
      <point x="918" y="1288"/>
    </contour>
    <contour>
      <point x="588" y="1540" type="move" name="U"/>
    </contour>
    <contour>
      <point x="272" y="-100" type="move" name="L"/>
    </contour>
  </outline>
</glyph>
<glyph name="LtnSmYHook.RtHook" format="2">
  <advance width="1196"/>
  <unicode hex="01B4"/>
  <anchor x="682" y="-100" name="L"/>
  <anchor x="640" y="1100" name="U"/>
  <outline>
    <contour>
      <point x="1436" y="1135" type="curve" smooth="yes"/>
      <point x="1436" y="1196"/>
      <point x="1352" y="1274"/>
      <point x="1257" y="1274" type="curve" smooth="yes"/>
      <point x="1020" y="1274"/>
      <point x="905" y="1167"/>
      <point x="788" y="877" type="curve"/>
      <point x="788" y="877"/>
      <point x="659" y="559"/>
      <point x="598" y="406" type="curve"/>
      <point x="567" y="565"/>
      <point x="532" y="729"/>
      <point x="504" y="823" type="curve" smooth="yes"/>
      <point x="446" y="1014"/>
      <point x="389" y="1024"/>
      <point x="297" y="1024" type="curve" smooth="yes"/>
      <point x="256" y="1024"/>
      <point x="55" y="965"/>
      <point x="6" y="948" type="curve"/>
      <point x="6" y="885" type="line"/>
      <point x="223" y="868" type="line"/>
      <point x="242" y="868"/>
      <point x="272" y="659"/>
      <point x="313" y="471" type="curve" smooth="yes"/>
      <point x="356" y="276"/>
      <point x="393" y="76"/>
      <point x="399" y="43" type="curve"/>
      <point x="283" y="-166"/>
      <point x="182" y="-279"/>
      <point x="90" y="-299" type="curve"/>
      <point x="2" y="-143" type="line"/>
      <point x="-127" y="-147"/>
      <point x="-164" y="-246"/>
      <point x="-164" y="-313" type="curve" smooth="yes"/>
      <point x="-164" y="-371"/>
      <point x="-115" y="-469"/>
      <point x="51" y="-469" type="curve" smooth="yes"/>
      <point x="297" y="-469"/>
      <point x="469" y="-266"/>
      <point x="606" y="-29" type="curve" smooth="yes"/>
      <point x="684" y="106"/>
      <point x="999" y="854"/>
      <point x="999" y="854" type="curve"/>
      <point x="1071" y="1016"/>
      <point x="1090" y="1108"/>
      <point x="1174" y="1108" type="curve"/>
      <point x="1300" y="965" type="line"/>
      <point x="1386" y="1024"/>
      <point x="1436" y="1075"/>
    </contour>
  </outline>
</glyph>
<glyph name="LtnCapEzhRev" format="2">
  <advance width="1445"/>
  <unicode hex="01B8"/>
  <anchor x="528" y="-500" name="L"/>
  <anchor x="892" y="1500" name="U"/>
  <outline>
    <contour>
      <point x="1425" y="1374" type="line"/>
      <point x="390" y="1374" type="line"/>
      <point x="332" y="1223" type="line"/>
      <point x="708" y="618" type="line"/>
      <point x="361" y="582"/>
      <point x="40" y="355"/>
      <point x="40" y="22" type="curve" smooth="yes"/>
      <point x="40" y="-231"/>
      <point x="234" y="-469"/>
      <point x="604" y="-469" type="curve" smooth="yes"/>
      <point x="980" y="-469"/>
      <point x="1195" y="-285"/>
      <point x="1195" y="-120" type="curve" smooth="yes"/>
      <point x="1195" y="-50"/>
      <point x="1140" y="12"/>
      <point x="1061" y="12" type="curve" smooth="yes"/>
      <point x="1038" y="12"/>
      <point x="937" y="1"/>
      <point x="901" y="-25" type="curve"/>
      <point x="818" y="-273" type="line"/>
      <point x="747" y="-314"/>
      <point x="664" y="-322"/>
      <point x="627" y="-322" type="curve" smooth="yes"/>
      <point x="476" y="-322"/>
      <point x="375" y="-148"/>
      <point x="375" y="34" type="curve" smooth="yes"/>
      <point x="375" y="308"/>
      <point x="650" y="487"/>
      <point x="807" y="487" type="curve" smooth="yes"/>
      <point x="838" y="487"/>
      <point x="842" y="477"/>
      <point x="892" y="424" type="curve"/>
      <point x="1002" y="553" type="line"/>
      <point x="612" y="1161" type="line"/>
      <point x="1142" y="1161" type="line" smooth="yes"/>
      <point x="1158" y="1161"/>
      <point x="1178" y="1147"/>
      <point x="1179" y="1120" type="curve"/>
      <point x="1173" y="901" type="line"/>
      <point x="1333" y="901" type="line"/>
    </contour>
  </outline>
</glyph>
<glyph name="LtnTwoStrk" format="2">
  <advance width="1202"/>
  <unicode hex="01BB"/>
  <anchor x="500" y="-100" name="L"/>
  <anchor x="788" y="1500" name="U"/>
  <outline>
    <contour>
      <point x="-18" y="0" type="line"/>
      <point x="1006" y="0" type="line"/>
      <point x="1085" y="401" type="line"/>
      <point x="952" y="401" type="line"/>
      <point x="881" y="221" type="line"/>
      <point x="297" y="221" type="line"/>
      <point x="494" y="336"/>
      <point x="672" y="442"/>
      <point x="813" y="549" type="curve"/>
      <point x="1169" y="549" type="line"/>
      <point x="1194" y="680" type="line"/>
      <point x="969" y="680" type="line"/>
      <point x="1071" y="780"/>
      <point x="1139" y="885"/>
      <point x="1161" y="1001" type="curve" smooth="yes"/>
      <point x="1210" y="1247"/>
      <point x="1034" y="1399"/>
      <point x="774" y="1399" type="curve" smooth="yes"/>
      <point x="596" y="1399"/>
      <point x="262" y="1337"/>
      <point x="211" y="1079" type="curve" smooth="yes"/>
      <point x="193" y="989"/>
      <point x="236" y="928"/>
      <point x="336" y="928" type="curve" smooth="yes"/>
      <point x="399" y="928"/>
      <point x="481" y="967"/>
      <point x="481" y="967" type="curve"/>
      <point x="537" y="1243" type="line"/>
      <point x="586" y="1257"/>
      <point x="602" y="1262"/>
      <point x="657" y="1262" type="curve" smooth="yes"/>
      <point x="811" y="1262"/>
      <point x="887" y="1145"/>
      <point x="854" y="983" type="curve" smooth="yes"/>
      <point x="834" y="877"/>
      <point x="768" y="774"/>
      <point x="682" y="680" type="curve"/>
      <point x="158" y="680" type="line"/>
      <point x="131" y="549" type="line"/>
      <point x="549" y="549" type="line"/>
      <point x="354" y="381"/>
      <point x="123" y="248"/>
      <point x="16" y="170" type="curve"/>
    </contour>
  </outline>
</glyph>
<glyph name="LtnSmTnFive" format="2">
  <advance width="909"/>
  <unicode hex="01BD"/>
  <anchor x="278" y="-100" name="L"/>
  <anchor x="522" y="1100" name="U"/>
  <outline>
    <contour>
      <point x="271" y="-24" type="curve" smooth="yes"/>
      <point x="497" y="-24"/>
      <point x="764" y="79"/>
      <point x="764" y="339" type="curve" smooth="yes"/>
      <point x="764" y="534"/>
      <point x="559" y="659"/>
      <point x="344" y="676" type="curve"/>
      <point x="379" y="839" type="line"/>
      <point x="382" y="851"/>
      <point x="396" y="870"/>
      <point x="414" y="870" type="curve" smooth="yes"/>
      <point x="659" y="870" type="line" smooth="yes"/>
      <point x="672" y="870"/>
      <point x="678" y="857"/>
      <point x="677" y="842" type="curve" smooth="yes"/>
      <point x="673" y="738" type="line"/>
      <point x="797" y="738" type="line"/>
      <point x="845" y="987" type="line"/>
      <point x="92" y="987" type="line"/>
      <point x="72" y="876" type="line"/>
      <point x="162" y="870" type="line"/>
      <point x="180" y="867"/>
      <point x="186" y="851"/>
      <point x="183" y="839" type="curve" smooth="yes"/>
      <point x="124" y="556" type="line"/>
      <point x="350" y="556"/>
      <point x="480" y="436"/>
      <point x="480" y="304" type="curve" smooth="yes"/>
      <point x="480" y="160"/>
      <point x="406" y="78"/>
      <point x="304" y="78" type="curve" smooth="yes"/>
      <point x="273" y="78"/>
      <point x="233" y="101"/>
      <point x="215" y="123" type="curve"/>
      <point x="187" y="309" type="line"/>
      <point x="176" y="315"/>
      <point x="149" y="318"/>
      <point x="134" y="318" type="curve" smooth="yes"/>
      <point x="44" y="318"/>
      <point x="-25" y="261"/>
      <point x="-25" y="165" type="curve" smooth="yes"/>
      <point x="-25" y="47"/>
      <point x="126" y="-24"/>
    </contour>
  </outline>
</glyph>
<glyph name="LtnDentalClick" format="1">
  <advance width="463"/>
  <unicode hex="01C0"/>
  <outline>
    <contour>
      <point x="145" y="-440" type="line"/>
      <point x="516" y="1507" type="line"/>
      <point x="361" y="1507" type="line"/>
      <point x="-10" y="-440" type="line"/>
    </contour>
    <contour>
      <point x="48" y="-500" type="move" name="L"/>
    </contour>
    <contour>
      <point x="440" y="1540" type="move" name="U"/>
    </contour>
  </outline>
</glyph>
<glyph name="LtnLateralClick" format="1">
  <advance width="753"/>
  <unicode hex="01C1"/>
  <outline>
    <contour>
      <point x="435" y="-440" type="line"/>
      <point x="806" y="1507" type="line"/>
      <point x="651" y="1507" type="line"/>
      <point x="280" y="-440" type="line"/>
    </contour>
    <contour>
      <point x="145" y="-440" type="line"/>
      <point x="516" y="1507" type="line"/>
      <point x="361" y="1507" type="line"/>
      <point x="-10" y="-440" type="line"/>
    </contour>
    <contour>
      <point x="585" y="1540" type="move" name="U"/>
    </contour>
    <contour>
      <point x="193" y="-500" type="move" name="L"/>
    </contour>
  </outline>
</glyph>
<glyph name="LtnAlveolarClick" format="1">
  <advance width="863"/>
  <unicode hex="01C2"/>
  <outline>
    <contour>
      <point x="100" y="609" type="line"/>
      <point x="853" y="609" type="line"/>
      <point x="853" y="743" type="line"/>
      <point x="100" y="743" type="line"/>
    </contour>
    <contour>
      <point x="40" y="323" type="line"/>
      <point x="793" y="323" type="line"/>
      <point x="793" y="457" type="line"/>
      <point x="40" y="457" type="line"/>
    </contour>
    <component base="LtnDentalClick" xOffset="200"/>
    <contour>
      <point x="634" y="1540" type="move" name="U"/>
    </contour>
    <contour>
      <point x="242" y="-500" type="move" name="L"/>
    </contour>
  </outline>
</glyph>
<glyph name="LtnCapDzCaron" format="1">
  <advance width="2697"/>
  <unicode hex="01C4"/>
  <outline>
    <component base="LtnCapD"/>
    <component base="LtnCapZ" xOffset="1460"/>
    <component base="CombCaron" xOffset="2701" yOffset="400"/>
    <contour>
      <point x="2302" y="1900" type="move" name="U"/>
    </contour>
    <contour>
      <point x="1970" y="-100" type="move" name="L"/>
    </contour>
  </outline>
</glyph>
<glyph name="LtnCapDSmZCaron" format="1">
  <advance width="2466"/>
  <unicode hex="01C5"/>
  <outline>
    <component base="LtnCapD"/>
    <component base="LtnSmZ" xOffset="1460"/>
    <component base="CombCaron" xOffset="2493"/>
    <contour>
      <point x="1864" y="0" type="move" name="H"/>
    </contour>
    <contour>
      <point x="1844" y="-100" type="move" name="L"/>
    </contour>
    <contour>
      <point x="2094" y="1500" type="move" name="U"/>
    </contour>
  </outline>
</glyph>
<glyph name="LtnSmDzCaron" format="1">
  <advance width="2165"/>
  <unicode hex="01C6"/>
  <outline>
    <component base="LtnSmD"/>
    <component base="LtnSmZ" xOffset="1159"/>
    <component base="CombCaron" xOffset="2230"/>
    <contour>
      <point x="1563" y="0" type="move" name="H"/>
    </contour>
    <contour>
      <point x="1831" y="1500" type="move" name="U"/>
    </contour>
    <contour>
      <point x="1543" y="-100" type="move" name="L"/>
    </contour>
  </outline>
</glyph>
<glyph name="LtnCapLj" format="1">
  <advance width="2191"/>
  <unicode hex="01C7"/>
  <outline>
    <component base="LtnCapL"/>
    <component base="LtnCapJ" xOffset="1147"/>
    <contour>
      <point x="469" y="0" type="move" name="H"/>
    </contour>
    <contour>
      <point x="1454" y="-100" type="move" name="L"/>
    </contour>
    <contour>
      <point x="2019" y="1500" type="move" name="U"/>
    </contour>
  </outline>
</glyph>
<glyph name="LtnCapLSmJ" format="1">
  <advance width="1798"/>
  <unicode hex="01C8"/>
  <outline>
    <component base="LtnCapL"/>
    <component base="LtnSmJ" xOffset="1147"/>
    <contour>
      <point x="469" y="0" type="move" name="H"/>
    </contour>
    <contour>
      <point x="1146" y="-500" type="move" name="L"/>
    </contour>
    <contour>
      <point x="1660" y="1500" type="move" name="U"/>
    </contour>
  </outline>
</glyph>
<glyph name="LtnSmLj" format="1">
  <advance width="1278"/>
  <unicode hex="01C9"/>
  <outline>
    <component base="LtnSmL"/>
    <component base="LtnSmJ" xOffset="627"/>
    <contour>
      <point x="1145" y="1500" type="move" name="U"/>
    </contour>
    <contour>
      <point x="626" y="-500" type="move" name="L"/>
    </contour>
    <contour>
      <point x="224" y="0" type="move" name="H"/>
    </contour>
  </outline>
</glyph>
<glyph name="LtnCapNj" format="1">
  <advance width="2586"/>
  <unicode hex="01CA"/>
  <outline>
    <component base="LtnCapN"/>
    <component base="LtnCapJ" xOffset="1542"/>
    <contour>
      <point x="1109" y="0" type="move" name="H"/>
    </contour>
    <contour>
      <point x="1849" y="-100" type="move" name="L"/>
    </contour>
    <contour>
      <point x="2414" y="1500" type="move" name="U"/>
    </contour>
  </outline>
</glyph>
<glyph name="LtnCapNSmJ" format="1">
  <advance width="2193"/>
  <unicode hex="01CB"/>
  <outline>
    <component base="LtnCapN"/>
    <component base="LtnSmJ" xOffset="1542"/>
    <contour>
      <point x="1541" y="-500" type="move" name="L"/>
    </contour>
    <contour>
      <point x="2050" y="1500" type="move" name="U"/>
    </contour>
    <contour>
      <point x="662" y="0" type="move" name="H"/>
    </contour>
  </outline>
</glyph>
<glyph name="LtnSmNj" format="1">
  <advance width="1835"/>
  <unicode hex="01CC"/>
  <outline>
    <component base="LtnSmN"/>
    <component base="LtnSmJ" xOffset="1184"/>
    <contour>
      <point x="867" y="0" type="move" name="H"/>
    </contour>
    <contour>
      <point x="1183" y="-500" type="move" name="L"/>
    </contour>
    <contour>
      <point x="1700" y="1500" type="move" name="U"/>
    </contour>
  </outline>
</glyph>
<glyph name="LtnSmACaron" format="1">
  <advance width="1163"/>
  <unicode hex="01CE"/>
  <outline>
    <component base="LtnSmA"/>
    <component base="CombCaron" xOffset="1192"/>
    <contour>
      <point x="538" y="0" type="move" name="H"/>
    </contour>
    <contour>
      <point x="505" y="-100" type="move" name="L"/>
    </contour>
    <contour>
      <point x="1069" y="0" type="move" name="O"/>
    </contour>
    <contour>
      <point x="1163" y="1000" type="move" name="R"/>
    </contour>
    <contour>
      <point x="793" y="1500" type="move" name="U"/>
    </contour>
  </outline>
</glyph>
<glyph name="LtnSmUDiaerMacron" format="1">
  <advance width="1176"/>
  <unicode hex="01D6"/>
  <outline>
    <component base="LtnSmU"/>
    <component base="CombDiaer" xOffset="1178"/>
    <component base="CombMacron" xOffset="1222" yOffset="400"/>
    <contour>
      <point x="530" y="0" type="move" name="H"/>
    </contour>
    <contour>
      <point x="1176" y="1000" type="move" name="R"/>
    </contour>
    <contour>
      <point x="838" y="1870" type="move" name="U"/>
    </contour>
    <contour>
      <point x="491" y="-100" type="move" name="L"/>
    </contour>
    <contour>
      <point x="1025" y="0" type="move" name="O"/>
    </contour>
  </outline>
</glyph>
<glyph name="LtnSmUDiaerAcute" format="1">
  <advance width="1176"/>
  <unicode hex="01D8"/>
  <outline>
    <component base="LtnSmU"/>
    <component base="CombDiaer" xOffset="1178"/>
    <component base="CombAcute" xOffset="1222" yOffset="400"/>
    <contour>
      <point x="530" y="0" type="move" name="H"/>
    </contour>
    <contour>
      <point x="491" y="-100" type="move" name="L"/>
    </contour>
    <contour>
      <point x="1025" y="0" type="move" name="O"/>
    </contour>
    <contour>
      <point x="1176" y="1000" type="move" name="R"/>
    </contour>
    <contour>
      <point x="823" y="1900" type="move" name="U"/>
    </contour>
  </outline>
</glyph>
<glyph name="LtnCapUDiaerGrave" format="1">
  <advance width="1534"/>
  <unicode hex="01DB"/>
  <outline>
    <component base="LtnCapU"/>
    <component base="CombDiaer" xOffset="1388" yOffset="400"/>
    <component base="CombGrave" xOffset="1432" yOffset="800"/>
    <contour>
      <point x="659" y="0" type="move" name="H"/>
    </contour>
    <contour>
      <point x="657" y="-100" type="move" name="L"/>
    </contour>
    <contour>
      <point x="988" y="0" type="move" name="O"/>
    </contour>
    <contour>
      <point x="1650" y="1350" type="move" name="R"/>
    </contour>
    <contour>
      <point x="1033" y="2300" type="move" name="U"/>
    </contour>
  </outline>
</glyph>
<glyph name="LtnSmUDiaerGrave" format="1">
  <advance width="1176"/>
  <unicode hex="01DC"/>
  <outline>
    <component base="LtnSmU"/>
    <component base="CombDiaer" xOffset="1178"/>
    <component base="CombGrave" xOffset="1222" yOffset="400"/>
    <contour>
      <point x="530" y="0" type="move" name="H"/>
    </contour>
    <contour>
      <point x="1176" y="1000" type="move" name="R"/>
    </contour>
    <contour>
      <point x="823" y="1900" type="move" name="U"/>
    </contour>
    <contour>
      <point x="491" y="-100" type="move" name="L"/>
    </contour>
    <contour>
      <point x="1025" y="0" type="move" name="O"/>
    </contour>
  </outline>
</glyph>
<glyph name="LtnCapADiaerMacron" format="1">
  <advance width="1464"/>
  <unicode hex="01DE"/>
  <outline>
    <component base="LtnCapA"/>
    <component base="CombDiaer" xOffset="1322" yOffset="400"/>
    <component base="CombMacron" xOffset="1366" yOffset="800"/>
    <contour>
      <point x="600" y="0" type="move" name="H"/>
    </contour>
    <contour>
      <point x="591" y="-100" type="move" name="L"/>
    </contour>
    <contour>
      <point x="1254" y="0" type="move" name="O"/>
    </contour>
    <contour>
      <point x="982" y="2270" type="move" name="U"/>
    </contour>
  </outline>
</glyph>
<glyph name="LtnSmADiaerMacron" format="1">
  <advance width="1163"/>
  <unicode hex="01DF"/>
  <outline>
    <component base="LtnSmA"/>
    <component base="CombDiaer" xOffset="1192"/>
    <component base="CombMacron" xOffset="1276" yOffset="400"/>
    <contour>
      <point x="837" y="0" type="move" name="H"/>
    </contour>
    <contour>
      <point x="505" y="-100" type="move" name="L"/>
    </contour>
    <contour>
      <point x="1014" y="0" type="move" name="O"/>
    </contour>
    <contour>
      <point x="1163" y="1000" type="move" name="R"/>
    </contour>
    <contour>
      <point x="892" y="1870" type="move" name="U"/>
    </contour>
  </outline>
</glyph>
<glyph name="LtnCapADotAbvMacron" format="1">
  <advance width="1464"/>
  <unicode hex="01E0"/>
  <outline>
    <component base="LtnCapA"/>
    <component base="CombMacron" xOffset="1366" yOffset="800"/>
    <component base="DotAbv" xOffset="606" yOffset="400"/>
    <contour>
      <point x="1080" y="0" type="move" name="H"/>
    </contour>
    <contour>
      <point x="1254" y="0" type="move" name="O"/>
    </contour>
    <contour>
      <point x="982" y="2270" type="move" name="U"/>
    </contour>
    <contour>
      <point x="591" y="-100" type="move" name="L"/>
    </contour>
  </outline>
</glyph>
<glyph name="LtnSmADotAbvMacron" format="1">
  <advance width="1163"/>
  <unicode hex="01E1"/>
  <outline>
    <component base="LtnSmA"/>
    <component base="CombMacron" xOffset="1276" yOffset="400"/>
    <component base="DotAbv" xOffset="476"/>
    <contour>
      <point x="1163" y="1000" type="move" name="R"/>
    </contour>
    <contour>
      <point x="505" y="-100" type="move" name="L"/>
    </contour>
    <contour>
      <point x="1014" y="0" type="move" name="O"/>
    </contour>
    <contour>
      <point x="837" y="0" type="move" name="H"/>
    </contour>
    <contour>
      <point x="892" y="1870" type="move" name="U"/>
    </contour>
  </outline>
</glyph>
<glyph name="LtnCapAeMacron" format="1">
  <advance width="2003"/>
  <unicode hex="01E2"/>
  <outline>
    <component base="LtnCapAe"/>
    <component base="CombMacron" xOffset="1761" yOffset="400"/>
    <contour>
      <point x="1377" y="1870" type="move" name="U"/>
    </contour>
    <contour>
      <point x="1030" y="-100" type="move" name="L"/>
    </contour>
  </outline>
</glyph>
<glyph name="LtnSmAeMacron" format="1">
  <advance width="1608"/>
  <unicode hex="01E3"/>
  <outline>
    <component base="LtnSmAe"/>
    <component base="CombMacron" xOffset="1420"/>
    <contour>
      <point x="753" y="0" type="move" name="H"/>
    </contour>
    <contour>
      <point x="733" y="-100" type="move" name="L"/>
    </contour>
    <contour>
      <point x="777" y="0" type="move" name="O"/>
    </contour>
    <contour>
      <point x="1608" y="1000" type="move" name="R"/>
    </contour>
    <contour>
      <point x="1040" y="1500" type="move" name="U"/>
    </contour>
  </outline>
</glyph>
<glyph name="LtnCapGCaron" format="1">
  <advance width="1495"/>
  <unicode hex="01E6"/>
  <outline>
    <component base="LtnCapG"/>
    <component base="CombCaron" xOffset="1421" yOffset="400"/>
    <contour>
      <point x="710" y="0" type="move" name="H"/>
    </contour>
    <contour>
      <point x="1022" y="1900" type="move" name="U"/>
    </contour>
    <contour>
      <point x="690" y="-100" type="move" name="L"/>
    </contour>
  </outline>
</glyph>
<glyph name="LtnSmGCaron" format="1">
  <advance width="995"/>
  <unicode hex="01E7"/>
  <outline>
    <component base="LtnSmG"/>
    <component base="CombCaron" xOffset="1043"/>
    <contour>
      <point x="333" y="-432" type="move" name="H"/>
    </contour>
    <contour>
      <point x="290" y="-500" type="move" name="L"/>
    </contour>
    <contour>
      <point x="995" y="1000" type="move" name="R"/>
    </contour>
    <contour>
      <point x="644" y="1500" type="move" name="U"/>
    </contour>
  </outline>
</glyph>
<glyph name="LtnCapKCaron" format="1">
  <advance width="1430"/>
  <unicode hex="01E8"/>
  <outline>
    <component base="LtnCapK"/>
    <component base="CombCaron" xOffset="1348" yOffset="400"/>
    <contour>
      <point x="248" y="0" type="move" name="H"/>
    </contour>
    <contour>
      <point x="949" y="1900" type="move" name="U"/>
    </contour>
    <contour>
      <point x="617" y="-100" type="move" name="L"/>
    </contour>
  </outline>
</glyph>
<glyph name="LtnSmKCaron" format="1">
  <advance width="1126"/>
  <unicode hex="01E9"/>
  <outline>
    <component base="LtnSmK"/>
    <component base="CombCaron" xOffset="1198" yOffset="440"/>
    <contour>
      <point x="154" y="0" type="move" name="H"/>
    </contour>
    <contour>
      <point x="1126" y="1000" type="move" name="R"/>
    </contour>
    <contour>
      <point x="799" y="1940" type="move" name="U"/>
    </contour>
    <contour>
      <point x="439" y="-100" type="move" name="L"/>
    </contour>
  </outline>
</glyph>
<glyph name="LtnCapOOgonek" format="1">
  <advance width="1540"/>
  <unicode hex="01EA"/>
  <outline>
    <component base="LtnCapO"/>
    <component base="CombOgonek" xOffset="1371"/>
    <contour>
      <point x="668" y="0" type="move" name="H"/>
    </contour>
    <contour>
      <point x="1520" y="1250" type="move" name="R"/>
    </contour>
    <contour>
      <point x="936" y="1500" type="move" name="U"/>
    </contour>
    <contour>
      <point x="790" y="-500" type="move" name="L"/>
    </contour>
  </outline>
</glyph>
<glyph name="LtnSmOOgonek" format="1">
  <advance width="1133"/>
  <unicode hex="01EB"/>
  <outline>
    <contour>
      <point x="701" y="-256" type="line"/>
      <point x="676" y="-272"/>
      <point x="627" y="-307"/>
      <point x="600" y="-307" type="curve" smooth="yes"/>
      <point x="551" y="-307"/>
      <point x="514" y="-279"/>
      <point x="514" y="-227" type="curve" smooth="yes"/>
      <point x="514" y="-129"/>
      <point x="613" y="-31"/>
      <point x="774" y="58" type="curve"/>
      <point x="559" y="2" type="line"/>
      <point x="463" y="-57"/>
      <point x="340" y="-166"/>
      <point x="340" y="-287" type="curve" smooth="yes"/>
      <point x="340" y="-391"/>
      <point x="447" y="-426"/>
      <point x="535" y="-426" type="curve" smooth="yes"/>
      <point x="588" y="-426"/>
      <point x="690" y="-385"/>
      <point x="742" y="-362" type="curve"/>
    </contour>
    <contour>
      <point x="1069" y="621" type="curve" smooth="yes"/>
      <point x="1069" y="887"/>
      <point x="907" y="1024"/>
      <point x="655" y="1024" type="curve" smooth="yes"/>
      <point x="276" y="1024"/>
      <point x="66" y="692"/>
      <point x="66" y="371" type="curve" smooth="yes"/>
      <point x="66" y="143"/>
      <point x="195" y="-25"/>
      <point x="475" y="-25" type="curve" smooth="yes"/>
      <point x="848" y="-25"/>
      <point x="1069" y="299"/>
    </contour>
    <contour>
      <point x="774" y="629" type="curve" smooth="yes"/>
      <point x="774" y="377"/>
      <point x="643" y="88"/>
      <point x="500" y="88" type="curve" smooth="yes"/>
      <point x="453" y="88"/>
      <point x="358" y="168"/>
      <point x="358" y="379" type="curve" smooth="yes"/>
      <point x="358" y="655"/>
      <point x="508" y="915"/>
      <point x="633" y="915" type="curve" smooth="yes"/>
      <point x="684" y="915"/>
      <point x="774" y="829"/>
    </contour>
    <contour>
      <point x="466" y="0" type="move" name="H"/>
    </contour>
    <contour>
      <point x="1133" y="1000" type="move" name="R"/>
    </contour>
    <contour>
      <point x="690" y="1100" type="move" name="U"/>
    </contour>
    <contour>
      <point x="453" y="-400" type="move" name="L"/>
    </contour>
  </outline>
</glyph>
<glyph name="LtnCapOOgonekMacron" format="1">
  <advance width="1540"/>
  <unicode hex="01EC"/>
  <outline>
    <component base="LtnCapO"/>
    <component base="CombMacron" xOffset="1379" yOffset="400"/>
    <component base="CombOgonek" xOffset="1371"/>
    <contour>
      <point x="668" y="0" type="move" name="H"/>
    </contour>
    <contour>
      <point x="1520" y="1250" type="move" name="R"/>
    </contour>
    <contour>
      <point x="995" y="1870" type="move" name="U"/>
    </contour>
    <contour>
      <point x="790" y="-500" type="move" name="L"/>
    </contour>
  </outline>
</glyph>
<glyph name="LtnSmOOgonekMacron" format="2">
  <advance width="1133"/>
  <unicode hex="01ED"/>
  <anchor x="466" y="0" name="H"/>
  <anchor x="453" y="-400" name="L"/>
  <anchor x="1133" y="1000" name="R"/>
  <anchor x="749" y="1470" name="U"/>
  <outline>
    <contour>
      <point x="701" y="-256" type="line"/>
      <point x="676" y="-272"/>
      <point x="627" y="-307"/>
      <point x="600" y="-307" type="curve" smooth="yes"/>
      <point x="551" y="-307"/>
      <point x="514" y="-279"/>
      <point x="514" y="-227" type="curve" smooth="yes"/>
      <point x="514" y="-129"/>
      <point x="613" y="-31"/>
      <point x="774" y="58" type="curve"/>
      <point x="559" y="2" type="line"/>
      <point x="463" y="-57"/>
      <point x="340" y="-166"/>
      <point x="340" y="-287" type="curve" smooth="yes"/>
      <point x="340" y="-391"/>
      <point x="447" y="-426"/>
      <point x="535" y="-426" type="curve" smooth="yes"/>
      <point x="588" y="-426"/>
      <point x="690" y="-385"/>
      <point x="742" y="-362" type="curve"/>
    </contour>
    <component base="LtnSmO" xOffset="130"/>
    <component base="CombMacron" xOffset="1133"/>
  </outline>
</glyph>
<glyph name="LtnSmOOgonekMacron" format="1">
  <advance width="1133"/>
  <unicode hex="01ED"/>
  <outline>
    <contour>
      <point x="701" y="-256" type="line"/>
      <point x="676" y="-272"/>
      <point x="627" y="-307"/>
      <point x="600" y="-307" type="curve" smooth="yes"/>
      <point x="551" y="-307"/>
      <point x="514" y="-279"/>
      <point x="514" y="-227" type="curve" smooth="yes"/>
      <point x="514" y="-129"/>
      <point x="613" y="-31"/>
      <point x="774" y="58" type="curve"/>
      <point x="559" y="2" type="line"/>
      <point x="463" y="-57"/>
      <point x="340" y="-166"/>
      <point x="340" y="-287" type="curve" smooth="yes"/>
      <point x="340" y="-391"/>
      <point x="447" y="-426"/>
      <point x="535" y="-426" type="curve" smooth="yes"/>
      <point x="588" y="-426"/>
      <point x="690" y="-385"/>
      <point x="742" y="-362" type="curve"/>
    </contour>
    <component base="LtnSmO" xOffset="130"/>
    <component base="CombMacron" xOffset="1133"/>
    <contour>
      <point x="466" y="0" type="move" name="H"/>
    </contour>
    <contour>
      <point x="1133" y="1000" type="move" name="R"/>
    </contour>
    <contour>
      <point x="749" y="1470" type="move" name="U"/>
    </contour>
    <contour>
      <point x="453" y="-400" type="move" name="L"/>
    </contour>
  </outline>
</glyph>
<glyph name="LtnCapEzhCaron" format="1">
  <advance width="1260"/>
  <unicode hex="01EE"/>
  <outline>
    <component base="LtnCapEzh"/>
    <component base="CombCaron" xOffset="1211" yOffset="400"/>
    <contour>
      <point x="812" y="1900" type="move" name="U"/>
    </contour>
    <contour>
      <point x="404" y="-500" type="move" name="L"/>
    </contour>
  </outline>
</glyph>
<glyph name="LtnSmEzhCaron" format="1">
  <advance width="1055"/>
  <unicode hex="01EF"/>
  <outline>
    <component base="LtnSmEzh"/>
    <component base="CombCaron" xOffset="1098"/>
    <contour>
      <point x="699" y="1500" type="move" name="U"/>
    </contour>
    <contour>
      <point x="335" y="-500" type="move" name="L"/>
    </contour>
  </outline>
</glyph>
<glyph name="LtnCapDSmZ" format="1">
  <advance width="2466"/>
  <unicode hex="01F2"/>
  <outline>
    <component base="LtnCapD"/>
    <component base="LtnSmZ" xOffset="1460"/>
    <contour>
      <point x="1864" y="0" type="move" name="H"/>
    </contour>
    <contour>
      <point x="1844" y="-100" type="move" name="L"/>
    </contour>
    <contour>
      <point x="2050" y="1100" type="move" name="U"/>
    </contour>
  </outline>
</glyph>
<glyph name="LtnSmDz" format="1">
  <advance width="2165"/>
  <unicode hex="01F3"/>
  <outline>
    <component base="LtnSmD"/>
    <component base="LtnSmZ" xOffset="1159"/>
    <contour>
      <point x="1563" y="0" type="move" name="H"/>
    </contour>
    <contour>
      <point x="1543" y="-100" type="move" name="L"/>
    </contour>
    <contour>
      <point x="1787" y="1100" type="move" name="U"/>
    </contour>
  </outline>
</glyph>
<glyph name="LtnCapGAcute" format="1">
  <advance width="1495"/>
  <unicode hex="01F4"/>
  <outline>
    <component base="LtnCapG"/>
    <component base="CombAcute" xOffset="1421" yOffset="400"/>
    <contour>
      <point x="710" y="0" type="move" name="H"/>
    </contour>
    <contour>
      <point x="1022" y="1900" type="move" name="U"/>
    </contour>
    <contour>
      <point x="690" y="-100" type="move" name="L"/>
    </contour>
  </outline>
</glyph>
<glyph name="LtnSmGAcute" format="1">
  <advance width="995"/>
  <unicode hex="01F5"/>
  <outline>
    <component base="LtnSmG"/>
    <component base="CombAcute" xOffset="1043"/>
    <contour>
      <point x="333" y="-432" type="move" name="H"/>
    </contour>
    <contour>
      <point x="995" y="1000" type="move" name="R"/>
    </contour>
    <contour>
      <point x="644" y="1500" type="move" name="U"/>
    </contour>
    <contour>
      <point x="290" y="-500" type="move" name="L"/>
    </contour>
  </outline>
</glyph>
<glyph name="LtnCapHwair" format="2">
  <advance width="2231"/>
  <unicode hex="01F6"/>
  <anchor x="870" y="-100" name="L"/>
  <anchor x="1158" y="1500" name="U"/>
  <outline>
    <contour>
      <point x="1365" y="-33" type="curve" smooth="yes"/>
      <point x="1716" y="-33"/>
      <point x="1897" y="167"/>
      <point x="1939" y="368" type="curve" smooth="yes"/>
      <point x="2072" y="999" type="line"/>
      <point x="1800" y="999" type="line"/>
      <point x="1659" y="331" type="line" smooth="yes"/>
      <point x="1628" y="167"/>
      <point x="1501" y="120"/>
      <point x="1418" y="120" type="curve"/>
      <point x="1317" y="120"/>
      <point x="1252" y="198"/>
      <point x="1276" y="331" type="curve" smooth="yes"/>
      <point x="1455" y="1229" type="line" smooth="yes"/>
      <point x="1459" y="1247"/>
      <point x="1467" y="1257"/>
      <point x="1492" y="1260" type="curve" smooth="yes"/>
      <point x="1623" y="1272" type="line"/>
      <point x="1623" y="1374" type="line"/>
      <point x="1004" y="1374" type="line"/>
      <point x="1004" y="1272" type="line"/>
      <point x="1119" y="1264" type="line"/>
      <point x="1152" y="1262"/>
      <point x="1166" y="1255"/>
      <point x="1162" y="1231" type="curve" smooth="yes"/>
      <point x="1074" y="780" type="line"/>
      <point x="521" y="780" type="line"/>
      <point x="609" y="1229" type="line" smooth="yes"/>
      <point x="613" y="1253"/>
      <point x="625" y="1260"/>
      <point x="652" y="1262" type="curve"/>
      <point x="779" y="1272" type="line"/>
      <point x="779" y="1374" type="line"/>
      <point x="161" y="1374" type="line"/>
      <point x="161" y="1272" type="line"/>
      <point x="277" y="1262" type="line"/>
      <point x="306" y="1260"/>
      <point x="320" y="1255"/>
      <point x="316" y="1231" type="curve" smooth="yes"/>
      <point x="103" y="145" type="line" smooth="yes"/>
      <point x="99" y="121"/>
      <point x="87" y="115"/>
      <point x="58" y="113" type="curve"/>
      <point x="-65" y="102" type="line"/>
      <point x="-65" y="0" type="line"/>
      <point x="554" y="0" type="line"/>
      <point x="554" y="102" type="line"/>
      <point x="433" y="113" type="line"/>
      <point x="398" y="115"/>
      <point x="392" y="119"/>
      <point x="396" y="143" type="curve" smooth="yes"/>
      <point x="496" y="657" type="line"/>
      <point x="1049" y="657" type="line"/>
      <point x="985" y="352" type="line" smooth="yes"/>
      <point x="939" y="129"/>
      <point x="1064" y="-33"/>
    </contour>
  </outline>
</glyph>
<glyph name="LtnSmNGrave" format="1">
  <advance width="1184"/>
  <unicode hex="01F9"/>
  <outline>
    <component base="LtnSmN"/>
    <component base="CombGrave" xOffset="1143"/>
    <contour>
      <point x="867" y="0" type="move" name="H"/>
    </contour>
    <contour>
      <point x="455" y="-100" type="move" name="L"/>
    </contour>
    <contour>
      <point x="744" y="1500" type="move" name="U"/>
    </contour>
  </outline>
</glyph>
<glyph name="LtnCapARingAbvAcute" format="1">
  <advance width="1464"/>
  <unicode hex="01FA"/>
  <outline>
    <component base="LtnCapA"/>
    <component base="RingAbv" xOffset="523" yOffset="400"/>
    <component base="CombAcute" xOffset="1396" yOffset="960"/>
    <contour>
      <point x="600" y="0" type="move" name="H"/>
    </contour>
    <contour>
      <point x="591" y="-100" type="move" name="L"/>
    </contour>
    <contour>
      <point x="1254" y="0" type="move" name="O"/>
    </contour>
    <contour>
      <point x="997" y="2460" type="move" name="U"/>
    </contour>
  </outline>
</glyph>
<glyph name="LtnSmARingAbvAcute" format="1">
  <advance width="1163"/>
  <unicode hex="01FB"/>
  <outline>
    <component base="LtnSmA"/>
    <component base="RingAbv" xOffset="393"/>
    <component base="CombAcute" xOffset="1266" yOffset="560"/>
    <contour>
      <point x="538" y="0" type="move" name="H"/>
    </contour>
    <contour>
      <point x="505" y="-100" type="move" name="L"/>
    </contour>
    <contour>
      <point x="1069" y="0" type="move" name="O"/>
    </contour>
    <contour>
      <point x="1163" y="1000" type="move" name="R"/>
    </contour>
    <contour>
      <point x="867" y="2060" type="move" name="U"/>
    </contour>
  </outline>
</glyph>
<glyph name="LtnCapAeAcute" format="1">
  <advance width="2003"/>
  <unicode hex="01FC"/>
  <outline>
    <component base="LtnCapAe"/>
    <component base="CombAcute" xOffset="1761" yOffset="400"/>
    <contour>
      <point x="1030" y="-100" type="move" name="L"/>
    </contour>
    <contour>
      <point x="1362" y="1900" type="move" name="U"/>
    </contour>
  </outline>
</glyph>
<glyph name="LtnSmAeAcute" format="1">
  <advance width="1608"/>
  <unicode hex="01FD"/>
  <outline>
    <component base="LtnSmAe"/>
    <component base="CombAcute" xOffset="1420"/>
    <contour>
      <point x="753" y="0" type="move" name="H"/>
    </contour>
    <contour>
      <point x="733" y="-100" type="move" name="L"/>
    </contour>
    <contour>
      <point x="1276" y="0" type="move" name="O"/>
    </contour>
    <contour>
      <point x="1608" y="1000" type="move" name="R"/>
    </contour>
    <contour>
      <point x="1021" y="1500" type="move" name="U"/>
    </contour>
  </outline>
</glyph>
<glyph name="LtnSmAInvBreve" format="1">
  <advance width="1163"/>
  <unicode hex="0203"/>
  <outline>
    <component base="LtnSmA"/>
    <component base="CombInvBreve" xOffset="1192"/>
    <contour>
      <point x="538" y="0" type="move" name="H"/>
    </contour>
    <contour>
      <point x="505" y="-100" type="move" name="L"/>
    </contour>
    <contour>
      <point x="1069" y="0" type="move" name="O"/>
    </contour>
    <contour>
      <point x="1163" y="1000" type="move" name="R"/>
    </contour>
    <contour>
      <point x="793" y="1500" type="move" name="U"/>
    </contour>
  </outline>
</glyph>
